<svg width="14" height="14" viewBox="0 0 14 14" fill="none" xmlns="http://www.w3.org/2000/svg">
<path d="M2.03955 13.4484V10.9683H4.5197" stroke="#FFA500" stroke-linecap="round" stroke-linejoin="round"/>
<path d="M13.3389 5.81494C13.956 9.09662 11.9478 12.35 8.66898 13.2286C6.15951 13.901 3.59901 12.9965 2.03955 11.1225" stroke="#FFA500" stroke-linecap="round" stroke-linejoin="round"/>
<path d="M0.661145 8.18502C0.0440415 4.90334 2.05229 1.64992 5.33108 0.771373C7.84038 0.0990077 10.4007 1.00334 11.9602 2.87708" stroke="#FFA500" stroke-linecap="round" stroke-linejoin="round"/>
<path d="M11.9601 0.551758V3.03191H9.47998" stroke="#FFA500" stroke-linecap="round" stroke-linejoin="round"/>
<path d="M4.08958 7.33361C3.73865 7.27256 3.73865 6.76878 4.08958 6.70773C5.36094 6.48655 6.37213 5.51818 6.64808 4.25758L6.66923 4.16095C6.74516 3.81412 7.239 3.81196 7.31795 4.15811L7.34364 4.27072C7.6298 5.52538 8.64126 6.48556 9.90909 6.70613C10.2618 6.7675 10.2618 7.27384 9.90909 7.3352C8.64126 7.55577 7.6298 8.51596 7.34364 9.77061L7.31795 9.88322C7.239 10.2294 6.74516 10.2272 6.66923 9.88039L6.64808 9.78376C6.37213 8.52315 5.36094 7.55479 4.08958 7.33361Z" stroke="#FFA500" stroke-linecap="round" stroke-linejoin="round"/>
</svg>
