<svg width="14" height="14" viewBox="0 0 14 14" fill="none" xmlns="http://www.w3.org/2000/svg">
<g clip-path="url(#clip0_403_36)">
<path d="M2.03955 13.4488V10.9688H4.5197" stroke="white" stroke-linecap="round" stroke-linejoin="round"/>
<path d="M13.3389 5.81445C13.956 9.09613 11.9478 12.3495 8.66898 13.2281C6.15951 13.9005 3.59901 12.996 2.03955 11.122" stroke="white" stroke-linecap="round" stroke-linejoin="round"/>
<path d="M0.660901 8.18478C0.0437973 4.9031 2.05205 1.64968 5.33084 0.771129C7.84014 0.0987638 10.4005 1.0031 11.96 2.87684" stroke="white" stroke-linecap="round" stroke-linejoin="round"/>
<path d="M11.9601 0.551758V3.03191H9.47998" stroke="white" stroke-linecap="round" stroke-linejoin="round"/>
<path d="M4.08937 7.33336C3.73844 7.27231 3.73844 6.76853 4.08937 6.70748C5.36073 6.4863 6.37192 5.51793 6.64787 4.25733L6.66902 4.1607C6.74495 3.81387 7.23879 3.81171 7.31774 4.15786L7.34343 4.27047C7.62959 5.52513 8.64105 6.48531 9.90888 6.70588C10.2616 6.76725 10.2616 7.27359 9.90888 7.33495C8.64105 7.55552 7.62959 8.51571 7.34343 9.77036L7.31774 9.88297C7.23879 10.2292 6.74495 10.227 6.66902 9.88015L6.64787 9.78351C6.37192 8.5229 5.36073 7.55454 4.08937 7.33336Z" stroke="white" stroke-linecap="round" stroke-linejoin="round"/>
</g>
<defs>
<clipPath id="clip0_403_36">
<rect width="14" height="14" fill="white"/>
</clipPath>
</defs>
</svg>
