<svg width="81" height="5" viewBox="0 0 81 5" fill="none" xmlns="http://www.w3.org/2000/svg">
<path d="M0.797033 1.6817C0.792089 1.6652 0.7885 1.64754 0.786797 1.62876C0.781169 1.56669 0.797864 1.51092 0.824464 1.46661C0.871329 1.38855 0.947129 1.34748 0.994468 1.32621C1.09868 1.27939 1.23801 1.25426 1.36865 1.24323C1.50357 1.23184 1.65236 1.23363 1.78471 1.25307C1.8509 1.2628 1.91807 1.27767 1.97952 1.30017C2.03837 1.32173 2.10753 1.35586 2.16255 1.41304L2.1628 1.4133C2.47299 1.73673 3.12003 2.05938 4.03741 2.31592C4.94488 2.56969 6.08544 2.75023 7.34913 2.81119L0.797033 1.6817ZM0.797033 1.6817C0.802805 1.7138 0.815935 1.74479 0.836286 1.77202C1.05984 2.07114 1.42258 2.33267 1.87701 2.55879C2.33443 2.78639 2.90057 2.98586 3.54888 3.15285C4.84573 3.4869 6.4904 3.69584 8.2945 3.73215L8.29451 3.73215C10.04 3.76717 12.115 3.74846 13.9078 3.57291C14.8039 3.48517 15.6356 3.3577 16.3229 3.17596C16.4251 3.14895 16.5248 3.12057 16.6216 3.09069C16.9428 3.33841 17.3632 3.5622 17.8839 3.74308C18.8855 4.09106 20.2805 4.28888 22.1229 4.18794L22.1229 4.18794C25.7583 3.98838 28.7372 3.15088 31.156 2.2778C31.3002 2.52324 31.5669 2.72808 31.887 2.89955C32.748 3.36073 34.2407 3.70982 36.0435 3.90407L36.0664 3.69101L36.0435 3.90407C40.0802 4.33879 44.1841 3.53611 47.1488 2.73317C47.274 2.81376 47.4119 2.89 47.56 2.96203C47.986 3.16918 48.5166 3.35113 49.1214 3.50273C50.3313 3.80603 51.8579 3.99282 53.4818 4.00848L53.4819 4.00849C57.098 4.04234 60.0161 3.48327 62.4123 2.73494C62.4423 2.77272 62.4749 2.80908 62.51 2.84404C62.8055 3.13881 63.2938 3.35721 63.8887 3.52416C65.0876 3.86067 66.8496 4.02202 68.7871 4.06656C72.6675 4.15575 77.3275 3.77718 79.7798 3.33825C79.8555 3.32471 79.9237 3.30652 79.9821 3.2823C80.0375 3.25928 80.1003 3.2242 80.1474 3.16754C80.2011 3.10303 80.2312 3.01223 80.2045 2.91499C80.1815 2.83121 80.125 2.77571 80.0814 2.74296C79.9934 2.67682 79.8708 2.63748 79.7465 2.61668C79.6163 2.59489 79.4618 2.58973 79.2938 2.60803L79.317 2.82106L79.2938 2.60804C77.387 2.81623 73.3288 3.16159 69.8807 3.16007C68.1534 3.1593 66.5952 3.07132 65.5389 2.84122C65.0057 2.72507 64.631 2.57877 64.4233 2.4122C64.3229 2.33167 64.2735 2.25597 64.2541 2.18785C64.2354 2.12227 64.2375 2.03922 64.2865 1.92778C64.2865 1.92771 64.2866 1.92763 64.2866 1.92756L64.0905 1.84125M0.797033 1.6817L17.85 2.07133C17.8239 2.06021 17.7954 2.05417 17.7659 2.05417H17.6482C17.3421 1.92292 16.6464 1.92863 16.3212 2.05417H16.1795C16.1554 2.05417 16.1318 2.05823 16.1097 2.06588L16.0286 1.98808C15.9355 2.08509 15.7774 2.1833 15.547 2.27588C15.3194 2.36733 15.0361 2.44747 14.7073 2.51655C14.0496 2.6547 13.2304 2.74451 12.3537 2.79887C10.6015 2.90752 8.64524 2.87311 7.34922 2.81119L7.3389 3.02523M64.0905 1.84125C64.1715 1.65771 63.3639 1.54188 62.8847 1.62586L62.6877 1.59107L62.6423 1.46824C62.6422 1.46827 62.6421 1.46831 62.642 1.46834C60.7841 2.15437 58.7502 2.72759 55.9134 3.01398C54.3475 3.17189 52.6516 3.1095 51.263 2.88553C50.5685 2.77351 49.9572 2.62207 49.4802 2.44079C48.994 2.25599 48.682 2.05287 48.5438 1.8589L48.5433 1.85823C48.4995 1.79724 48.44 1.75687 48.3885 1.72975C48.335 1.70153 48.2752 1.67985 48.2148 1.66282C48.094 1.62875 47.9504 1.60761 47.8042 1.59726C47.5149 1.57678 47.1768 1.59604 46.9316 1.66776L46.9313 1.66784C44.9433 2.25227 42.9422 2.73367 40.2742 2.98611C38.3226 3.17069 36.1011 3.03496 34.599 2.68585C34.2245 2.59881 33.8993 2.49954 33.6366 2.39083C33.3708 2.28091 33.1828 2.16694 33.0701 2.05723C32.9605 1.95054 32.9419 1.86971 32.9526 1.8057C32.9658 1.72785 33.0331 1.6054 33.2402 1.44642L33.2407 1.44606C33.2991 1.401 33.3841 1.30746 33.3631 1.17045C33.345 1.05253 33.2574 0.9853 33.2111 0.955501C33.108 0.88911 32.9562 0.848007 32.8123 0.822894C32.52 0.771893 32.1114 0.763019 31.8351 0.863012L31.8347 0.863157C30.3923 1.38852 27.4495 2.36529 24.5843 2.85521C23.1508 3.10031 21.7482 3.22147 20.5675 3.10835C19.3809 2.99469 18.4604 2.64872 17.9364 2.00186C17.8813 1.93356 17.8065 1.88974 17.7401 1.86046C17.6709 1.82996 17.5928 1.80748 17.5132 1.79078C17.3537 1.75733 17.1664 1.74266 16.9835 1.74362C16.8005 1.74458 16.6128 1.76125 16.4522 1.7948C16.3719 1.81156 16.2939 1.83344 16.2247 1.86198C16.1583 1.88936 16.0849 1.92889 16.028 1.98863L16.1093 2.06601C16.0631 2.08204 16.0231 2.11365 15.9968 2.15656C15.9691 2.20179 15.9595 2.25494 15.9685 2.30576C14.5934 3.16188 9.78844 3.14226 7.3389 3.02523M64.0905 1.84125C64.0755 1.87532 64.0633 1.9087 64.0538 1.9414L64.0905 1.84125ZM7.3389 3.02523C4.78526 2.90206 2.71158 2.29509 2.00814 1.56162L7.3389 3.02523ZM17.9645 2.34898C17.9851 2.29829 17.9859 2.2405 17.9645 2.18776C17.9428 2.13438 17.9011 2.0932 17.8502 2.07142L17.9645 2.34898ZM17.9645 2.34898C20.3739 4.67715 27.9833 2.43265 31.2757 1.28926C31.3611 1.18561 31.4674 1.08613 31.5904 0.991307C31.6353 0.95672 31.692 0.941318 31.7483 0.948471C31.7893 0.953695 31.8304 0.958929 31.8715 0.964171C31.8716 0.964181 31.8717 0.964191 31.8717 0.964201C31.9824 0.978307 32.0932 0.992468 32.204 1.00665C32.5167 0.980936 32.8904 1.0324 33.0601 1.11605C33.1568 1.12846 33.233 1.20463 33.2454 1.30138C33.2509 1.34489 33.243 1.38763 33.2243 1.4248C33.2242 1.42497 33.2241 1.42514 33.224 1.42532C33.2011 1.47061 33.1623 1.50757 33.1126 1.52749C33.001 1.57222 32.888 1.61734 32.7734 1.66275C32.279 2.82009 36.7336 3.53621 40.2944 3.19945C42.8072 2.96168 44.733 2.52185 46.606 1.9854C46.6498 1.92866 46.7198 1.89701 46.7926 1.90283L46.8702 1.90902C46.9107 1.8972 46.9512 1.88533 46.9917 1.87343C47.4167 1.74915 48.2337 1.79465 48.3693 1.98328C49.0764 2.9753 52.7658 3.54676 55.935 3.22719L17.9645 2.34898ZM22.1112 3.97397C19.4573 4.11938 17.7724 3.63613 16.8712 3.00799L22.1112 3.97397ZM22.1112 3.97397C25.7126 3.77628 28.6655 2.94805 31.0704 2.08086L22.1112 3.97397ZM8.29881 3.51791C10.9813 3.57173 14.4303 3.49796 16.4256 2.92543L8.29881 3.51791ZM47.4344 2.65486C48.6062 3.31324 50.917 3.76944 53.4839 3.79421L47.4344 2.65486Z" fill="#FFD324" stroke="#FFD324" stroke-width="0.428571" stroke-linejoin="round"/>
</svg>
