<svg width="161" height="66" viewBox="0 0 161 66" fill="none" xmlns="http://www.w3.org/2000/svg">
<path d="M81.6189 24.075C80.8023 23.625 80.3189 23.15 80.1689 22.65C80.0189 22.1333 80.1773 21.5417 80.6439 20.875C81.1773 20.125 81.6856 19.375 82.1689 18.625C82.6523 17.8583 83.1106 17.0917 83.5439 16.325C83.9939 15.5417 84.4189 14.7583 84.8189 13.975C85.2356 13.175 85.6273 12.375 85.9939 11.575L89.4689 14.425C89.0023 15.5083 88.5106 16.5583 87.9939 17.575C87.4939 18.575 86.9606 19.5417 86.3939 20.475C85.8439 21.4083 85.2689 22.3167 84.6689 23.2C84.4689 23.4833 84.2439 23.7583 83.9939 24.025C83.7606 24.2917 83.4523 24.45 83.0689 24.5C82.7023 24.55 82.2189 24.4083 81.6189 24.075ZM89.3189 14.775L86.3439 13.95H79.8939C79.0106 13.95 78.3939 13.7917 78.0439 13.475C77.6939 13.1417 77.4939 12.5417 77.4439 11.675L77.2689 7.95C77.2523 7.56667 77.2856 7.2 77.3689 6.85C77.4523 6.5 77.6606 6.21667 77.9939 6C78.3439 5.76667 78.8939 5.65 79.6439 5.65C80.4106 5.65 80.9356 5.76667 81.2189 6C81.5189 6.23333 81.6939 6.525 81.7439 6.875C81.7939 7.225 81.8273 7.58333 81.8439 7.95L81.9189 9.35H86.5189C87.4356 9.35 88.1689 9.60833 88.7189 10.125C89.2856 10.625 89.6273 11.2917 89.7439 12.125C89.8773 12.9417 89.7356 13.825 89.3189 14.775ZM93.2043 25.125C92.8376 25.225 92.4876 25.275 92.1543 25.275C91.821 25.2917 91.5126 25.1667 91.2293 24.9C90.9626 24.6333 90.7293 24.1417 90.5293 23.425C90.346 22.7583 90.3293 22.2417 90.4793 21.875C90.646 21.5083 90.9043 21.2333 91.2543 21.05C91.6043 20.8667 91.971 20.725 92.3543 20.625L96.9793 19.4C97.6793 19.1667 98.1793 18.9083 98.4793 18.625C98.796 18.325 98.9876 17.9667 99.0543 17.55C99.1376 17.1167 99.1793 16.5917 99.1793 15.975V11.525C99.1793 11.1583 99.2126 10.8167 99.2793 10.5C99.346 10.1667 99.5376 9.89167 99.8543 9.675C100.171 9.45833 100.704 9.35 101.454 9.35C102.204 9.35 102.746 9.46667 103.079 9.7C103.413 9.91667 103.613 10.2083 103.679 10.575C103.763 10.925 103.804 11.2917 103.804 11.675L103.779 14.95C103.779 16.2167 103.663 17.325 103.429 18.275C103.213 19.225 102.863 20.05 102.379 20.75C101.913 21.4333 101.296 22.025 100.529 22.525C99.7626 23.025 98.821 23.4583 97.7043 23.825L93.2043 25.125ZM94.8543 20.675C94.421 20.4917 94.0293 20.2583 93.6793 19.975C93.346 19.675 93.046 19.1417 92.7793 18.375L90.8793 12.3C90.7626 11.9333 90.6876 11.575 90.6543 11.225C90.621 10.875 90.721 10.55 90.9543 10.25C91.2043 9.93333 91.696 9.675 92.4293 9.475C93.1626 9.275 93.7126 9.26667 94.0793 9.45C94.4626 9.63333 94.7376 9.90833 94.9043 10.275C95.0876 10.625 95.2293 10.975 95.3293 11.325L97.8543 19.8L94.8543 20.675ZM113.466 24.225C112.716 24.225 112.183 24.1167 111.866 23.9C111.55 23.6667 111.358 23.375 111.291 23.025C111.225 22.6583 111.191 22.2917 111.191 21.925V11.625C111.191 11.2583 111.225 10.9 111.291 10.55C111.358 10.2 111.55 9.91667 111.866 9.7C112.183 9.46667 112.725 9.35 113.491 9.35C114.258 9.35 114.791 9.46667 115.091 9.7C115.408 9.93333 115.6 10.225 115.666 10.575C115.733 10.925 115.766 11.2833 115.766 11.65V21.95C115.766 22.3167 115.733 22.675 115.666 23.025C115.6 23.375 115.408 23.6667 115.091 23.9C114.775 24.1167 114.233 24.225 113.466 24.225ZM126.842 24.225C126.092 24.225 125.559 24.125 125.242 23.925C124.926 23.7083 124.726 23.4333 124.642 23.1C124.576 22.7667 124.542 22.425 124.542 22.075V17.875C124.542 17.1917 124.476 16.6083 124.342 16.125C124.226 15.625 124.034 15.2167 123.767 14.9C123.517 14.5667 123.192 14.325 122.792 14.175C122.409 14.025 121.942 13.95 121.392 13.95H119.242C118.859 13.95 118.484 13.9167 118.117 13.85C117.767 13.7833 117.476 13.5917 117.242 13.275C117.026 12.9417 116.917 12.4 116.917 11.65C116.917 10.8833 117.026 10.3417 117.242 10.025C117.476 9.70833 117.767 9.51667 118.117 9.45C118.467 9.38333 118.834 9.35 119.217 9.35H121.342C122.676 9.35 123.826 9.525 124.792 9.875C125.776 10.2083 126.584 10.725 127.217 11.425C127.851 12.125 128.326 13.0083 128.642 14.075C128.959 15.125 129.117 16.375 129.117 17.825V21.9C129.117 22.2833 129.084 22.6583 129.017 23.025C128.951 23.375 128.759 23.6667 128.442 23.9C128.142 24.1167 127.609 24.225 126.842 24.225ZM132.974 24.225C132.608 24.225 132.241 24.1917 131.874 24.125C131.524 24.0583 131.233 23.8667 130.999 23.55C130.783 23.2333 130.674 22.6917 130.674 21.925C130.674 21.1583 130.783 20.6167 130.999 20.3C131.233 19.9833 131.524 19.7917 131.874 19.725C132.241 19.6583 132.616 19.625 132.999 19.625H136.599C137.083 19.625 137.499 19.5167 137.849 19.3C138.199 19.0833 138.466 18.775 138.649 18.375C138.849 17.9583 138.949 17.4667 138.949 16.9V16.6C138.949 15.7667 138.758 15.1167 138.374 14.65C138.008 14.1667 137.483 13.925 136.799 13.925H135.474C135.208 13.925 134.991 13.9917 134.824 14.125C134.658 14.2417 134.566 14.3833 134.549 14.55C134.549 14.7167 134.649 14.8833 134.849 15.05C134.933 15.1167 135.016 15.1833 135.099 15.25C135.183 15.3 135.258 15.3583 135.324 15.425C135.641 15.6583 135.799 15.9333 135.799 16.25C135.799 16.5667 135.708 16.8833 135.524 17.2C135.358 17.5167 135.166 17.8 134.949 18.05C134.749 18.2833 134.599 18.4417 134.499 18.525C134.116 18.8417 133.699 18.975 133.249 18.925C132.816 18.875 132.391 18.6917 131.974 18.375C131.574 18.0417 131.233 17.6 130.949 17.05C130.666 16.5 130.491 15.8833 130.424 15.2C130.358 14.3833 130.449 13.625 130.699 12.925C130.949 12.2083 131.324 11.5833 131.824 11.05C132.341 10.5 132.958 10.075 133.674 9.775C134.391 9.475 135.174 9.325 136.024 9.325H136.724C138.141 9.325 139.358 9.61667 140.374 10.2C141.391 10.7833 142.174 11.6167 142.724 12.7C143.274 13.7667 143.549 15.0417 143.549 16.525V16.975C143.549 18.475 143.266 19.7667 142.699 20.85C142.133 21.9333 141.324 22.7667 140.274 23.35C139.224 23.9333 137.974 24.225 136.524 24.225H132.974ZM152.281 24.625C150.781 24.625 149.456 24.3083 148.306 23.675C147.173 23.025 146.289 22.125 145.656 20.975C145.023 19.8083 144.706 18.4583 144.706 16.925V11.825C144.706 11.1083 144.939 10.5167 145.406 10.05C145.873 9.58333 146.456 9.35 147.156 9.35H152.106C153.639 9.35 154.964 9.65833 156.081 10.275C157.214 10.8917 158.089 11.7667 158.706 12.9C159.339 14.0167 159.656 15.3333 159.656 16.85C159.656 18.4 159.348 19.7583 158.731 20.925C158.114 22.0917 157.248 23 156.131 23.65C155.031 24.3 153.748 24.625 152.281 24.625ZM152.181 20C153.064 20 153.764 19.7167 154.281 19.15C154.798 18.5833 155.056 17.8167 155.056 16.85C155.056 16.2333 154.939 15.7083 154.706 15.275C154.489 14.8417 154.164 14.5167 153.731 14.3C153.314 14.0667 152.806 13.95 152.206 13.95H149.306V16.85C149.306 17.8167 149.564 18.5833 150.081 19.15C150.614 19.7167 151.314 20 152.181 20ZM16.9795 54.225C16.2128 54.225 15.6712 54.1167 15.3545 53.9C15.0378 53.6667 14.8462 53.375 14.7795 53.025C14.7128 52.675 14.6795 52.3083 14.6795 51.925V41.825C14.6795 40.9583 14.8795 40.3333 15.2795 39.95C15.6962 39.55 16.3462 39.35 17.2295 39.35H21.2045C22.7045 39.35 23.9962 39.675 25.0795 40.325C26.1795 40.9583 27.0295 41.8583 27.6295 43.025C28.2295 44.175 28.5295 45.5417 28.5295 47.125V51.9C28.5295 52.2833 28.4962 52.6583 28.4295 53.025C28.3628 53.375 28.1712 53.6667 27.8545 53.9C27.5545 54.1167 27.0212 54.225 26.2545 54.225C25.5045 54.225 24.9712 54.125 24.6545 53.925C24.3378 53.7083 24.1378 53.4333 24.0545 53.1C23.9878 52.7667 23.9545 52.425 23.9545 52.075V47.2C23.9545 46.4333 23.8628 45.8167 23.6795 45.35C23.5128 44.8667 23.2295 44.5167 22.8295 44.3C22.4462 44.0667 21.9295 43.95 21.2795 43.95H19.2795V51.9C19.2795 52.3 19.2462 52.675 19.1795 53.025C19.1128 53.375 18.9212 53.6667 18.6045 53.9C18.2878 54.1167 17.7462 54.225 16.9795 54.225ZM16.7545 54.225L16.7795 49.625H26.4545L26.4795 54.225H16.7545ZM35.1441 54.525C34.0775 54.525 33.1858 54.3917 32.4691 54.125C31.7691 53.875 31.1941 53.625 30.7441 53.375C30.3275 53.1417 29.9941 52.8667 29.7441 52.55C29.4941 52.2167 29.3525 51.8667 29.3191 51.5C29.3025 51.3167 29.3441 51.0833 29.4441 50.8C29.5441 50.5167 29.6775 50.2167 29.8441 49.9C30.0941 49.4667 30.3525 49.15 30.6191 48.95C30.8858 48.75 31.2025 48.65 31.5691 48.65C31.8025 48.65 32.0275 48.725 32.2441 48.875C32.4608 49.0083 32.6525 49.1417 32.8191 49.275C33.1525 49.4917 33.4941 49.6583 33.8441 49.775C34.2108 49.8917 34.5775 49.95 34.9441 49.95C35.5608 49.95 36.0858 49.8333 36.5191 49.6C36.9525 49.35 37.2775 49 37.4941 48.55C37.7275 48.1 37.8441 47.55 37.8441 46.9C37.8441 46.0167 37.5941 45.3083 37.0941 44.775C36.6108 44.225 35.9608 43.95 35.1441 43.95H32.2691C31.8858 43.95 31.5275 43.9167 31.1941 43.85C30.8775 43.7833 30.6275 43.5917 30.4441 43.275C30.2608 42.9417 30.1691 42.4 30.1691 41.65C30.1691 40.8833 30.2775 40.3417 30.4941 40.025C30.7275 39.7083 31.0191 39.5167 31.3691 39.45C31.7358 39.3833 32.1108 39.35 32.4941 39.35H35.5441C36.8441 39.35 38.0108 39.6833 39.0441 40.35C40.0775 41 40.8941 41.9 41.4941 43.05C42.0941 44.1833 42.3941 45.4667 42.3941 46.9C42.3941 48.1667 42.1775 49.2833 41.7441 50.25C41.3108 51.2 40.7358 51.9917 40.0191 52.625C39.3191 53.2583 38.5358 53.7333 37.6691 54.05C36.8191 54.3667 35.9775 54.525 35.1441 54.525ZM47.5369 54.075C46.7202 53.625 46.2369 53.15 46.0869 52.65C45.9369 52.1333 46.0952 51.5417 46.5619 50.875C47.0952 50.125 47.6036 49.375 48.0869 48.625C48.5702 47.8583 49.0286 47.0917 49.4619 46.325C49.9119 45.5417 50.3369 44.7583 50.7369 43.975C51.1536 43.175 51.5452 42.375 51.9119 41.575L55.3869 44.425C54.9202 45.5083 54.4286 46.5583 53.9119 47.575C53.4119 48.575 52.8786 49.5417 52.3119 50.475C51.7619 51.4083 51.1869 52.3167 50.5869 53.2C50.3869 53.4833 50.1619 53.7583 49.9119 54.025C49.6786 54.2917 49.3702 54.45 48.9869 54.5C48.6202 54.55 48.1369 54.4083 47.5369 54.075ZM55.2369 44.775L52.2619 43.95H45.8119C44.9286 43.95 44.3119 43.7917 43.9619 43.475C43.6119 43.1417 43.4119 42.5417 43.3619 41.675L43.1869 37.95C43.1702 37.5667 43.2036 37.2 43.2869 36.85C43.3702 36.5 43.5786 36.2167 43.9119 36C44.2619 35.7667 44.8119 35.65 45.5619 35.65C46.3286 35.65 46.8536 35.7667 47.1369 36C47.4369 36.2333 47.6119 36.525 47.6619 36.875C47.7119 37.225 47.7452 37.5833 47.7619 37.95L47.8369 39.35H52.4369C53.3536 39.35 54.0869 39.6083 54.6369 40.125C55.2036 40.625 55.5452 41.2917 55.6619 42.125C55.7952 42.9417 55.6536 43.825 55.2369 44.775ZM64.6973 54.5C63.3306 54.5 62.1306 54.25 61.0973 53.75C60.0806 53.2333 59.2306 52.5583 58.5473 51.725C57.8639 50.8917 57.3556 49.975 57.0223 48.975C56.6889 47.975 56.5223 46.9833 56.5223 46V41.65C56.5223 41.2667 56.5556 40.9 56.6223 40.55C56.6889 40.2 56.8806 39.9167 57.1973 39.7C57.5139 39.4667 58.0556 39.35 58.8223 39.35C59.5889 39.35 60.1306 39.4667 60.4473 39.7C60.7639 39.9167 60.9556 40.2 61.0223 40.55C61.0889 40.9 61.1223 41.275 61.1223 41.675V46C61.1223 46.85 61.2556 47.5667 61.5223 48.15C61.8056 48.7167 62.2139 49.15 62.7473 49.45C63.2973 49.75 63.9639 49.9 64.7473 49.9C65.7139 49.9 66.4639 49.7167 66.9973 49.35C67.5306 48.9833 67.9056 48.5 68.1223 47.9C68.3389 47.3 68.4473 46.6583 68.4473 45.975V41.525C68.4473 41.1583 68.4806 40.8167 68.5473 40.5C68.6306 40.1667 68.8306 39.8917 69.1473 39.675C69.4806 39.4583 70.0139 39.35 70.7473 39.35C71.5139 39.35 72.0556 39.4667 72.3723 39.7C72.6889 39.9333 72.8806 40.225 72.9473 40.575C73.0139 40.925 73.0473 41.2917 73.0473 41.675V46.05C73.0473 47.05 72.8723 48.05 72.5223 49.05C72.1889 50.0333 71.6723 50.9417 70.9723 51.775C70.2889 52.5917 69.4223 53.25 68.3723 53.75C67.3223 54.25 66.0973 54.5 64.6973 54.5ZM59.6223 49.775V46.8H60.8223C61.0723 46.8 61.2889 46.7167 61.4723 46.55C61.6556 46.3833 61.8139 46.1333 61.9473 45.8C62.0973 45.45 62.2056 45.025 62.2723 44.525C62.3556 44.0083 62.4056 43.4167 62.4223 42.75L62.4723 41.5C62.4889 41.1333 62.5306 40.7917 62.5973 40.475C62.6806 40.1417 62.8806 39.875 63.1973 39.675C63.5139 39.4583 64.0473 39.35 64.7973 39.35C65.5639 39.35 66.1056 39.4667 66.4223 39.7C66.7556 39.9167 66.9556 40.2083 67.0223 40.575C67.0889 40.925 67.1056 41.3 67.0723 41.7L66.9973 42.85C66.9139 43.9667 66.7639 44.9583 66.5473 45.825C66.3473 46.6917 66.0389 47.4167 65.6223 48C65.2056 48.5833 64.6473 49.025 63.9473 49.325C63.2473 49.625 62.3723 49.775 61.3223 49.775H59.6223ZM91.4068 54.225C90.6568 54.225 90.1235 54.125 89.8068 53.925C89.4902 53.7083 89.2902 53.4333 89.2068 53.1C89.1402 52.7667 89.1068 52.425 89.1068 52.075V47.875C89.1068 46.9583 88.9985 46.2167 88.7818 45.65C88.5652 45.0667 88.2235 44.6417 87.7568 44.375C87.3068 44.0917 86.7152 43.95 85.9818 43.95H82.4068C82.0235 43.95 81.6485 43.9167 81.2818 43.85C80.9318 43.7833 80.6402 43.5917 80.4068 43.275C80.1902 42.9417 80.0818 42.4 80.0818 41.65C80.0818 40.8833 80.1902 40.3417 80.4068 40.025C80.6402 39.7083 80.9318 39.5167 81.2818 39.45C81.6485 39.3833 82.0152 39.35 82.3818 39.35H85.9068C87.6735 39.35 89.1318 39.6583 90.2818 40.275C91.4318 40.875 92.2818 41.8 92.8318 43.05C93.3985 44.3 93.6818 45.8917 93.6818 47.825V51.9C93.6818 52.2833 93.6485 52.6583 93.5818 53.025C93.5152 53.375 93.3235 53.6667 93.0068 53.9C92.7068 54.1167 92.1735 54.225 91.4068 54.225ZM82.6068 54.225C81.8568 54.225 81.3235 54.1167 81.0068 53.9C80.6902 53.6667 80.4985 53.375 80.4318 53.025C80.3652 52.6583 80.3318 52.2917 80.3318 51.925V48.2C80.3318 47.8333 80.3652 47.475 80.4318 47.125C80.4985 46.775 80.6902 46.4917 81.0068 46.275C81.3235 46.0417 81.8652 45.925 82.6318 45.925C83.3985 45.925 83.9318 46.0417 84.2318 46.275C84.5485 46.5083 84.7402 46.8 84.8068 47.15C84.8735 47.5 84.9068 47.8583 84.9068 48.225V51.95C84.9068 52.3167 84.8735 52.675 84.8068 53.025C84.7402 53.375 84.5485 53.6667 84.2318 53.9C83.9152 54.1167 83.3735 54.225 82.6068 54.225ZM104.827 54.225L102.277 51.325L95.4523 42.65C95.0023 42.05 94.8607 41.5167 95.0273 41.05C95.2107 40.5833 95.6107 40.1417 96.2273 39.725C96.8607 39.275 97.369 39.0583 97.7523 39.075C98.1357 39.075 98.4523 39.2 98.7023 39.45C98.969 39.6833 99.2107 39.9583 99.4273 40.275L105.877 48.75C106.061 48.9667 106.219 49.1667 106.352 49.35C106.486 49.5333 106.619 49.7417 106.752 49.975C107.002 50.3917 107.127 50.8583 107.127 51.375C107.127 51.875 107.027 52.35 106.827 52.8C106.644 53.2333 106.377 53.5917 106.027 53.875C105.677 54.1417 105.277 54.2583 104.827 54.225ZM96.9523 54.225C96.569 54.225 96.194 54.1917 95.8273 54.125C95.4773 54.0583 95.1857 53.8667 94.9523 53.55C94.7357 53.2167 94.6273 52.675 94.6273 51.925C94.6273 51.1583 94.7357 50.6167 94.9523 50.3C95.1857 49.9833 95.4773 49.7917 95.8273 49.725C96.1773 49.6583 96.544 49.625 96.9273 49.625H104.902L105.177 54.225H96.9523ZM103.927 49.6L100.877 46.65L103.752 40.375C103.952 40.0583 104.161 39.775 104.377 39.525C104.611 39.275 104.919 39.1417 105.302 39.125C105.686 39.0917 106.211 39.2667 106.877 39.65C107.527 40.0167 107.927 40.3833 108.077 40.75C108.227 41.1 108.236 41.45 108.102 41.8C107.986 42.1333 107.836 42.4667 107.652 42.8L103.927 49.6ZM111.635 54.225C110.885 54.225 110.352 54.1167 110.035 53.9C109.718 53.6667 109.527 53.375 109.46 53.025C109.393 52.6583 109.36 52.2917 109.36 51.925V41.625C109.36 41.2583 109.393 40.9 109.46 40.55C109.527 40.2 109.718 39.9167 110.035 39.7C110.352 39.4667 110.893 39.35 111.66 39.35C112.427 39.35 112.96 39.4667 113.26 39.7C113.577 39.9333 113.768 40.225 113.835 40.575C113.902 40.925 113.935 41.2833 113.935 41.65V51.95C113.935 52.3167 113.902 52.675 113.835 53.025C113.768 53.375 113.577 53.6667 113.26 53.9C112.943 54.1167 112.402 54.225 111.635 54.225ZM125.236 54.225C124.503 54.225 123.97 54.125 123.636 53.925C123.32 53.7083 123.12 53.4333 123.036 53.1C122.97 52.7667 122.936 52.425 122.936 52.075V47.875C122.936 47.1917 122.87 46.6083 122.736 46.125C122.62 45.625 122.436 45.2167 122.186 44.9C121.936 44.5667 121.611 44.325 121.211 44.175C120.828 44.025 120.361 43.95 119.811 43.95H117.886C117.503 43.95 117.128 43.9167 116.761 43.85C116.411 43.7833 116.12 43.5917 115.886 43.275C115.67 42.9417 115.561 42.4 115.561 41.65C115.561 40.8833 115.67 40.3417 115.886 40.025C116.12 39.7083 116.411 39.5167 116.761 39.45C117.111 39.3833 117.478 39.35 117.861 39.35H119.736C121.07 39.35 122.22 39.525 123.186 39.875C124.17 40.2083 124.978 40.725 125.611 41.425C126.261 42.125 126.745 43.0083 127.061 44.075C127.378 45.125 127.536 46.375 127.536 47.825V51.9C127.536 52.2833 127.503 52.6583 127.436 53.025C127.37 53.375 127.178 53.6667 126.861 53.9C126.545 54.1167 126.003 54.225 125.236 54.225ZM117.636 54.225C117.253 54.225 116.878 54.1917 116.511 54.125C116.161 54.0583 115.87 53.8667 115.636 53.55C115.42 53.2167 115.311 52.675 115.311 51.925C115.311 51.1583 115.42 50.6167 115.636 50.3C115.87 49.9833 116.161 49.7917 116.511 49.725C116.878 49.6583 117.245 49.625 117.611 49.625H127.361C127.745 49.625 128.111 49.6583 128.461 49.725C128.811 49.7917 129.095 49.9833 129.311 50.3C129.545 50.6167 129.661 51.1583 129.661 51.925C129.661 52.675 129.545 53.2167 129.311 53.55C129.095 53.8667 128.811 54.0583 128.461 54.125C128.111 54.1917 127.736 54.225 127.336 54.225H117.636ZM138.867 54.275C137.983 53.9917 137.408 53.625 137.142 53.175C136.892 52.725 136.908 52.125 137.192 51.375C137.458 50.6917 137.717 50.025 137.967 49.375C138.217 48.725 138.45 48.075 138.667 47.425C138.9 46.775 139.117 46.125 139.317 45.475C139.533 44.8083 139.742 44.1417 139.942 43.475C140.158 42.8083 140.375 42.125 140.592 41.425L144.492 44.125C144.325 44.725 144.15 45.3167 143.967 45.9C143.8 46.4667 143.625 47.0417 143.442 47.625C143.275 48.1917 143.1 48.7583 142.917 49.325C142.733 49.875 142.542 50.4333 142.342 51C142.142 51.5667 141.925 52.1417 141.692 52.725C141.558 53.0583 141.392 53.3833 141.192 53.7C140.992 54.0167 140.708 54.2417 140.342 54.375C139.992 54.5083 139.5 54.475 138.867 54.275ZM133.217 58.875C132.467 58.875 131.933 58.7583 131.617 58.525C131.3 58.3083 131.108 58.0167 131.042 57.65C130.975 57.3 130.942 56.9417 130.942 56.575V48C130.942 47.6167 130.975 47.2583 131.042 46.925C131.108 46.575 131.3 46.2917 131.617 46.075C131.933 45.8417 132.475 45.725 133.242 45.725C134.008 45.725 134.542 45.8417 134.842 46.075C135.158 46.2917 135.35 46.575 135.417 46.925C135.483 47.275 135.517 47.6417 135.517 48.025V56.6C135.517 56.9667 135.483 57.325 135.417 57.675C135.35 58.025 135.158 58.3083 134.842 58.525C134.525 58.7583 133.983 58.875 133.217 58.875ZM144.317 44.725L140.342 43.925H139.442H133.042C132.658 43.925 132.283 43.8917 131.917 43.825C131.567 43.7583 131.275 43.5667 131.042 43.25C130.825 42.9167 130.717 42.375 130.717 41.625C130.717 40.8583 130.825 40.3167 131.042 40C131.275 39.6833 131.567 39.4917 131.917 39.425C132.283 39.3583 132.65 39.325 133.017 39.325L140.792 39.35C141.842 39.35 142.683 39.575 143.317 40.025C143.967 40.475 144.383 41.1083 144.567 41.925C144.75 42.725 144.667 43.6583 144.317 44.725ZM157.129 54.225C156.379 54.225 155.846 54.125 155.529 53.925C155.213 53.7083 155.013 53.4333 154.929 53.1C154.863 52.7667 154.829 52.425 154.829 52.075V47.875C154.829 46.9583 154.721 46.2167 154.504 45.65C154.288 45.0667 153.946 44.6417 153.479 44.375C153.029 44.0917 152.438 43.95 151.704 43.95H148.129C147.746 43.95 147.371 43.9167 147.004 43.85C146.654 43.7833 146.363 43.5917 146.129 43.275C145.913 42.9417 145.804 42.4 145.804 41.65C145.804 40.8833 145.913 40.3417 146.129 40.025C146.363 39.7083 146.654 39.5167 147.004 39.45C147.371 39.3833 147.738 39.35 148.104 39.35H151.629C153.396 39.35 154.854 39.6583 156.004 40.275C157.154 40.875 158.004 41.8 158.554 43.05C159.121 44.3 159.404 45.8917 159.404 47.825V51.9C159.404 52.2833 159.371 52.6583 159.304 53.025C159.238 53.375 159.046 53.6667 158.729 53.9C158.429 54.1167 157.896 54.225 157.129 54.225ZM148.329 54.225C147.579 54.225 147.046 54.1167 146.729 53.9C146.413 53.6667 146.221 53.375 146.154 53.025C146.088 52.6583 146.054 52.2917 146.054 51.925V48.2C146.054 47.8333 146.088 47.475 146.154 47.125C146.221 46.775 146.413 46.4917 146.729 46.275C147.046 46.0417 147.588 45.925 148.354 45.925C149.121 45.925 149.654 46.0417 149.954 46.275C150.271 46.5083 150.463 46.8 150.529 47.15C150.596 47.5 150.629 47.8583 150.629 48.225V51.95C150.629 52.3167 150.596 52.675 150.529 53.025C150.463 53.375 150.271 53.6667 149.954 53.9C149.638 54.1167 149.096 54.225 148.329 54.225Z" fill="#FAF6EE"/>
<path d="M80.797 62.6817C80.7921 62.6652 80.7885 62.6475 80.7868 62.6288C80.7812 62.5667 80.7979 62.5109 80.8245 62.4666C80.8713 62.3886 80.9471 62.3475 80.9945 62.3262C81.0987 62.2794 81.238 62.2543 81.3687 62.2432C81.5036 62.2318 81.6524 62.2336 81.7847 62.2531C81.8509 62.2628 81.9181 62.2777 81.9795 62.3002C82.0384 62.3217 82.1075 62.3559 82.1626 62.413L82.1628 62.4133C82.473 62.7367 83.12 63.0594 84.0374 63.3159C84.9449 63.5697 86.0854 63.7502 87.3491 63.8112L80.797 62.6817ZM80.797 62.6817C80.8028 62.7138 80.8159 62.7448 80.8363 62.772C81.0598 63.0711 81.4226 63.3327 81.877 63.5588C82.3344 63.7864 82.9006 63.9859 83.5489 64.1529C84.8457 64.4869 86.4904 64.6958 88.2945 64.7322L88.2945 64.7322C90.04 64.7672 92.115 64.7485 93.9078 64.5729C94.8039 64.4852 95.6356 64.3577 96.3229 64.176C96.4251 64.149 96.5248 64.1206 96.6216 64.0907C96.9428 64.3384 97.3632 64.5622 97.8839 64.7431C98.8855 65.0911 100.28 65.2889 102.123 65.1879L102.123 65.1879C105.758 64.9884 108.737 64.1509 111.156 63.2778C111.3 63.5232 111.567 63.7281 111.887 63.8995C112.748 64.3607 114.241 64.7098 116.043 64.9041L116.066 64.691L116.043 64.9041C120.08 65.3388 124.184 64.5361 127.149 63.7332C127.274 63.8138 127.412 63.89 127.56 63.962C127.986 64.1692 128.517 64.3511 129.121 64.5027C130.331 64.806 131.858 64.9928 133.482 65.0085L133.482 65.0085C137.098 65.0423 140.016 64.4833 142.412 63.7349C142.442 63.7727 142.475 63.8091 142.51 63.844C142.806 64.1388 143.294 64.3572 143.889 64.5242C145.088 64.8607 146.85 65.022 148.787 65.0666C152.667 65.1558 157.328 64.7772 159.78 64.3383C159.856 64.3247 159.924 64.3065 159.982 64.2823C160.038 64.2593 160.1 64.2242 160.147 64.1675C160.201 64.103 160.231 64.0122 160.204 63.915C160.181 63.8312 160.125 63.7757 160.081 63.743C159.993 63.6768 159.871 63.6375 159.746 63.6167C159.616 63.5949 159.462 63.5897 159.294 63.608L159.317 63.8211L159.294 63.608C157.387 63.8162 153.329 64.1616 149.881 64.1601C148.153 64.1593 146.595 64.0713 145.539 63.8412C145.006 63.7251 144.631 63.5788 144.423 63.4122C144.323 63.3317 144.274 63.256 144.254 63.1878C144.235 63.1223 144.238 63.0392 144.287 62.9278C144.287 62.9277 144.287 62.9276 144.287 62.9276L144.09 62.8413M80.797 62.6817L97.85 63.0713C97.8239 63.0602 97.7954 63.0542 97.7659 63.0542H97.6482C97.3421 62.9229 96.6464 62.9286 96.3212 63.0542H96.1795C96.1554 63.0542 96.1318 63.0582 96.1097 63.0659L96.0286 62.9881C95.9355 63.0851 95.7774 63.1833 95.547 63.2759C95.3194 63.3673 95.0361 63.4475 94.7073 63.5165C94.0496 63.6547 93.2304 63.7445 92.3537 63.7989C90.6015 63.9075 88.6452 63.8731 87.3492 63.8112L87.3389 64.0252M144.09 62.8413C144.171 62.6577 143.364 62.5419 142.885 62.6259L142.688 62.5911L142.642 62.4682C142.642 62.4683 142.642 62.4683 142.642 62.4683C140.784 63.1544 138.75 63.7276 135.913 64.014C134.348 64.1719 132.652 64.1095 131.263 63.8855C130.569 63.7735 129.957 63.6221 129.48 63.4408C128.994 63.256 128.682 63.0529 128.544 62.8589L128.543 62.8582C128.499 62.7972 128.44 62.7569 128.389 62.7297C128.335 62.7015 128.275 62.6798 128.215 62.6628C128.094 62.6288 127.95 62.6076 127.804 62.5973C127.515 62.5768 127.177 62.596 126.932 62.6678L126.931 62.6678C124.943 63.2523 122.942 63.7337 120.274 63.9861C118.323 64.1707 116.101 64.035 114.599 63.6859C114.225 63.5988 113.899 63.4995 113.637 63.3908C113.371 63.2809 113.183 63.1669 113.07 63.0572C112.961 62.9505 112.942 62.8697 112.953 62.8057C112.966 62.7279 113.033 62.6054 113.24 62.4464L113.241 62.4461C113.299 62.401 113.384 62.3075 113.363 62.1705C113.345 62.0525 113.257 61.9853 113.211 61.9555C113.108 61.8891 112.956 61.848 112.812 61.8229C112.52 61.7719 112.111 61.763 111.835 61.863L111.835 61.8632C110.392 62.3885 107.45 63.3653 104.584 63.8552C103.151 64.1003 101.748 64.2215 100.567 64.1084C99.3809 63.9947 98.4604 63.6487 97.9364 63.0019C97.8813 62.9336 97.8065 62.8897 97.7401 62.8605C97.6709 62.83 97.5928 62.8075 97.5132 62.7908C97.3537 62.7573 97.1664 62.7427 96.9835 62.7436C96.8005 62.7446 96.6128 62.7613 96.4522 62.7948C96.3719 62.8116 96.2939 62.8334 96.2247 62.862C96.1583 62.8894 96.0849 62.9289 96.028 62.9886L96.1093 63.066C96.0631 63.082 96.0231 63.1137 95.9968 63.1566C95.9691 63.2018 95.9595 63.2549 95.9685 63.3058C94.5934 64.1619 89.7884 64.1423 87.3389 64.0252M144.09 62.8413C144.075 62.8753 144.063 62.9087 144.054 62.9414L144.09 62.8413ZM87.3389 64.0252C84.7853 63.9021 82.7116 63.2951 82.0081 62.5616L87.3389 64.0252ZM97.9645 63.349C97.9851 63.2983 97.9859 63.2405 97.9645 63.1878C97.9428 63.1344 97.9011 63.0932 97.8502 63.0714L97.9645 63.349ZM97.9645 63.349C100.374 65.6772 107.983 63.4326 111.276 62.2893C111.361 62.1856 111.467 62.0861 111.59 61.9913C111.635 61.9567 111.692 61.9413 111.748 61.9485C111.789 61.9537 111.83 61.9589 111.872 61.9642C111.872 61.9642 111.872 61.9642 111.872 61.9642C111.982 61.9783 112.093 61.9925 112.204 62.0066C112.517 61.9809 112.89 62.0324 113.06 62.1161C113.157 62.1285 113.233 62.2046 113.245 62.3014C113.251 62.3449 113.243 62.3876 113.224 62.4248C113.224 62.425 113.224 62.4251 113.224 62.4253C113.201 62.4706 113.162 62.5076 113.113 62.5275C113.001 62.5722 112.888 62.6173 112.773 62.6628C112.279 63.8201 116.734 64.5362 120.294 64.1994C122.807 63.9617 124.733 63.5219 126.606 62.9854C126.65 62.9287 126.72 62.897 126.793 62.9028L126.87 62.909C126.911 62.8972 126.951 62.8853 126.992 62.8734C127.417 62.7491 128.234 62.7946 128.369 62.9833C129.076 63.9753 132.766 64.5468 135.935 64.2272L97.9645 63.349ZM102.111 64.974C99.4573 65.1194 97.7724 64.6361 96.8712 64.008L102.111 64.974ZM102.111 64.974C105.713 64.7763 108.666 63.948 111.07 63.0809L102.111 64.974ZM88.2988 64.5179C90.9813 64.5717 94.4303 64.498 96.4256 63.9254L88.2988 64.5179ZM127.434 63.6549C128.606 64.3132 130.917 64.7694 133.484 64.7942L127.434 63.6549Z" fill="#FFD324" stroke="#FFD324" stroke-width="0.428571" stroke-linejoin="round"/>
</svg>
