<svg width="251" height="95" viewBox="0 0 251 95" fill="none" xmlns="http://www.w3.org/2000/svg">
<mask id="path-1-outside-1_102_38" maskUnits="userSpaceOnUse" x="63.0979" y="43" width="57" height="39" fill="black">
<rect fill="white" x="63.0979" y="43" width="57" height="39"/>
<path d="M72.669 66.8888C72.2642 66.8888 71.8449 66.8454 71.4111 66.7587C70.9774 66.643 70.6159 66.3828 70.3267 65.9779C70.0376 65.5442 69.893 64.8357 69.893 63.8525C69.893 62.8694 70.0376 62.1753 70.3267 61.7705C70.6448 61.3657 71.0207 61.1199 71.4545 61.0331C71.8882 60.9175 72.3075 60.8596 72.7124 60.8596H82.8622C83.296 60.8596 83.7297 60.9175 84.1635 61.0331C84.5972 61.1199 84.9587 61.3801 85.2479 61.8139C85.537 62.2187 85.6816 62.8983 85.6816 63.8525C85.6816 64.8357 85.537 65.5442 85.2479 65.9779C84.9876 66.3828 84.6406 66.643 84.2068 66.7587C83.7731 66.8454 83.3249 66.8888 82.8622 66.8888H72.669ZM106.855 75.3904C105.842 75.3904 105.091 75.2458 104.599 74.9566C104.136 74.6675 103.847 74.2915 103.732 73.8289C103.616 73.3662 103.558 72.8746 103.558 72.3541V63.9393C103.558 62.638 103.428 61.5103 103.168 60.556C102.907 59.5728 102.517 58.7632 101.997 58.127C101.505 57.4908 100.854 57.0281 100.045 56.739C99.2639 56.4209 98.3385 56.2618 97.2686 56.2618H93.4082C92.8588 56.2618 92.3238 56.204 91.8033 56.0883C91.2828 55.9727 90.8635 55.6835 90.5454 55.2208C90.2273 54.7582 90.0683 54.0063 90.0683 52.9653C90.0683 51.8954 90.2273 51.1291 90.5454 50.6664C90.8635 50.2037 91.2683 49.9146 91.7599 49.7989C92.2804 49.6832 92.8154 49.6254 93.3648 49.6254H97.1385C99.3362 49.6254 101.245 49.929 102.864 50.5363C104.512 51.1146 105.871 51.9966 106.941 53.1822C108.011 54.3389 108.806 55.8136 109.327 57.6065C109.876 59.3704 110.151 61.4524 110.151 63.8525V72.0505C110.151 72.6288 110.093 73.1782 109.978 73.6987C109.891 74.1903 109.616 74.5952 109.153 74.9132C108.691 75.2313 107.924 75.3904 106.855 75.3904ZM92.9744 75.3904C92.425 75.3904 91.89 75.3325 91.3695 75.2169C90.849 75.1301 90.4297 74.8554 90.1117 74.3927C89.7936 73.9012 89.6345 73.1349 89.6345 72.0939C89.6345 71.0239 89.7936 70.2721 90.1117 69.8383C90.4297 69.3757 90.849 69.0865 91.3695 68.9708C91.89 68.8552 92.4106 68.7973 92.9311 68.7973H110.498C111.076 68.7973 111.611 68.8552 112.103 68.9708C112.595 69.0865 112.999 69.3757 113.317 69.8383C113.636 70.2721 113.795 71.0239 113.795 72.0939C113.795 73.1349 113.636 73.9012 113.317 74.3927C112.999 74.8554 112.595 75.1301 112.103 75.2169C111.611 75.3325 111.062 75.3904 110.455 75.3904H92.9744Z"/>
</mask>
<path d="M72.669 66.8888C72.2642 66.8888 71.8449 66.8454 71.4111 66.7587C70.9774 66.643 70.6159 66.3828 70.3267 65.9779C70.0376 65.5442 69.893 64.8357 69.893 63.8525C69.893 62.8694 70.0376 62.1753 70.3267 61.7705C70.6448 61.3657 71.0207 61.1199 71.4545 61.0331C71.8882 60.9175 72.3075 60.8596 72.7124 60.8596H82.8622C83.296 60.8596 83.7297 60.9175 84.1635 61.0331C84.5972 61.1199 84.9587 61.3801 85.2479 61.8139C85.537 62.2187 85.6816 62.8983 85.6816 63.8525C85.6816 64.8357 85.537 65.5442 85.2479 65.9779C84.9876 66.3828 84.6406 66.643 84.2068 66.7587C83.7731 66.8454 83.3249 66.8888 82.8622 66.8888H72.669ZM106.855 75.3904C105.842 75.3904 105.091 75.2458 104.599 74.9566C104.136 74.6675 103.847 74.2915 103.732 73.8289C103.616 73.3662 103.558 72.8746 103.558 72.3541V63.9393C103.558 62.638 103.428 61.5103 103.168 60.556C102.907 59.5728 102.517 58.7632 101.997 58.127C101.505 57.4908 100.854 57.0281 100.045 56.739C99.2639 56.4209 98.3385 56.2618 97.2686 56.2618H93.4082C92.8588 56.2618 92.3238 56.204 91.8033 56.0883C91.2828 55.9727 90.8635 55.6835 90.5454 55.2208C90.2273 54.7582 90.0683 54.0063 90.0683 52.9653C90.0683 51.8954 90.2273 51.1291 90.5454 50.6664C90.8635 50.2037 91.2683 49.9146 91.7599 49.7989C92.2804 49.6832 92.8154 49.6254 93.3648 49.6254H97.1385C99.3362 49.6254 101.245 49.929 102.864 50.5363C104.512 51.1146 105.871 51.9966 106.941 53.1822C108.011 54.3389 108.806 55.8136 109.327 57.6065C109.876 59.3704 110.151 61.4524 110.151 63.8525V72.0505C110.151 72.6288 110.093 73.1782 109.978 73.6987C109.891 74.1903 109.616 74.5952 109.153 74.9132C108.691 75.2313 107.924 75.3904 106.855 75.3904ZM92.9744 75.3904C92.425 75.3904 91.89 75.3325 91.3695 75.2169C90.849 75.1301 90.4297 74.8554 90.1117 74.3927C89.7936 73.9012 89.6345 73.1349 89.6345 72.0939C89.6345 71.0239 89.7936 70.2721 90.1117 69.8383C90.4297 69.3757 90.849 69.0865 91.3695 68.9708C91.89 68.8552 92.4106 68.7973 92.9311 68.7973H110.498C111.076 68.7973 111.611 68.8552 112.103 68.9708C112.595 69.0865 112.999 69.3757 113.317 69.8383C113.636 70.2721 113.795 71.0239 113.795 72.0939C113.795 73.1349 113.636 73.9012 113.317 74.3927C112.999 74.8554 112.595 75.1301 112.103 75.2169C111.611 75.3325 111.062 75.3904 110.455 75.3904H92.9744Z" fill="white"/>
<path d="M71.4111 66.7587L69.865 72.5566C69.9872 72.5892 70.1103 72.6179 70.2343 72.6427L71.4111 66.7587ZM70.3267 65.9779L65.334 69.3064C65.3697 69.3601 65.4064 69.4132 65.4439 69.4657L70.3267 65.9779ZM70.3267 61.7705L65.6084 58.0632C65.5519 58.1351 65.497 58.2083 65.4439 58.2828L70.3267 61.7705ZM71.4545 61.0331L72.6313 66.9172C72.7553 66.8924 72.8784 66.8637 73.0006 66.8311L71.4545 61.0331ZM84.1635 61.0331L82.6174 66.8311C82.7395 66.8637 82.8627 66.8924 82.9867 66.9172L84.1635 61.0331ZM85.2479 61.8139L80.2551 65.1424C80.2909 65.1961 80.3275 65.2492 80.365 65.3016L85.2479 61.8139ZM85.2479 65.9779L80.2551 62.6494C80.2366 62.6772 80.2183 62.705 80.2003 62.7331L85.2479 65.9779ZM84.2068 66.7587L85.3837 72.6427C85.5076 72.6179 85.6308 72.5892 85.753 72.5566L84.2068 66.7587ZM72.669 60.8883C72.6938 60.8883 72.6695 60.891 72.5879 60.8747L70.2343 72.6427C71.0202 72.7999 71.8345 72.8894 72.669 72.8894V60.8883ZM72.9572 60.9607C73.439 61.0892 73.9053 61.3079 74.3208 61.6071C74.7296 61.9014 75.0178 62.2217 75.2096 62.4902L65.4439 69.4657C66.4497 70.8739 67.9368 72.0424 69.865 72.5566L72.9572 60.9607ZM75.3195 62.6494C75.7371 63.2759 75.8538 63.7894 75.8808 63.9214C75.9119 64.0741 75.8935 64.0743 75.8935 63.8525H63.8924C63.8924 65.1282 64.0242 67.3418 65.334 69.3064L75.3195 62.6494ZM75.8935 63.8525C75.8935 63.6269 75.9126 63.6421 75.8758 63.8185C75.8451 63.9659 75.7088 64.5593 75.2096 65.2583L65.4439 58.2828C64.0008 60.3031 63.8924 62.6406 63.8924 63.8525H75.8935ZM75.0451 65.4778C74.8587 65.715 74.563 66.0224 74.131 66.3048C73.6882 66.5944 73.177 66.808 72.6313 66.9172L70.2777 55.1491C68.2168 55.5613 66.657 56.7286 65.6084 58.0632L75.0451 65.4778ZM73.0006 66.8311C72.9841 66.8355 72.8827 66.8602 72.7124 66.8602V54.8591C71.7324 54.8591 70.7924 54.9994 69.9084 55.2352L73.0006 66.8311ZM72.7124 66.8602H82.8622V54.8591H72.7124V66.8602ZM82.8622 66.8602C82.756 66.8602 82.6703 66.8452 82.6174 66.8311L85.7096 55.2352C84.7892 54.9897 83.836 54.8591 82.8622 54.8591V66.8602ZM82.9867 66.9172C82.3576 66.7913 81.7632 66.5298 81.2537 66.163C80.7603 65.8078 80.4429 65.4241 80.2551 65.1424L90.2406 58.4854C89.2383 56.9819 87.6108 55.6032 85.3403 55.1491L82.9867 66.9172ZM80.365 65.3016C79.8805 64.6233 79.7398 64.0443 79.704 63.8759C79.6634 63.6852 79.6811 63.6515 79.6811 63.8525H91.6822C91.6822 62.6227 91.5598 60.3269 90.1307 58.3261L80.365 65.3016ZM79.6811 63.8525C79.6811 64.0743 79.6626 64.0741 79.6938 63.9214C79.7207 63.7894 79.8374 63.2759 80.2551 62.6494L90.2406 69.3064C91.5503 67.3418 91.6822 65.1282 91.6822 63.8525H79.6811ZM80.2003 62.7331C80.4141 62.4005 80.7353 62.0189 81.1921 61.6763C81.6547 61.3294 82.1618 61.0938 82.6607 60.9607L85.753 72.5566C87.7409 72.0265 89.2903 70.7862 90.2954 69.2228L80.2003 62.7331ZM83.03 60.8747C83.0011 60.8804 82.9478 60.8883 82.8622 60.8883V72.8894C83.7019 72.8894 84.5451 72.8104 85.3837 72.6427L83.03 60.8747ZM82.8622 60.8883H72.669V72.8894H82.8622V60.8883ZM104.599 74.9566L101.419 80.0451C101.464 80.0736 101.51 80.1015 101.557 80.1287L104.599 74.9566ZM103.732 73.8289L109.553 72.3735L109.553 72.3735L103.732 73.8289ZM103.168 60.556L97.3669 62.0915C97.3707 62.106 97.3746 62.1204 97.3785 62.1349L103.168 60.556ZM101.997 58.127L97.2484 61.796C97.2824 61.8401 97.3171 61.8837 97.3523 61.9268L101.997 58.127ZM100.045 56.739L97.7806 62.296C97.8619 62.3291 97.9438 62.3604 98.0264 62.3899L100.045 56.739ZM90.5454 55.2208L85.6007 58.6203L90.5454 55.2208ZM90.5454 50.6664L85.6007 47.2669L85.6007 47.2669L90.5454 50.6664ZM91.7599 49.7989L90.4582 43.9412C90.434 43.9466 90.4097 43.9522 90.3856 43.9579L91.7599 49.7989ZM102.864 50.5363L100.757 56.1548C100.797 56.1698 100.837 56.1843 100.877 56.1984L102.864 50.5363ZM106.941 53.1822L102.487 57.2023C102.503 57.2206 102.52 57.2388 102.536 57.2568L106.941 53.1822ZM109.327 57.6065L103.564 59.2795C103.575 59.3167 103.586 59.3539 103.598 59.3909L109.327 57.6065ZM109.978 73.6987L104.12 72.397C104.101 72.4829 104.084 72.5693 104.068 72.6559L109.978 73.6987ZM109.153 74.9132L105.754 69.9685L109.153 74.9132ZM91.3695 75.2169L92.6712 69.3592C92.5667 69.336 92.4616 69.3156 92.356 69.298L91.3695 75.2169ZM90.1117 74.3927L85.0738 77.6526C85.1042 77.6995 85.1352 77.7461 85.1669 77.7922L90.1117 74.3927ZM90.1117 69.8383L94.9505 73.3868C94.9866 73.3377 95.0218 73.288 95.0564 73.2378L90.1117 69.8383ZM91.3695 68.9708L90.0678 63.1132L90.0678 63.1132L91.3695 68.9708ZM112.103 68.9708L113.477 63.1298L113.477 63.1298L112.103 68.9708ZM113.317 69.8383L108.373 73.2378C108.407 73.288 108.443 73.3377 108.479 73.3868L113.317 69.8383ZM113.317 74.3927L118.262 77.7922C118.294 77.7461 118.325 77.6995 118.355 77.6526L113.317 74.3927ZM112.103 75.2169L111.06 69.3076C110.949 69.3272 110.838 69.35 110.729 69.3758L112.103 75.2169ZM106.855 69.3898C106.615 69.3898 106.57 69.3712 106.665 69.3894C106.746 69.405 107.133 69.4855 107.641 69.7845L101.557 80.1287C103.437 81.2346 105.489 81.3909 106.855 81.3909V69.3898ZM107.779 69.8682C108.064 70.0463 108.44 70.3421 108.791 70.7992C109.152 71.2684 109.412 71.8096 109.553 72.3735L97.9101 75.2842C98.4574 77.4734 99.8435 79.0606 101.419 80.0451L107.779 69.8682ZM109.553 72.3735C109.559 72.3996 109.561 72.4133 109.561 72.4121C109.561 72.4105 109.559 72.392 109.559 72.3541H97.5575C97.5575 73.3209 97.6652 74.3044 97.9101 75.2842L109.553 72.3735ZM109.559 72.3541V63.9393H97.5575V72.3541H109.559ZM109.559 63.9393C109.559 62.262 109.393 60.5784 108.957 58.9772L97.3785 62.1349C97.4623 62.4421 97.5575 63.014 97.5575 63.9393H109.559ZM108.968 59.0205C108.54 57.4002 107.817 55.7648 106.641 54.3272L97.3523 61.9268C97.2171 61.7615 97.2753 61.7455 97.3669 62.0915L108.968 59.0205ZM106.745 54.458C105.502 52.85 103.875 51.7352 102.063 51.088L98.0264 62.3899C97.9519 62.3633 97.8194 62.3047 97.6624 62.193C97.5029 62.0796 97.3611 61.942 97.2484 61.796L106.745 54.458ZM102.309 51.1819C100.644 50.5037 98.9142 50.2613 97.2686 50.2613V62.2624C97.7628 62.2624 97.8837 62.338 97.7806 62.296L102.309 51.1819ZM97.2686 50.2613H93.4082V62.2624H97.2686V50.2613ZM93.4082 50.2613C93.2832 50.2613 93.1853 50.2485 93.105 50.2307L90.5016 61.946C91.4623 62.1595 92.4343 62.2624 93.4082 62.2624V50.2613ZM93.105 50.2307C93.5631 50.3325 94.0492 50.5305 94.5052 50.845C94.9564 51.1562 95.2771 51.5114 95.4901 51.8213L85.6007 58.6203C86.7284 60.2607 88.4154 61.4824 90.5016 61.946L93.105 50.2307ZM95.4901 51.8213C95.9111 52.4337 96.0307 52.9378 96.0582 53.0681C96.0893 53.2151 96.0688 53.2047 96.0688 52.9653H84.0677C84.0677 54.3291 84.2213 56.6139 85.6007 58.6203L95.4901 51.8213ZM96.0688 52.9653C96.0688 52.702 96.0906 52.6739 96.0629 52.8076C96.0397 52.9192 95.9238 53.4351 95.4901 54.0659L85.6007 47.2669C84.2087 49.2916 84.0677 51.6142 84.0677 52.9653H96.0688ZM95.4901 54.0659C95.3039 54.3368 95.0093 54.6754 94.5754 54.9854C94.1326 55.3016 93.6368 55.5217 93.1343 55.64L90.3856 43.9579C88.2755 44.4543 86.662 45.7232 85.6007 47.2669L95.4901 54.0659ZM93.0616 55.6566C93.1419 55.6387 93.2399 55.626 93.3648 55.626V43.6249C92.3909 43.6249 91.4189 43.7278 90.4582 43.9412L93.0616 55.6566ZM93.3648 55.626H97.1385V43.6249H93.3648V55.626ZM97.1385 55.626C98.8028 55.626 99.9662 55.8582 100.757 56.1548L104.971 44.9178C102.523 43.9999 99.8695 43.6249 97.1385 43.6249V55.626ZM100.877 56.1984C101.669 56.4764 102.151 56.8303 102.487 57.2023L111.396 49.162C109.592 47.1629 107.355 45.7529 104.851 44.8742L100.877 56.1984ZM102.536 57.2568C102.866 57.6138 103.256 58.2174 103.564 59.2795L115.09 55.9335C114.357 53.4099 113.156 51.0639 111.346 49.1076L102.536 57.2568ZM103.598 59.3909C103.923 60.4342 104.151 61.887 104.151 63.8525H116.152C116.152 61.0179 115.83 58.3066 115.056 55.822L103.598 59.3909ZM104.151 63.8525V72.0505H116.152V63.8525H104.151ZM104.151 72.0505C104.151 72.2276 104.133 72.3382 104.12 72.397L115.835 75.0004C116.054 74.0182 116.152 73.03 116.152 72.0505H104.151ZM104.068 72.6559C104.169 72.0858 104.394 71.5141 104.741 71.0017C105.08 70.502 105.46 70.1709 105.754 69.9685L112.553 79.858C114.16 78.7528 115.484 77.0217 115.887 74.7415L104.068 72.6559ZM105.754 69.9685C106.385 69.5349 106.901 69.4189 107.012 69.3957C107.146 69.368 107.118 69.3898 106.855 69.3898V81.3909C108.206 81.3909 110.528 81.2499 112.553 79.858L105.754 69.9685ZM92.9744 69.3898C92.8495 69.3898 92.7515 69.3771 92.6712 69.3592L90.0678 81.0745C91.0286 81.288 92.0005 81.3909 92.9744 81.3909V69.3898ZM92.356 69.298C92.8731 69.3841 93.4297 69.5836 93.9532 69.9265C94.4694 70.2648 94.8267 70.6592 95.0564 70.9933L85.1669 77.7922C86.3419 79.5013 88.1447 80.7627 90.3831 81.1358L92.356 69.298ZM95.1495 71.1329C95.5038 71.6804 95.6057 72.1171 95.6292 72.2299C95.655 72.3543 95.6351 72.33 95.6351 72.0939H83.634C83.634 73.5079 83.806 75.6933 85.0738 77.6526L95.1495 71.1329ZM95.6351 72.0939C95.6351 71.827 95.6575 71.8131 95.6245 71.9694C95.5977 72.0958 95.4629 72.6882 94.9505 73.3868L85.2728 66.2898C83.7522 68.3633 83.634 70.8039 83.634 72.0939H95.6351ZM95.0564 73.2378C94.8433 73.5477 94.5227 73.903 94.0714 74.2142C93.6154 74.5287 93.1293 74.7267 92.6712 74.8285L90.0678 63.1132C87.9817 63.5768 86.2947 64.7985 85.1669 66.4388L95.0564 73.2378ZM92.6712 74.8285C92.7748 74.8055 92.8589 74.7979 92.9311 74.7979V62.7968C91.9622 62.7968 91.0053 62.9048 90.0678 63.1132L92.6712 74.8285ZM92.9311 74.7979H110.498V62.7968H92.9311V74.7979ZM110.498 74.7979C110.679 74.7979 110.747 74.8162 110.729 74.8119L113.477 63.1298C112.476 62.8941 111.474 62.7968 110.498 62.7968V74.7979ZM110.729 74.8119C110.226 74.6936 109.73 74.4735 109.288 74.1573C108.854 73.8473 108.559 73.5087 108.373 73.2378L118.262 66.4388C117.201 64.8951 115.587 63.6263 113.477 63.1298L110.729 74.8119ZM108.479 73.3868C107.966 72.6882 107.831 72.0958 107.805 71.9694C107.772 71.8131 107.794 71.827 107.794 72.0939H119.795C119.795 70.8039 119.677 68.3633 118.156 66.2898L108.479 73.3868ZM107.794 72.0939C107.794 72.33 107.774 72.3543 107.8 72.2299C107.823 72.1171 107.925 71.6804 108.28 71.1329L118.355 77.6526C119.623 75.6933 119.795 73.5079 119.795 72.0939H107.794ZM108.373 70.9933C108.575 70.699 108.906 70.3196 109.406 69.9805C109.918 69.6328 110.49 69.4082 111.06 69.3076L113.146 81.1261C115.426 80.7237 117.157 79.3997 118.262 77.7922L108.373 70.9933ZM110.729 69.3758C110.767 69.3667 110.689 69.3898 110.455 69.3898V81.3909C111.435 81.3909 112.456 81.2983 113.477 81.0579L110.729 69.3758ZM110.455 69.3898H92.9744V81.3909H110.455V69.3898Z" fill="#333335" mask="url(#path-1-outside-1_102_38)"/>
<mask id="path-3-outside-2_102_38" maskUnits="userSpaceOnUse" x="6.77942" y="42.0588" width="54" height="45" fill="black">
<rect fill="white" x="6.77942" y="42.0588" width="54" height="45"/>
<path d="M43.5469 74.862C43.893 75.5831 44.0805 76.2032 44.1094 76.7224C44.1382 77.2128 43.9796 77.6599 43.6334 78.0637C43.3161 78.4387 42.7825 78.8137 42.0326 79.1886C40.8788 79.7367 39.9846 79.8953 39.35 79.6646C38.7155 79.4627 38.1241 78.7848 37.5761 77.631L29.0958 59.8917L20.6588 77.631C20.0819 78.756 19.4762 79.4194 18.8416 79.6213C18.2359 79.8521 17.3561 79.6934 16.2024 79.1454C15.4524 78.7992 14.9044 78.4387 14.5582 78.0637C14.2409 77.6599 14.0967 77.1984 14.1256 76.6792C14.1544 76.1311 14.3563 75.4965 14.7313 74.7754L26.1104 51.1086C26.3989 50.5317 26.8171 50.0702 27.3652 49.724C27.942 49.3779 28.5334 49.2048 29.1391 49.2048C29.5718 49.2048 29.9756 49.2914 30.3506 49.4644C30.7255 49.6086 31.0572 49.825 31.3457 50.1134C31.663 50.4019 31.9226 50.748 32.1245 51.1518L43.5469 74.862ZM21.827 72.3958L24.5096 66.8144H33.7254L36.4079 72.3958H21.827ZM50.2958 79.4482C49.2574 79.4482 48.5075 79.304 48.046 79.0156C47.5844 78.6983 47.296 78.28 47.1806 77.7608C47.0941 77.2416 47.0508 76.708 47.0508 76.16V52.4931C47.0508 51.9162 47.0941 51.3826 47.1806 50.8922C47.296 50.4019 47.5844 49.998 48.046 49.6808C48.5075 49.3635 49.2718 49.2048 50.3391 49.2048C51.4352 49.2048 52.1996 49.3635 52.6322 49.6808C53.0937 49.998 53.3678 50.4019 53.4543 50.8922C53.5697 51.3826 53.6274 51.9306 53.6274 52.5364V76.2032C53.6274 76.7513 53.5697 77.2849 53.4543 77.8041C53.3389 78.2945 53.0505 78.6983 52.589 79.0156C52.1563 79.304 51.3919 79.4482 50.2958 79.4482Z"/>
</mask>
<path d="M43.5469 74.862C43.893 75.5831 44.0805 76.2032 44.1094 76.7224C44.1382 77.2128 43.9796 77.6599 43.6334 78.0637C43.3161 78.4387 42.7825 78.8137 42.0326 79.1886C40.8788 79.7367 39.9846 79.8953 39.35 79.6646C38.7155 79.4627 38.1241 78.7848 37.5761 77.631L29.0958 59.8917L20.6588 77.631C20.0819 78.756 19.4762 79.4194 18.8416 79.6213C18.2359 79.8521 17.3561 79.6934 16.2024 79.1454C15.4524 78.7992 14.9044 78.4387 14.5582 78.0637C14.2409 77.6599 14.0967 77.1984 14.1256 76.6792C14.1544 76.1311 14.3563 75.4965 14.7313 74.7754L26.1104 51.1086C26.3989 50.5317 26.8171 50.0702 27.3652 49.724C27.942 49.3779 28.5334 49.2048 29.1391 49.2048C29.5718 49.2048 29.9756 49.2914 30.3506 49.4644C30.7255 49.6086 31.0572 49.825 31.3457 50.1134C31.663 50.4019 31.9226 50.748 32.1245 51.1518L43.5469 74.862ZM21.827 72.3958L24.5096 66.8144H33.7254L36.4079 72.3958H21.827ZM50.2958 79.4482C49.2574 79.4482 48.5075 79.304 48.046 79.0156C47.5844 78.6983 47.296 78.28 47.1806 77.7608C47.0941 77.2416 47.0508 76.708 47.0508 76.16V52.4931C47.0508 51.9162 47.0941 51.3826 47.1806 50.8922C47.296 50.4019 47.5844 49.998 48.046 49.6808C48.5075 49.3635 49.2718 49.2048 50.3391 49.2048C51.4352 49.2048 52.1996 49.3635 52.6322 49.6808C53.0937 49.998 53.3678 50.4019 53.4543 50.8922C53.5697 51.3826 53.6274 51.9306 53.6274 52.5364V76.2032C53.6274 76.7513 53.5697 77.2849 53.4543 77.8041C53.3389 78.2945 53.0505 78.6983 52.589 79.0156C52.1563 79.304 51.3919 79.4482 50.2958 79.4482Z" fill="#0B2A2C"/>
<path d="M43.5469 74.862L49.7569 71.8812L49.7526 71.8723L43.5469 74.862ZM44.1094 76.7224L37.2316 77.1045C37.2321 77.112 37.2325 77.1195 37.2329 77.1269L44.1094 76.7224ZM43.6334 78.0637L38.4034 73.5808C38.3939 73.5919 38.3844 73.6031 38.375 73.6142L43.6334 78.0637ZM42.0326 79.1886L44.9881 85.4107C45.0299 85.3908 45.0716 85.3705 45.1131 85.3498L42.0326 79.1886ZM39.35 79.6646L41.7041 73.191C41.6162 73.159 41.5277 73.1288 41.4386 73.1005L39.35 79.6646ZM37.5761 77.631L43.7982 74.6756C43.7957 74.6704 43.7933 74.6652 43.7908 74.6601L37.5761 77.631ZM29.0958 59.8917L35.3105 56.9208C34.1652 54.5249 31.7446 53.0007 29.089 53.0034C26.4334 53.006 24.0158 54.5349 22.8752 56.9331L29.0958 59.8917ZM20.6588 77.631L26.7882 80.7743C26.8195 80.7132 26.8499 80.6516 26.8794 80.5896L20.6588 77.631ZM18.8416 79.6213L16.7531 73.0572C16.6307 73.0962 16.5094 73.1385 16.3894 73.1842L18.8416 79.6213ZM16.2024 79.1454L19.1578 72.9233C19.1349 72.9124 19.112 72.9017 19.089 72.891L16.2024 79.1454ZM14.5582 78.0637L9.1418 82.3195C9.25452 82.4629 9.37289 82.6019 9.49665 82.7359L14.5582 78.0637ZM14.1256 76.6792L21.0033 77.0613C21.0037 77.0546 21.004 77.0479 21.0044 77.0412L14.1256 76.6792ZM14.7313 74.7754L20.8427 77.9534C20.8759 77.8895 20.9081 77.8252 20.9393 77.7603L14.7313 74.7754ZM26.1104 51.1086L19.9493 48.028C19.9334 48.0598 19.9178 48.0917 19.9024 48.1237L26.1104 51.1086ZM27.3652 49.724L23.8211 43.8173C23.7761 43.8444 23.7313 43.8719 23.6868 43.9L27.3652 49.724ZM30.3506 49.4644L27.4639 55.7187C27.5999 55.7815 27.738 55.8398 27.8778 55.8936L30.3506 49.4644ZM31.3457 50.1134L26.4749 54.9842C26.5522 55.0615 26.6313 55.1369 26.7121 55.2104L31.3457 50.1134ZM32.1245 51.1518L38.3302 48.1622C38.3156 48.1318 38.3007 48.1015 38.2856 48.0713L32.1245 51.1518ZM21.827 72.3958L15.6185 69.4118C14.5927 71.5463 14.7352 74.0581 15.9959 76.0628C17.2567 78.0676 19.4588 79.2841 21.827 79.2841V72.3958ZM24.5096 66.8144V59.926C21.8616 59.926 19.4481 61.4439 18.3011 63.8304L24.5096 66.8144ZM33.7254 66.8144L39.9339 63.8304C38.7868 61.4439 36.3733 59.926 33.7254 59.926V66.8144ZM36.4079 72.3958V79.2841C38.7761 79.2841 40.9783 78.0676 42.239 76.0628C43.4997 74.0581 43.6423 71.5463 42.6164 69.4118L36.4079 72.3958ZM37.3369 77.8428C37.3909 77.9553 37.3826 77.9574 37.3535 77.8613C37.3259 77.7698 37.2539 77.5057 37.2316 77.1045L50.9871 76.3403C50.8886 74.5679 50.3053 73.0236 49.7569 71.8812L37.3369 77.8428ZM37.2329 77.1269C37.1952 76.4861 37.2807 75.7972 37.5203 75.122C37.7562 74.4569 38.0919 73.9442 38.4034 73.5808L48.8635 82.5466C50.2651 80.9113 51.1286 78.7446 50.9858 76.3179L37.2329 77.1269ZM38.375 73.6142C38.6973 73.2333 38.967 73.0379 39.0348 72.9902C39.1137 72.9348 39.1026 72.9522 38.952 73.0275L45.1131 85.3498C46.19 84.8113 47.6901 83.9334 48.8919 82.5132L38.375 73.6142ZM39.0771 72.9666C38.85 73.0744 38.9438 72.9982 39.2933 72.9362C39.642 72.8744 40.5567 72.7737 41.7041 73.191L36.996 86.1382C40.3757 87.3672 43.4961 86.1194 44.9881 85.4107L39.0771 72.9666ZM41.4386 73.1005C42.6728 73.4932 43.3696 74.1879 43.6214 74.4766C43.8729 74.7648 43.9053 74.9011 43.7982 74.6756L31.354 80.5865C32.0481 82.0478 33.7195 85.1016 37.2615 86.2286L41.4386 73.1005ZM43.7908 74.6601L35.3105 56.9208L22.8811 62.8626L31.3614 80.602L43.7908 74.6601ZM22.8752 56.9331L14.4382 74.6725L26.8794 80.5896L35.3164 62.8503L22.8752 56.9331ZM14.5295 74.4878C14.4164 74.7082 14.4457 74.5897 14.6849 74.3277C14.9225 74.0675 15.5869 73.4283 16.7531 73.0572L20.9302 86.1854C24.3395 85.1006 26.0444 82.2246 26.7882 80.7743L14.5295 74.4878ZM16.3894 73.1842C17.6204 72.7153 18.605 72.8342 18.9499 72.8964C19.3055 72.9605 19.3985 73.0376 19.1578 72.9233L13.2469 85.3674C14.6486 86.0333 17.8513 87.3698 21.2938 86.0584L16.3894 73.1842ZM19.089 72.891C18.9499 72.8268 18.9396 72.8113 19.0148 72.8607C19.0829 72.9055 19.3233 73.0703 19.6198 73.3915L9.49665 82.7359C10.7199 84.0611 12.1904 84.8803 13.3157 85.3997L19.089 72.891ZM19.9746 73.8079C20.3001 74.2222 20.5945 74.7444 20.7869 75.3601C20.9789 75.9745 21.0312 76.5595 21.0033 77.0613L7.24782 76.2971C7.12736 78.4654 7.77559 80.5807 9.1418 82.3195L19.9746 73.8079ZM21.0044 77.0412C20.9822 77.4627 20.9034 77.7529 20.8627 77.8808C20.8215 78.0101 20.7989 78.0377 20.8427 77.9534L8.61984 71.5975C7.99057 72.8076 7.34603 74.4305 7.24674 76.3171L21.0044 77.0412ZM20.9393 77.7603L32.3185 54.0934L19.9024 48.1237L8.52324 71.7906L20.9393 77.7603ZM32.2715 54.1891C31.9951 54.7419 31.5522 55.2268 31.0435 55.548L23.6868 43.9C22.0821 44.9136 20.8026 46.3214 19.9493 48.028L32.2715 54.1891ZM30.9092 55.6307C30.5373 55.8539 29.9166 56.0932 29.1391 56.0932V42.3165C27.1501 42.3165 25.3468 42.9019 23.8211 43.8173L30.9092 55.6307ZM29.1391 56.0932C28.6236 56.0932 28.0371 55.9833 27.4639 55.7187L33.2372 43.2101C31.9141 42.5994 30.5199 42.3165 29.1391 42.3165V56.0932ZM27.8778 55.8936C27.3391 55.6864 26.8572 55.3665 26.4749 54.9842L36.2165 45.2426C35.2573 44.2834 34.112 43.5309 32.8233 43.0352L27.8778 55.8936ZM26.7121 55.2104C26.3673 54.8969 26.1214 54.5485 25.9634 54.2324L38.2856 48.0713C37.7237 46.9475 36.9587 45.9068 35.9793 45.0165L26.7121 55.2104ZM25.9187 54.1415L37.3412 77.8516L49.7526 71.8723L38.3302 48.1622L25.9187 54.1415ZM28.0355 75.3797L30.718 69.7983L18.3011 63.8304L15.6185 69.4118L28.0355 75.3797ZM24.5096 73.7027H33.7254V59.926H24.5096V73.7027ZM27.5169 69.7983L30.1994 75.3797L42.6164 69.4118L39.9339 63.8304L27.5169 69.7983ZM36.4079 65.5074H21.827V79.2841H36.4079V65.5074ZM48.046 79.0156L44.1435 84.6918C44.2262 84.7487 44.3101 84.8037 44.3951 84.8569L48.046 79.0156ZM47.1806 77.7608L40.386 78.8933C40.4062 79.0145 40.4297 79.1352 40.4563 79.2551L47.1806 77.7608ZM47.1806 50.8922L40.4754 49.3145C40.4457 49.4406 40.4196 49.5676 40.3971 49.6951L47.1806 50.8922ZM48.046 49.6808L51.9484 55.357L51.9484 55.357L48.046 49.6808ZM52.6322 49.6808L48.5587 55.2355C48.6151 55.2769 48.6721 55.3174 48.7298 55.357L52.6322 49.6808ZM53.4543 50.8922L46.6708 52.0893C46.6933 52.2169 46.7194 52.3438 46.7491 52.4699L53.4543 50.8922ZM53.4543 77.8041L60.1595 79.3818C60.1661 79.354 60.1724 79.3262 60.1786 79.2984L53.4543 77.8041ZM52.589 79.0156L56.4099 84.747C56.4372 84.7288 56.4644 84.7104 56.4914 84.6918L52.589 79.0156ZM50.2958 72.5599C50.069 72.5599 50.0801 72.542 50.2554 72.5757C50.403 72.6041 50.9808 72.7268 51.6968 73.1743L44.3951 84.8569C46.5615 86.2108 48.9514 86.3366 50.2958 86.3366V72.5599ZM51.9484 73.3393C52.3389 73.6078 52.775 74.0036 53.1541 74.5532C53.5368 75.1082 53.7794 75.7016 53.9049 76.2665L40.4563 79.2551C40.9711 81.5716 42.3301 83.4451 44.1435 84.6918L51.9484 73.3393ZM53.9752 76.6284C53.9536 76.4985 53.9392 76.3441 53.9392 76.16H40.1625C40.1625 77.0719 40.2346 77.9848 40.386 78.8933L53.9752 76.6284ZM53.9392 76.16V52.4931H40.1625V76.16H53.9392ZM53.9392 52.4931C53.9392 52.256 53.9573 52.1282 53.9641 52.0893L40.3971 49.6951C40.2309 50.637 40.1625 51.5764 40.1625 52.4931H53.9392ZM53.8858 52.4699C53.7414 53.0838 53.4735 53.6866 53.0888 54.2254C52.7112 54.754 52.2941 55.1193 51.9484 55.357L44.1435 44.0045C42.441 45.1749 41.0279 46.9663 40.4754 49.3145L53.8858 52.4699ZM51.9484 55.357C51.1895 55.8788 50.551 56.0298 50.3652 56.0684C50.1541 56.1122 50.1174 56.0932 50.3391 56.0932V42.3165C48.9491 42.3165 46.3982 42.4544 44.1435 44.0045L51.9484 55.357ZM50.3391 56.0932C50.5895 56.0932 50.5558 56.1143 50.3346 56.0684C50.1554 56.0312 49.415 55.8635 48.5587 55.2355L56.7057 44.126C54.3711 42.4139 51.6387 42.3165 50.3391 42.3165V56.0932ZM48.7298 55.357C48.3572 55.1009 47.8939 54.6936 47.4839 54.0894C47.0642 53.4708 46.7928 52.7808 46.6708 52.0893L60.2378 49.6951C59.789 47.1516 58.3104 45.2253 56.5347 44.0045L48.7298 55.357ZM46.7491 52.4699C46.7345 52.4081 46.7323 52.3799 46.7336 52.3921C46.7349 52.4045 46.739 52.451 46.739 52.5364H60.5157C60.5157 51.5026 60.4181 50.4136 60.1595 49.3145L46.7491 52.4699ZM46.739 52.5364V76.2032H60.5157V52.5364H46.739ZM46.739 76.2032C46.739 76.264 46.7331 76.296 46.73 76.3098L60.1786 79.2984C60.4063 78.2738 60.5157 77.2386 60.5157 76.2032H46.739ZM46.7491 76.2264C46.8935 75.6125 47.1614 75.0097 47.5462 74.471C47.9237 73.9424 48.3408 73.577 48.6865 73.3393L56.4914 84.6918C58.1939 83.5214 59.607 81.7301 60.1595 79.3818L46.7491 76.2264ZM48.768 73.2841C49.2103 72.9893 49.6005 72.8208 49.8608 72.7267C50.1237 72.6317 50.3195 72.589 50.414 72.5712C50.5846 72.539 50.5743 72.5599 50.2958 72.5599V86.3366C51.5391 86.3366 54.1412 86.2595 56.4099 84.747L48.768 73.2841Z" fill="#FFD324" mask="url(#path-3-outside-2_102_38)"/>
<rect x="126.228" y="38.2625" width="124" height="49" rx="10" transform="rotate(3.16834 126.228 38.2625)" fill="#708254"/>
<rect x="131.776" y="44.5786" width="112.223" height="37" rx="9" transform="rotate(3.16834 131.776 44.5786)" stroke="#FABD32" stroke-width="2"/>
<path d="M155.042 71.2812C154.869 71.2716 154.717 71.2365 154.587 71.1759C154.457 71.1153 154.355 71.0228 154.282 70.8986C154.209 70.761 154.179 70.5725 154.193 70.3328C154.207 70.0799 154.257 69.8957 154.343 69.7803C154.431 69.6516 154.542 69.571 154.677 69.5384C154.813 69.4925 154.961 69.474 155.121 69.4828L156.838 69.5779L157.323 60.8313L158.031 61.4313C157.644 61.4233 157.311 61.4115 157.031 61.396C156.765 61.3813 156.547 61.3425 156.376 61.2797C156.22 61.2176 156.104 61.1311 156.03 61.0201C155.97 60.8966 155.946 60.735 155.957 60.5354C155.978 60.1626 156.078 59.9078 156.26 59.7709C156.441 59.6341 156.791 59.5733 157.311 59.5888L160.788 59.7412C162.04 59.7971 163.073 60.0746 163.887 60.5737C164.714 61.0735 165.315 61.7878 165.691 62.7167C166.08 63.6463 166.237 64.7967 166.161 66.168L165.896 70.9606C165.886 71.1337 165.851 71.292 165.79 71.4355C165.742 71.5664 165.65 71.6681 165.512 71.7406C165.388 71.8138 165.206 71.8438 164.966 71.8306C164.727 71.8173 164.542 71.7737 164.413 71.6998C164.297 71.6266 164.215 71.5286 164.169 71.4058C164.123 71.2698 164.104 71.1352 164.111 71.002L164.382 66.1095C164.436 65.1377 164.34 64.3245 164.096 63.67C163.865 63.0162 163.486 62.5145 162.958 62.1648C162.43 61.8017 161.754 61.5974 160.928 61.5517L159.091 61.45L158.608 70.1766C158.585 70.6026 158.487 70.9244 158.314 71.1419C158.156 71.3468 157.924 71.4407 157.618 71.4238L155.042 71.2812ZM169.678 72.0914C169.439 72.0781 169.261 72.0283 169.146 71.9417C169.03 71.8552 168.95 71.7439 168.904 71.6079C168.872 71.4592 168.861 71.305 168.869 71.1452L169.425 61.1006C169.434 60.9409 169.462 60.7955 169.51 60.6646C169.57 60.5344 169.663 60.4327 169.787 60.3595C169.925 60.287 170.113 60.2573 170.353 60.2706C170.606 60.2846 170.79 60.3415 170.904 60.4413C171.033 60.5286 171.114 60.6399 171.146 60.7752C171.179 60.8973 171.191 61.0448 171.182 61.2179L170.626 71.2625C170.617 71.4222 170.582 71.5672 170.521 71.6974C170.474 71.8283 170.382 71.93 170.244 72.0025C170.12 72.0758 169.931 72.1054 169.678 72.0914ZM176.093 72.3864C175.783 72.209 175.586 72.0245 175.503 71.8329C175.42 71.6414 175.465 71.4302 175.638 71.1994C176.303 70.2881 176.897 69.4397 177.422 68.6541C177.96 67.856 178.436 67.1011 178.849 66.3895C179.276 65.6654 179.657 64.9453 179.99 64.2293C180.324 63.5133 180.618 62.7751 180.874 62.0148L182.155 63.1073C181.794 64.0888 181.381 65.0274 180.918 65.9232C180.454 66.8189 179.929 67.7513 179.341 68.7203C178.753 69.6893 178.066 70.7729 177.278 71.9713C177.189 72.1266 177.082 72.2542 176.956 72.3541C176.844 72.4547 176.714 72.5142 176.566 72.5328C176.431 72.552 176.274 72.5032 176.093 72.3864ZM182.112 63.165L180.918 62.6582L174.928 62.3266C174.595 62.3082 174.352 62.2213 174.201 62.066C174.049 61.9107 173.969 61.666 173.961 61.3317L173.974 58.2076C173.983 58.0345 174.011 57.8892 174.058 57.7716C174.119 57.6414 174.224 57.5471 174.374 57.4886C174.525 57.4168 174.727 57.388 174.98 57.402C175.219 57.4152 175.39 57.4647 175.492 57.5505C175.594 57.6363 175.661 57.7535 175.693 57.9022C175.739 58.0382 175.757 58.1995 175.747 58.3858L175.746 60.5691L180.818 60.8499C181.244 60.8735 181.578 60.9855 181.821 61.1859C182.064 61.3862 182.209 61.6613 182.256 62.0112C182.318 62.3484 182.27 62.733 182.112 63.165ZM185.358 67.2907C185.119 67.2774 184.941 67.2275 184.826 67.141C184.711 67.0412 184.631 66.9233 184.585 66.7872C184.552 66.6518 184.541 66.5043 184.549 66.3445L184.793 61.9513C184.801 61.7915 184.829 61.6462 184.877 61.5152C184.937 61.3851 185.03 61.2834 185.154 61.2101C185.292 61.1376 185.48 61.108 185.72 61.1212C185.973 61.1352 186.157 61.1922 186.271 61.292C186.4 61.3792 186.481 61.4905 186.513 61.6259C186.547 61.7479 186.558 61.8954 186.549 62.0685L186.306 66.4618C186.297 66.6215 186.262 66.7665 186.201 66.8967C186.154 67.0276 186.062 67.1293 185.924 67.2018C185.8 67.2751 185.611 67.3047 185.358 67.2907ZM189.733 73.6823C189.544 73.7252 189.363 73.7419 189.19 73.7323C189.03 73.7234 188.9 73.6562 188.8 73.5305C188.7 73.4181 188.623 73.2335 188.57 72.9769C188.53 72.7343 188.541 72.5479 188.601 72.4178C188.675 72.2883 188.788 72.1877 188.939 72.1159C189.089 72.0442 189.266 71.9872 189.469 71.945L193.644 71.0544C194.269 70.8753 194.783 70.63 195.187 70.3186C195.606 69.9945 195.916 69.5844 196.117 69.0881C196.331 68.5925 196.457 68.0052 196.495 67.3263L196.761 62.5136C196.769 62.3672 196.796 62.2418 196.842 62.1375C196.902 62.0207 196.994 61.9323 197.117 61.8723C197.241 61.7991 197.423 61.7691 197.663 61.7823C197.916 61.7963 198.107 61.847 198.235 61.9342C198.364 62.0215 198.451 62.1398 198.496 62.2892C198.542 62.4253 198.56 62.5798 198.551 62.7529L198.303 66.8655C198.256 67.7175 198.121 68.4712 197.897 69.1265C197.674 69.7819 197.369 70.3459 196.983 70.8186C196.596 71.2912 196.12 71.6922 195.554 72.0214C194.988 72.3507 194.326 72.6145 193.567 72.8128L189.733 73.6823ZM192.25 71.6382C192.082 71.5355 191.91 71.3924 191.733 71.209C191.57 71.013 191.444 70.759 191.354 70.4469L189.408 62.5473C189.364 62.3713 189.34 62.2163 189.334 62.0824C189.328 61.9353 189.376 61.8043 189.476 61.6897C189.575 61.575 189.754 61.4914 190.01 61.4389C190.281 61.3737 190.488 61.3718 190.632 61.4332C190.788 61.4953 190.903 61.6018 190.974 61.7526C191.046 61.9035 191.104 62.0736 191.146 62.2629L193.346 71.3784L192.25 71.6382ZM201.636 73.8604C201.476 73.8515 201.324 73.8164 201.181 73.7551C201.051 73.6945 200.949 73.602 200.876 73.4778C200.803 73.3402 200.773 73.1516 200.787 72.912C200.801 72.6591 200.851 72.4749 200.937 72.3595C201.025 72.2308 201.136 72.1501 201.271 72.1176C201.421 72.0724 201.582 72.0547 201.755 72.0642L204.93 72.24C205.662 72.2805 206.31 72.1628 206.873 71.8868C207.435 71.6108 207.887 71.1818 208.226 70.5996C208.566 70.0042 208.761 69.2538 208.811 68.3485L208.826 68.0889C208.897 66.7976 208.659 65.7962 208.11 65.0848C207.576 64.3742 206.776 63.9894 205.711 63.9304L205.171 63.9006C204.692 63.874 204.246 63.9695 203.834 64.1871C203.435 64.392 203.113 64.6613 202.867 64.9949C202.636 65.3159 202.53 65.6573 202.55 66.0189C202.538 66.4856 202.609 66.8835 202.765 67.2126C202.933 67.5424 203.205 67.8246 203.579 68.0589C203.708 68.1462 203.782 68.2638 203.8 68.4117C203.833 68.547 203.818 68.6864 203.757 68.8299C203.695 68.9734 203.608 69.1021 203.495 69.2161C203.382 69.33 203.258 69.4032 203.122 69.4358C202.945 69.5061 202.719 69.4802 202.446 69.3583C202.186 69.2237 201.924 69.0089 201.66 68.7139C201.396 68.4188 201.175 68.0594 200.999 67.6357C200.836 67.1993 200.762 66.7212 200.778 66.2012C200.798 65.5881 200.929 65.0278 201.171 64.5204C201.426 64.0137 201.764 63.5784 202.185 63.2145C202.606 62.8372 203.089 62.5568 203.634 62.3732C204.192 62.1771 204.791 62.0968 205.43 62.1321L205.749 62.1498C206.841 62.2103 207.754 62.4811 208.488 62.9625C209.236 63.4445 209.786 64.1226 210.138 64.9968C210.505 65.8583 210.654 66.9015 210.586 68.1263L210.565 68.5057C210.495 69.7705 210.197 70.8222 209.669 71.661C209.156 72.5006 208.467 73.1235 207.603 73.5297C206.74 73.9226 205.749 74.0881 204.631 74.0262L201.636 73.8604ZM215.116 74.5465C214.805 74.369 214.608 74.1845 214.525 73.993C214.442 73.8014 214.487 73.5903 214.661 73.3595C215.325 72.4482 215.92 71.5997 216.444 70.8142C216.982 70.016 217.458 69.2612 217.871 68.5496C218.299 67.8254 218.679 67.1054 219.012 66.3894C219.346 65.6734 219.64 64.9352 219.896 64.1748L221.178 65.2673C220.816 66.2489 220.404 67.1875 219.94 68.0832C219.477 68.979 218.951 69.9114 218.363 70.8804C217.775 71.8493 217.088 72.933 216.3 74.1313C216.212 74.2866 216.104 74.4142 215.979 74.5141C215.866 74.6147 215.736 74.6743 215.588 74.6928C215.454 74.7121 215.296 74.6633 215.116 74.5465ZM221.134 65.325L219.941 64.8183L213.95 64.4867C213.617 64.4682 213.375 64.3814 213.223 64.2261C213.071 64.0708 212.992 63.826 212.983 63.4917L212.996 60.3676C213.006 60.1946 213.034 60.0492 213.08 59.9316C213.141 59.8014 213.246 59.7071 213.396 59.6487C213.547 59.5769 213.749 59.548 214.002 59.562C214.242 59.5753 214.413 59.6248 214.515 59.7106C214.617 59.7963 214.684 59.9136 214.716 60.0622C214.761 60.1983 214.779 60.3595 214.769 60.5459L214.768 62.7292L219.84 63.01C220.266 63.0335 220.601 63.1455 220.843 63.3459C221.086 63.5463 221.231 63.8214 221.278 64.1712C221.34 64.5085 221.292 64.8931 221.134 65.325Z" fill="#FAF6EE"/>
<path d="M8.33875 31L9.10847 33.8509C9.63446 35.778 11.3279 37.2947 13.5088 37.7394L16.7288 38.4122L13.5216 39.0964C11.3535 39.564 9.6473 41.0692 9.14698 43.0078L8.39006 45.8701L7.62034 43.0192C7.09436 41.092 5.40094 39.5754 3.22003 39.1306L0 38.4578L3.20721 37.7736C5.37529 37.3061 7.08153 35.8008 7.58186 33.8623L8.33875 31Z" fill="#0B2A2C"/>
<path d="M16.4865 27L16.9036 28.5366C17.1861 29.577 18.1009 30.3842 19.2713 30.6293L21 30.988L19.2713 31.3587C18.1009 31.6099 17.1928 32.423 16.917 33.4634L16.5135 35L16.0964 33.4634C15.8139 32.423 14.8991 31.6158 13.7287 31.3707L12 31.012L13.7287 30.6413C14.8991 30.3901 15.8072 29.577 16.083 28.5366L16.4865 27Z" fill="#0B2A2C"/>
<path d="M163.767 36.1372L163.803 36.1455C164.554 36.3124 165.323 36.3904 166.102 36.3904H171.09C172.869 36.3904 174.612 35.7763 175.867 34.27C175.88 34.2546 175.893 34.2391 175.905 34.2235C177.06 32.7795 177.43 30.9913 177.43 29.2698V17.2866C178.142 17.3475 178.58 17.5106 178.841 17.6656C179.133 17.839 179.429 18.1315 179.679 18.7404C179.943 19.3835 180.149 20.4058 180.149 21.9393V30.3541C180.149 31.0833 180.235 31.8054 180.402 32.516C180.418 32.5859 180.437 32.6552 180.459 32.7237C180.824 33.8928 181.567 34.8136 182.526 35.4528C182.55 35.4691 182.575 35.4851 182.6 35.5007C183.805 36.2539 185.271 36.3904 186.445 36.3904C187.612 36.3904 189.187 36.2547 190.434 35.3621C191.421 34.6731 192.186 33.672 192.488 32.3859L192.497 32.3496C192.664 31.5982 192.742 30.8294 192.742 30.0505V21.8526C192.742 18.3578 192.195 15.2236 190.936 12.5897C189.686 9.91297 187.744 7.84294 185.151 6.48794C182.618 5.14883 179.601 4.59351 176.266 4.62557L176.26 4.62565L168.973 4.7124L168.956 4.71265C167.117 4.74491 165.017 5.08008 163.515 6.45099L163.515 6.45099C161.958 7.87304 161.541 9.88066 161.541 11.6593C161.541 12.8943 161.812 14.3496 162.837 15.5327C162.884 15.5865 162.933 15.6388 162.983 15.6892C163.524 16.2296 164.14 16.6295 164.794 16.9143V23.8729C164.48 23.9108 164.168 23.9632 163.858 24.0302C162.508 24.2899 161.466 25.079 160.767 26.0954C159.912 27.339 159.762 28.8834 159.762 30.0939C159.762 31.2963 159.918 32.8145 160.767 34.049C161.457 35.0521 162.466 35.8311 163.767 36.1372Z" fill="#333335" stroke="#333335" stroke-width="6" stroke-linejoin="round"/>
<path d="M149.739 36.2924C149.764 36.3001 149.788 36.3075 149.812 36.3146C150.893 36.6283 152.357 36.8764 153.769 36.3359C154.842 35.9586 155.768 35.2746 156.429 34.2927C156.872 33.6449 157.238 32.9535 157.522 32.222L157.535 32.1881C157.887 31.25 158.253 30.2553 158.632 29.2041L158.641 29.1796C159.019 28.1041 159.396 27.0008 159.774 25.8698C160.185 24.7235 160.581 23.5633 160.963 22.3892L160.969 22.3687C161.348 21.1754 161.712 20.0106 162.061 18.8742C162.411 17.7379 162.746 16.6299 163.067 15.5503C163.119 15.3765 163.154 15.2007 163.174 15.025C163.495 13.5982 163.56 12.1591 163.252 10.7557C162.839 8.87516 161.825 7.29033 160.233 6.17404C158.643 5.03832 156.724 4.62524 154.77 4.62524H140.456C139.734 4.62524 139.018 4.70315 138.311 4.8554C136.973 5.10316 135.894 5.86119 135.164 6.92329L135.164 6.92329C134.309 8.16692 134.159 9.71129 134.159 10.9218C134.159 12.1242 134.315 13.6424 135.164 14.8769C135.593 15.5 136.137 16.0192 136.781 16.399C135.873 17.0824 135.175 18.0425 134.89 19.2567C134.877 19.3117 134.865 19.3669 134.855 19.4225C134.735 20.1024 134.68 20.7984 134.68 21.5054V37.641C134.68 38.3489 134.736 39.049 134.851 39.7391C134.859 39.7919 134.87 39.8444 134.881 39.8967C135.171 41.2 135.926 42.253 136.978 42.9759C138.212 43.8246 139.73 43.9809 140.933 43.9809C142.1 43.9809 143.675 43.8452 144.922 42.9523C145.95 42.234 146.69 41.1968 146.98 39.9169C147.15 39.1865 147.229 38.4395 147.229 37.6844V35.1233C148.024 35.6637 148.913 36.0294 149.739 36.2924ZM145.985 17.2183H149.378C149.36 17.2724 149.342 17.3265 149.324 17.3806C148.898 18.6305 148.458 19.8805 148.003 21.1308C147.996 21.1498 147.989 21.1688 147.983 21.188C147.736 21.9113 147.485 22.6244 147.229 23.3274V21.5487C147.229 20.8172 147.155 20.0933 146.996 19.3847C146.839 18.5554 146.485 17.8261 145.985 17.2183ZM137.24 16.6383C137.24 16.6383 137.24 16.6383 137.24 16.6383L138.673 18.7225L137.24 16.6383Z" fill="#333335" stroke="#333335" stroke-width="6" stroke-linejoin="round"/>
<path d="M108.199 6.96666L108.199 6.96667C107.344 8.21029 107.194 9.75466 107.194 10.9651C107.194 12.1675 107.35 13.6858 108.199 14.9203C108.921 15.9717 109.975 16.7271 111.278 17.0167C112.018 17.1813 112.772 17.2617 113.534 17.2617H119.165V30.0503C119.165 30.8292 119.243 31.598 119.41 32.3494L119.418 32.3857C119.709 33.6202 120.42 34.6215 121.389 35.3323C121.413 35.3503 121.438 35.368 121.463 35.3852C122.698 36.2339 124.216 36.3902 125.418 36.3902C126.581 36.3902 128.029 36.2564 129.227 35.5232C130.262 34.9052 131.18 33.8967 131.475 32.4601C131.633 31.7674 131.715 31.0641 131.715 30.3539V17.1122C131.879 17.0834 132.043 17.0501 132.205 17.0122C133.499 16.7194 134.545 15.9663 135.264 14.9203L132.792 13.2207L135.264 14.9203C136.113 13.6858 136.269 12.1675 136.269 10.9651C136.269 9.75466 136.119 8.21029 135.264 6.96667L132.792 8.66625L135.264 6.96666C134.545 5.92063 133.499 5.16761 132.205 4.87471C131.475 4.70426 130.728 4.62524 129.973 4.62524H113.49C112.745 4.62524 112.007 4.7082 111.278 4.87019C109.975 5.1598 108.921 5.9152 108.199 6.96666Z" fill="#333335" stroke="#333335" stroke-width="6" stroke-linejoin="round"/>
<path d="M84.3606 4.77983C83.1488 5.04183 81.6013 5.54196 80.5587 6.74492L80.548 6.75734C79.7474 7.69138 79.3053 8.84219 79.3053 10.0977C79.3053 10.1532 79.3068 10.2087 79.3099 10.2641C79.3507 10.9986 79.471 11.7369 79.6551 12.4736L79.6551 12.4736L79.6582 12.4858L81.4599 19.5659L79.6614 29.4914C79.355 31.0496 79.3733 33.0984 80.8648 34.6728C80.8834 34.6924 80.9023 34.7118 80.9214 34.7309C82.3146 36.1241 84.2782 36.3903 85.8187 36.3903C86.9986 36.3903 88.5948 36.2516 89.8483 35.3324C90.1959 35.0775 90.51 34.7837 90.7819 34.4538C91.4729 35.276 92.3939 35.8761 93.503 36.137L93.5394 36.1454C94.28 36.3099 95.0334 36.3903 95.795 36.3903H104.123C105.124 36.3903 106.223 36.3341 107.134 36.0537C107.768 35.8774 108.421 35.5467 108.977 34.9911C109.54 34.428 109.872 33.7648 110.047 33.1222C110.315 32.2142 110.376 31.1239 110.376 30.0938V21.1584C110.376 17.952 109.975 15.074 109.063 12.6166C108.162 10.1588 106.78 8.08096 104.799 6.61616C102.806 5.08987 100.419 4.40845 97.8337 4.40845C95.8945 4.40845 94.0532 4.68801 92.4605 5.4198L92.432 5.43308C91.781 5.74048 91.1692 6.10194 90.6031 6.51961C90.0666 5.8253 89.3682 5.31266 88.5986 4.97064C87.1645 4.33326 85.5649 4.51944 84.3606 4.77983ZM84.3606 4.77983L84.9946 7.71208M84.3606 4.77983L84.9946 7.71208M84.9946 7.71208C86.0645 7.48074 86.8597 7.48074 87.3802 7.71208C87.881 7.93466 88.2346 8.26433 88.441 8.70109L83.2973 14.6215L82.5655 11.746C82.421 11.1676 82.3342 10.6182 82.3053 10.0977C82.3053 9.57722 82.4788 9.11455 82.8258 8.70971C83.2017 8.27596 83.9246 7.94341 84.9946 7.71208ZM93.3591 24.0814L93.7463 21.9781C93.933 21.1547 94.1321 20.3452 94.3437 19.5496C94.5419 18.8992 94.7807 18.3544 95.0465 17.8988C95.0553 17.8836 95.0641 17.8683 95.0727 17.853C95.2419 17.5507 95.4242 17.3772 95.6199 17.2581C95.6464 17.2419 95.6728 17.2253 95.6988 17.2083C95.7587 17.1693 95.987 17.0449 96.5758 17.0449C96.7968 17.0449 96.921 17.0734 96.9762 17.0908C97.0036 17.0994 97.0177 17.1064 97.0226 17.109C97.0273 17.1115 97.029 17.1128 97.0305 17.114C97.0466 17.127 97.0628 17.1399 97.0792 17.1526C97.1009 17.174 97.2584 17.3466 97.41 17.9073C97.4165 17.9314 97.4233 17.9555 97.4305 17.9794C97.6347 18.6664 97.7832 19.7362 97.7832 21.2886V23.7972H95.8384C95.0785 23.7972 94.3283 23.8714 93.5946 24.0301C93.515 24.0454 93.4365 24.0625 93.3591 24.0814Z" fill="#333335" stroke="#333335" stroke-width="6" stroke-linejoin="round"/>
<path d="M70.5839 24.5847C70.55 24.5614 70.5165 24.5373 70.4835 24.5126C69.5446 23.8084 68.7956 22.8163 68.4958 21.5419C68.4828 21.4869 68.4715 21.4317 68.4617 21.3761C68.3417 20.6962 68.2859 20.0002 68.2859 19.2932V10.9218C68.2859 10.2148 68.3417 9.5188 68.4617 8.83891C68.4693 8.79558 68.4779 8.75242 68.4875 8.70947C68.7771 7.40621 69.5325 6.35313 70.5839 5.63025M70.5839 24.5847L70.5839 5.63025M70.5839 24.5847C71.8184 25.4335 73.3367 25.5897 74.539 25.5897C75.7062 25.5897 77.2806 25.4541 78.5278 24.5614C79.5147 23.8724 80.2797 22.8714 80.5823 21.5852L77.6621 20.8981L80.5823 21.5852C80.7554 20.8497 80.8356 20.0973 80.8356 19.3366V10.9651C80.8356 10.2336 80.7614 9.50972 80.6018 8.80114C80.3569 7.50686 79.6334 6.45617 78.6193 5.73095M70.5839 24.5847L78.6193 5.73095M70.5839 5.63025C71.8276 4.77526 73.3719 4.62524 74.5824 4.62524C75.7628 4.62524 77.3596 4.7769 78.6193 5.73095M70.5839 5.63025L78.6193 5.73095" fill="#333335" stroke="#333335" stroke-width="6" stroke-linejoin="round"/>
<path d="M40.8084 32.1918C40.8192 32.2568 40.8322 32.3215 40.8473 32.3857C41.1534 33.6864 41.9324 34.6955 42.9355 35.3852C43.9884 36.1091 45.2568 36.3276 46.3557 36.3776C46.4466 36.386 46.5383 36.3902 46.6304 36.3902H46.934H63.7636H64.0239C64.101 36.3902 64.1779 36.3872 64.2542 36.3814C65.3479 36.3401 66.6729 36.1346 67.7526 35.3617C68.7527 34.6631 69.5273 33.6288 69.784 32.2941C69.9426 31.5603 70.0168 30.8101 70.0168 30.0503V20.6379C70.0168 17.5869 69.4587 14.7866 68.2173 12.3402C66.9831 9.90812 65.1851 7.9814 62.8475 6.63943C60.5033 5.24739 57.7857 4.62524 54.8283 4.62524H47.3677C45.7142 4.62524 43.8738 4.99232 42.4794 6.32034C41.0295 7.70119 40.6375 9.59631 40.6375 11.2688V30.0937C40.6375 30.8016 40.6934 31.5017 40.8084 32.1918ZM57.4671 20.768V23.7972H53.2305V17.2617H54.9584C55.9419 17.2617 56.3928 17.4422 56.552 17.5366C56.5656 17.5446 56.5793 17.5526 56.593 17.5604C56.7497 17.6499 56.9164 17.7943 57.0686 18.1807C57.0781 18.2048 57.088 18.2288 57.0981 18.2527C57.2916 18.7089 57.4671 19.5003 57.4671 20.768Z" fill="#333335" stroke="#333335" stroke-width="6" stroke-linejoin="round"/>
<path d="M195.845 4.77983C194.634 5.04182 193.086 5.54195 192.044 6.74492L192.033 6.75734C191.232 7.69142 190.79 8.84223 190.79 10.0977C190.79 10.1532 190.792 10.2087 190.795 10.2641C190.836 10.9986 190.956 11.7369 191.14 12.4736L191.14 12.4736L191.143 12.4858L192.945 19.5659L191.146 29.4914C190.84 31.0497 190.858 33.0984 192.35 34.6728C192.368 34.6924 192.387 34.7118 192.406 34.7309C193.8 36.1241 195.763 36.3903 197.304 36.3903C198.483 36.3903 200.08 36.2516 201.333 35.3324C201.681 35.0775 201.995 34.7837 202.267 34.4538C202.958 35.276 203.879 35.8761 204.988 36.137L205.024 36.1454C205.765 36.3099 206.518 36.3903 207.28 36.3903H215.608C216.608 36.3903 217.708 36.3341 218.619 36.0537C219.253 35.8774 219.906 35.5467 220.462 34.9911C221.025 34.428 221.357 33.7648 221.532 33.1222C221.8 32.2142 221.861 31.1239 221.861 30.0938V21.1584C221.861 17.952 221.46 15.074 220.548 12.6166C219.647 10.1587 218.265 8.08096 216.284 6.61616C214.29 5.08987 211.904 4.40845 209.319 4.40845C207.379 4.40845 205.538 4.68801 203.945 5.4198L203.917 5.43308C203.266 5.74048 202.654 6.10194 202.088 6.51961C201.551 5.8253 200.853 5.31266 200.083 4.97064C198.649 4.33326 197.05 4.51944 195.845 4.77983ZM195.845 4.77983L196.479 7.71208M195.845 4.77983L196.479 7.71208M196.479 7.71208C197.549 7.48074 198.345 7.48074 198.865 7.71208C199.366 7.93466 199.719 8.26433 199.926 8.70109L194.782 14.6215L194.05 11.746C193.906 11.1676 193.819 10.6182 193.79 10.0977C193.79 9.57722 193.964 9.11455 194.311 8.70971C194.687 8.27596 195.41 7.94341 196.479 7.71208ZM204.844 24.0814L205.231 21.9781C205.418 21.1546 205.617 20.3451 205.829 19.5496C206.027 18.8992 206.266 18.3544 206.531 17.8988C206.54 17.8836 206.549 17.8683 206.558 17.853C206.727 17.5507 206.909 17.3772 207.105 17.2581C207.131 17.2419 207.158 17.2253 207.184 17.2083C207.244 17.1693 207.472 17.0449 208.061 17.0449C208.282 17.0449 208.406 17.0734 208.461 17.0908C208.488 17.0994 208.503 17.1064 208.507 17.109C208.512 17.1115 208.514 17.1128 208.515 17.114C208.531 17.127 208.548 17.1399 208.564 17.1526C208.586 17.174 208.743 17.3466 208.895 17.9073C208.901 17.9314 208.908 17.9555 208.915 17.9794C209.12 18.6664 209.268 19.7362 209.268 21.2886V23.7972H207.323C206.563 23.7972 205.813 23.8714 205.079 24.0301C205 24.0454 204.921 24.0625 204.844 24.0814Z" fill="#333335" stroke="#333335" stroke-width="6" stroke-linejoin="round"/>
<path d="M47.1546 33.3904C46.0846 33.3904 45.3183 33.2313 44.8557 32.9132C44.393 32.5952 44.1038 32.1903 43.9882 31.6987C43.9014 31.1782 43.858 30.6433 43.858 30.0939V11.2689C43.858 9.99659 44.1617 9.07125 44.7689 8.49292C45.3762 7.91458 46.316 7.62541 47.5883 7.62541H55.0489C57.5936 7.62541 59.7623 8.16037 61.5552 9.2303C63.377 10.2713 64.7794 11.7605 65.7626 13.698C66.7458 15.6354 67.2374 17.9487 67.2374 20.638V30.0505C67.2374 30.6288 67.1795 31.1782 67.0639 31.6987C66.9771 32.1903 66.7024 32.5952 66.2397 32.9132C65.806 33.2313 65.0541 33.3904 63.9842 33.3904C62.9432 33.3904 62.1914 33.2458 61.7287 32.9566C61.266 32.6675 60.9769 32.2915 60.8612 31.8289C60.7455 31.3373 60.6877 30.8457 60.6877 30.3541V20.7681C60.6877 19.2645 60.4853 18.0355 60.0804 17.0812C59.7045 16.127 59.1117 15.4185 58.302 14.9558C57.5213 14.4932 56.4803 14.2618 55.179 14.2618H50.4511V30.0505C50.4511 30.6288 50.3933 31.1782 50.2776 31.6987C50.1619 32.1903 49.8728 32.5952 49.4101 32.9132C48.9763 33.2313 48.2245 33.3904 47.1546 33.3904ZM46.8509 33.3904L46.8943 26.7973H64.2011L64.2445 33.3904H46.8509ZM74.7596 22.5899C73.7186 22.5899 72.9668 22.4309 72.5041 22.1128C72.0414 21.7658 71.7522 21.3465 71.6366 20.8549C71.5498 20.3633 71.5064 19.8428 71.5064 19.2934V10.9219C71.5064 10.3725 71.5498 9.85201 71.6366 9.36042C71.7522 8.83992 72.0414 8.42062 72.5041 8.10254C72.9668 7.78445 73.733 7.62541 74.803 7.62541C75.8729 7.62541 76.6247 7.79891 77.0585 8.14591C77.5212 8.464 77.7959 8.88329 77.8826 9.4038C77.9983 9.89539 78.0561 10.4159 78.0561 10.9653V19.3368C78.0561 19.8862 77.9983 20.4067 77.8826 20.8983C77.767 21.3899 77.4778 21.7947 77.0151 22.1128C76.5814 22.4309 75.8295 22.5899 74.7596 22.5899ZM107.597 21.1585V30.0939C107.597 31.1059 107.524 31.8433 107.38 32.306C107.264 32.7687 106.975 33.0578 106.512 33.1735C106.079 33.3181 105.356 33.3904 104.344 33.3904H96.0156C95.4661 33.3904 94.9312 33.3325 94.4107 33.2169C93.9191 33.1012 93.5143 32.8265 93.1962 32.3927C92.8781 31.9301 92.719 31.1638 92.719 30.0939C92.719 29.0239 92.8781 28.2576 93.1962 27.795C93.5143 27.3323 93.9191 27.0576 94.4107 26.9708C94.9312 26.8552 95.4806 26.7973 96.0589 26.7973H101.004V21.2886C101.004 19.5826 100.845 18.1945 100.527 17.1246C100.237 16.0547 99.7748 15.2739 99.1386 14.7823C98.5313 14.2908 97.7506 14.045 96.7963 14.045C95.7842 14.045 94.9456 14.2618 94.2806 14.6956C93.6155 15.1004 93.0805 15.6643 92.6757 16.3872C92.2708 17.0812 91.9383 17.862 91.678 18.7295C91.4467 19.597 91.2298 20.479 91.0274 21.3754L89.4225 30.0939C89.3068 30.6433 89.1912 31.1782 89.0755 31.6987C88.9888 32.1903 88.7285 32.5952 88.2947 32.9132C87.861 33.2313 87.1092 33.3904 86.0392 33.3904C84.7091 33.3904 83.7837 33.1301 83.2632 32.6096C82.7427 32.0602 82.5981 31.2072 82.8295 30.0505L85.1717 17.1246L87.4706 19.6838C87.9333 18.556 88.3381 17.4138 88.6851 16.2571C89.0321 15.0715 89.3936 13.9582 89.7695 12.9172C90.1743 11.8473 90.7093 10.9075 91.3744 10.0978C92.0395 9.28813 92.8925 8.6375 93.9335 8.14591C95.0035 7.65432 96.377 7.40853 98.0542 7.40853C100.107 7.40853 101.828 7.94349 103.216 9.01342C104.633 10.0544 105.717 11.6015 106.469 13.6546C107.221 15.6788 107.597 18.1801 107.597 21.1585ZM85.8657 23.8478L82.7861 11.7461C82.6415 11.1677 82.5547 10.6183 82.5258 10.0978C82.5258 9.5773 82.6993 9.11463 83.0463 8.70979C83.4222 8.27604 84.1452 7.94349 85.2151 7.71216C86.285 7.48082 87.0802 7.48082 87.6007 7.71216C88.1212 7.94349 88.4827 8.2905 88.6851 8.75317C88.8875 9.18692 89.0466 9.64959 89.1623 10.1412L91.0708 18.6861L85.8657 23.8478ZM113.754 14.2618C113.205 14.2618 112.67 14.204 112.149 14.0883C111.629 13.9727 111.209 13.6835 110.891 13.2208C110.573 12.7582 110.414 12.0063 110.414 10.9653C110.414 9.89539 110.573 9.12909 110.891 8.66642C111.209 8.20375 111.629 7.91458 112.149 7.79891C112.67 7.68324 113.19 7.62541 113.711 7.62541H130.193C130.743 7.62541 131.263 7.68324 131.755 7.79891C132.275 7.91458 132.695 8.20375 133.013 8.66642C133.331 9.12909 133.49 9.89539 133.49 10.9653C133.49 12.0063 133.331 12.7582 133.013 13.2208C132.695 13.6835 132.275 13.9727 131.755 14.0883C131.263 14.204 130.728 14.2618 130.15 14.2618H113.754ZM125.639 33.3904C124.598 33.3904 123.846 33.2313 123.383 32.9132C122.95 32.5952 122.675 32.1903 122.559 31.6987C122.444 31.1782 122.386 30.6288 122.386 30.0505V12.657L128.935 13.2208V30.3541C128.935 30.8457 128.878 31.3373 128.762 31.8289C128.675 32.2915 128.386 32.6675 127.894 32.9566C127.432 33.2458 126.68 33.3904 125.639 33.3904ZM150.869 33.4338C149.597 33.0289 148.759 32.5084 148.354 31.8722C147.978 31.2072 147.992 30.3541 148.397 29.3131C148.831 28.2143 149.265 27.072 149.698 25.8864C150.161 24.6719 150.609 23.4285 151.043 22.1562C151.506 20.8838 151.954 19.6115 152.388 18.3391C152.821 17.0379 153.241 15.7655 153.646 14.5221C154.05 13.2497 154.441 12.0208 154.817 10.8352L160.412 14.6956C160.094 15.7655 159.761 16.8644 159.414 17.9921C159.067 19.1199 158.706 20.2766 158.33 21.4622C157.954 22.6188 157.564 23.761 157.159 24.8888C156.783 26.0166 156.407 27.1154 156.031 28.1853C155.655 29.2263 155.294 30.2095 154.947 31.1349C154.744 31.6554 154.484 32.147 154.166 32.6096C153.877 33.0434 153.472 33.347 152.952 33.5205C152.46 33.7229 151.766 33.694 150.869 33.4338ZM141.153 40.9811C140.112 40.9811 139.361 40.822 138.898 40.5039C138.435 40.1859 138.146 39.7666 138.03 39.2461C137.944 38.7255 137.9 38.1906 137.9 37.6412V21.5055C137.9 20.9561 137.944 20.4356 138.03 19.944C138.146 19.4524 138.435 19.0476 138.898 18.7295C139.361 18.4114 140.127 18.2524 141.197 18.2524C142.267 18.2524 143.019 18.4114 143.452 18.7295C143.915 19.0476 144.19 19.4669 144.276 19.9874C144.392 20.479 144.45 20.9995 144.45 21.5489V37.6845C144.45 38.234 144.392 38.7545 144.276 39.2461C144.161 39.7666 143.872 40.1859 143.409 40.5039C142.975 40.822 142.223 40.9811 141.153 40.9811ZM160.152 15.4763L154.556 14.2185H152.171H140.72C140.17 14.2185 139.635 14.1606 139.115 14.045C138.594 13.9293 138.175 13.6401 137.857 13.1775C137.539 12.7148 137.38 11.9629 137.38 10.9219C137.38 9.85201 137.539 9.08571 137.857 8.62304C138.175 8.16037 138.594 7.88566 139.115 7.79891C139.635 7.68324 140.156 7.62541 140.676 7.62541H154.99C156.552 7.62541 157.795 7.95795 158.72 8.62304C159.675 9.28813 160.282 10.2135 160.542 11.3991C160.802 12.5847 160.672 13.9438 160.152 15.4763ZM166.323 33.3904C165.744 33.3904 165.195 33.3325 164.674 33.2169C164.183 33.1012 163.778 32.812 163.46 32.3494C163.142 31.8867 162.983 31.1349 162.983 30.0939C162.983 29.0239 163.142 28.2576 163.46 27.795C163.778 27.3323 164.183 27.0576 164.674 26.9708C165.195 26.8552 165.73 26.7973 166.279 26.7973H168.014V12.0497L172.135 14.1751C171.123 14.2908 170.169 14.392 169.272 14.4787C168.405 14.5366 167.624 14.5076 166.93 14.392C166.265 14.2474 165.73 13.9727 165.325 13.5678C164.949 13.1341 164.761 12.4979 164.761 11.6593C164.761 10.2713 165.094 9.27367 165.759 8.66642C166.424 8.05916 167.581 7.74108 169.229 7.71216L176.516 7.62541C179.523 7.59649 182.01 8.10254 183.976 9.14355C185.972 10.1846 187.461 11.7605 188.444 13.8715C189.456 15.9824 189.962 18.6428 189.962 21.8525V30.0505C189.962 30.6288 189.904 31.1782 189.789 31.6987C189.673 32.1903 189.384 32.5952 188.921 32.9132C188.487 33.2313 187.736 33.3904 186.666 33.3904C185.625 33.3904 184.873 33.2458 184.41 32.9566C183.976 32.6675 183.687 32.2915 183.543 31.8289C183.427 31.3373 183.369 30.8457 183.369 30.3541V21.9393C183.369 20.1753 183.138 18.7295 182.675 17.6017C182.212 16.474 181.518 15.6354 180.593 15.086C179.668 14.5366 178.482 14.2618 177.036 14.2618H174.651V29.2697C174.651 30.5999 174.362 31.6264 173.783 32.3494C173.205 33.0434 172.381 33.3904 171.311 33.3904H166.323ZM219.082 21.1585V30.0939C219.082 31.1059 219.009 31.8433 218.865 32.306C218.749 32.7687 218.46 33.0578 217.997 33.1735C217.564 33.3181 216.841 33.3904 215.829 33.3904H207.5C206.951 33.3904 206.416 33.3325 205.896 33.2169C205.404 33.1012 204.999 32.8265 204.681 32.3927C204.363 31.9301 204.204 31.1638 204.204 30.0939C204.204 29.0239 204.363 28.2576 204.681 27.795C204.999 27.3323 205.404 27.0576 205.896 26.9708C206.416 26.8552 206.965 26.7973 207.544 26.7973H212.489V21.2886C212.489 19.5826 212.33 18.1945 212.011 17.1246C211.722 16.0547 211.26 15.2739 210.623 14.7823C210.016 14.2908 209.235 14.045 208.281 14.045C207.269 14.045 206.431 14.2618 205.765 14.6956C205.1 15.1004 204.565 15.6643 204.161 16.3872C203.756 17.0812 203.423 17.862 203.163 18.7295C202.932 19.597 202.715 20.479 202.512 21.3754L200.907 30.0939C200.792 30.6433 200.676 31.1782 200.56 31.6987C200.474 32.1903 200.213 32.5952 199.78 32.9132C199.346 33.2313 198.594 33.3904 197.524 33.3904C196.194 33.3904 195.269 33.1301 194.748 32.6096C194.228 32.0602 194.083 31.2072 194.314 30.0505L196.657 17.1246L198.955 19.6838C199.418 18.556 199.823 17.4138 200.17 16.2571C200.517 15.0715 200.878 13.9582 201.254 12.9172C201.659 11.8473 202.194 10.9075 202.859 10.0978C203.524 9.28813 204.377 8.6375 205.418 8.14591C206.488 7.65432 207.862 7.40853 209.539 7.40853C211.592 7.40853 213.313 7.94349 214.701 9.01342C216.118 10.0544 217.202 11.6015 217.954 13.6546C218.706 15.6788 219.082 18.1801 219.082 21.1585ZM197.351 23.8478L194.271 11.7461C194.126 11.1677 194.04 10.6183 194.011 10.0978C194.011 9.5773 194.184 9.11463 194.531 8.70979C194.907 8.27604 195.63 7.94349 196.7 7.71216C197.77 7.48082 198.565 7.48082 199.086 7.71216C199.606 7.94349 199.968 8.2905 200.17 8.75317C200.372 9.18692 200.531 9.64959 200.647 10.1412L202.556 18.6861L197.351 23.8478Z" fill="white"/>
</svg>
