<svg width="251" height="95" viewBox="0 0 251 95" fill="none" xmlns="http://www.w3.org/2000/svg">
<path d="M106.855 75.3905C105.842 75.3905 105.091 75.2459 104.599 74.9567C104.136 74.6675 103.847 74.2916 103.732 73.8289C103.616 73.3663 103.558 72.8747 103.558 72.3542V63.9394C103.558 62.6381 103.428 61.5103 103.168 60.5561C102.907 59.5729 102.517 58.7632 101.997 58.1271C101.505 57.4909 100.854 57.0282 100.045 56.739C99.2639 56.421 98.3385 56.2619 97.2686 56.2619H93.4082C92.8588 56.2619 92.3238 56.2041 91.8033 56.0884C91.2828 55.9728 90.8635 55.6836 90.5454 55.2209C90.2273 54.7582 90.0683 54.0064 90.0683 52.9654C90.0683 51.8955 90.2273 51.1292 90.5454 50.6665C90.8635 50.2038 91.2683 49.9147 91.7599 49.799C92.2804 49.6833 92.8154 49.6255 93.3648 49.6255H97.1385C99.3361 49.6255 101.245 49.9291 102.864 50.5364C104.512 51.1147 105.871 51.9967 106.941 53.1823C108.011 54.3389 108.806 55.8137 109.327 57.6066C109.876 59.3705 110.151 61.4525 110.151 63.8526V72.0506C110.151 72.6289 110.093 73.1783 109.978 73.6988C109.891 74.1904 109.616 74.5952 109.153 74.9133C108.691 75.2314 107.924 75.3905 106.855 75.3905ZM92.9744 75.3905C92.425 75.3905 91.89 75.3326 91.3695 75.217C90.849 75.1302 90.4297 74.8555 90.1117 74.3928C89.7936 73.9012 89.6345 73.1349 89.6345 72.0939C89.6345 71.024 89.7936 70.2722 90.1117 69.8384C90.4297 69.3757 90.849 69.0866 91.3695 68.9709C91.89 68.8552 92.4105 68.7974 92.931 68.7974H110.498C111.076 68.7974 111.611 68.8552 112.103 68.9709C112.595 69.0866 112.999 69.3757 113.317 69.8384C113.636 70.2722 113.795 71.024 113.795 72.0939C113.795 73.1349 113.636 73.9012 113.317 74.3928C112.999 74.8555 112.595 75.1302 112.103 75.217C111.611 75.3326 111.062 75.3905 110.455 75.3905H92.9744Z" fill="white"/>
<path d="M72.669 66.8888C72.2641 66.8888 71.8448 66.8454 71.4111 66.7587C70.9773 66.643 70.6159 66.3827 70.3267 65.9779C70.0375 65.5442 69.8929 64.8357 69.8929 63.8525C69.8929 62.8693 70.0375 62.1753 70.3267 61.7705C70.6448 61.3657 71.0207 61.1199 71.4545 61.0331C71.8882 60.9175 72.3075 60.8596 72.7123 60.8596H82.8622C83.2959 60.8596 83.7297 60.9175 84.1634 61.0331C84.5972 61.1199 84.9587 61.3801 85.2478 61.8139C85.537 62.2187 85.6816 62.8983 85.6816 63.8525C85.6816 64.8357 85.537 65.5442 85.2478 65.9779C84.9876 66.3827 84.6406 66.643 84.2068 66.7587C83.7731 66.8454 83.3249 66.8888 82.8622 66.8888H72.669Z" fill="white"/>
<path fill-rule="evenodd" clip-rule="evenodd" d="M110.455 75.3903C111.062 75.3903 111.611 75.3325 112.103 75.2168C112.58 75.1327 112.975 74.8719 113.288 74.4343C113.298 74.4206 113.308 74.4067 113.318 74.3927C113.337 74.3622 113.356 74.3307 113.375 74.2981C113.655 73.8051 113.795 73.0703 113.795 72.0938C113.795 72.0792 113.795 72.0648 113.795 72.0504C113.79 71.0035 113.631 70.2661 113.318 69.8382C112.999 69.3756 112.595 69.0864 112.103 68.9707C111.611 68.8551 111.076 68.7972 110.498 68.7972H110.151V63.8524C110.151 63.4934 110.145 63.1415 110.133 62.7967C110.063 60.8365 109.794 59.1064 109.327 57.6064C108.807 55.8135 108.011 54.3388 106.941 53.1821C105.871 51.9965 104.512 51.1145 102.864 50.5362C101.245 49.9289 99.3362 49.6253 97.1385 49.6253H93.3649C92.8154 49.6253 92.2805 49.6831 91.76 49.7988C91.2684 49.9145 90.8636 50.2036 90.5455 50.6663L85.6008 47.2668C86.6621 45.7231 88.2756 44.4543 90.3856 43.9578C90.4098 43.9521 90.434 43.9465 90.4583 43.9411C91.419 43.7277 92.391 43.6248 93.3649 43.6248H97.1385C99.8472 43.6248 102.48 43.9937 104.911 44.8953C107.38 45.7714 109.586 47.1659 111.371 49.1346C113.154 51.0711 114.343 53.387 115.073 55.8778C115.835 58.3471 116.152 61.039 116.152 63.8524V64.3132C116.978 64.8831 117.668 65.5914 118.216 66.3727C119.68 68.428 119.795 70.821 119.795 72.0938C119.795 73.5078 119.623 75.6932 118.355 77.6525C118.325 77.6995 118.294 77.746 118.262 77.7921C117.189 79.3538 115.524 80.648 113.339 81.0894C112.364 81.3064 111.391 81.3908 110.455 81.3908H92.9745C92.044 81.3908 91.1153 81.2969 90.1965 81.1023C88.0445 80.6918 86.3092 79.4534 85.167 77.7921C85.1353 77.746 85.1042 77.6995 85.0738 77.6525C83.8061 75.6932 83.634 73.5078 83.634 72.0938C83.634 70.8209 83.7492 68.4277 85.2131 66.3723C86.3405 64.7654 88.01 63.5704 90.0679 63.1131C91.0053 62.9047 91.9622 62.7967 92.9311 62.7967H97.4985C97.4731 62.5789 97.4421 62.403 97.4108 62.2645C97.3673 62.2631 97.32 62.2623 97.2687 62.2623H93.4082C92.4343 62.2623 91.4624 62.1594 90.5017 61.9459C88.4155 61.4823 86.7285 60.2606 85.6008 58.6202C84.2213 56.6138 84.0678 54.329 84.0678 52.9652C84.0678 51.6141 84.2088 49.2915 85.6008 47.2668L90.5455 50.6663C90.2274 51.129 90.0683 51.8953 90.0683 52.9652C90.0683 54.0062 90.2274 54.7581 90.5455 55.2207C90.8636 55.6834 91.2829 55.9726 91.8034 56.0882C92.3239 56.2039 92.8588 56.2617 93.4082 56.2617H97.2687C98.3386 56.2617 99.2639 56.4208 100.045 56.7389C100.854 57.028 101.505 57.4907 101.997 58.1269C102.517 58.7631 102.907 59.5727 103.168 60.5559C103.349 61.219 103.467 61.966 103.522 62.7967C103.546 63.1614 103.558 63.5422 103.558 63.9392V68.7972H92.9311C92.4106 68.7972 91.8901 68.8551 91.3696 68.9707C90.8491 69.0864 90.4298 69.3756 90.1117 69.8382C89.7936 70.272 89.6346 71.0238 89.6346 72.0938C89.6346 73.1348 89.7936 73.9011 90.1117 74.3927C90.4298 74.8553 90.8491 75.13 91.3696 75.2168C91.8901 75.3325 92.4251 75.3903 92.9745 75.3903H110.455Z" fill="#333335"/>
<path fill-rule="evenodd" clip-rule="evenodd" d="M72.6256 66.8885C72.6401 66.8886 72.6546 66.8886 72.669 66.8886H82.8622C82.9058 66.8886 82.9493 66.8882 82.9926 66.8875C83.4092 66.8801 83.814 66.8371 84.2069 66.7585C84.6406 66.6428 84.9876 66.3826 85.2479 65.9777C85.5371 65.544 85.6816 64.8355 85.6816 63.8523C85.6816 62.8981 85.5371 62.2185 85.2479 61.8137C84.9587 61.3799 84.5973 61.1197 84.1635 61.0329C83.7298 60.9173 83.296 60.8594 82.8622 60.8594H72.7124C72.3076 60.8594 71.8883 60.9173 71.4545 61.0329C71.0208 61.1197 70.6449 61.3655 70.3268 61.7703C70.0376 62.1752 69.893 62.8692 69.893 63.8523C69.893 64.8355 70.0376 65.544 70.3268 65.9777C70.6159 66.3826 70.9774 66.6428 71.4111 66.7585C71.8294 66.8421 72.2343 66.8855 72.6256 66.8885ZM70.0592 55.1958C70.8991 54.9838 71.7879 54.8589 72.7124 54.8589H82.8622C83.7832 54.8589 84.6857 54.9758 85.5595 55.1961C87.6804 55.6845 89.2194 56.9867 90.1922 58.4133C91.5634 60.3932 91.6822 62.6404 91.6822 63.8523C91.6822 65.1183 91.5524 67.3082 90.2702 69.2615C89.2646 70.8066 87.7243 72.0307 85.753 72.5564C85.6308 72.589 85.5077 72.6177 85.3837 72.6425C84.5451 72.8102 83.702 72.8892 82.8622 72.8892H72.669C71.8346 72.8892 71.0202 72.7997 70.2343 72.6425C70.1104 72.6177 69.9872 72.589 69.865 72.5564C67.9368 72.0423 66.4498 70.8737 65.4439 69.4655C65.4064 69.413 65.3698 69.3599 65.334 69.3062C64.0243 67.3417 63.8925 65.128 63.8925 63.8523C63.8925 62.6404 64.0008 60.3029 65.4439 58.2826C65.4971 58.2082 65.5519 58.135 65.6084 58.0631C66.6197 56.776 68.1063 55.6445 70.0592 55.1958Z" fill="#333335"/>
<path d="M50.2958 79.4482C49.2574 79.4482 48.5074 79.304 48.0459 79.0156C47.5844 78.6983 47.296 78.28 47.1806 77.7608C47.094 77.2416 47.0508 76.708 47.0508 76.16V52.4931C47.0508 51.9162 47.094 51.3826 47.1806 50.8922C47.296 50.4019 47.5844 49.9981 48.0459 49.6808C48.5074 49.3635 49.2718 49.2048 50.3391 49.2048C51.4351 49.2048 52.1995 49.3635 52.6322 49.6808C53.0937 49.9981 53.3677 50.4019 53.4543 50.8922C53.5696 51.3826 53.6273 51.9306 53.6273 52.5364V76.2032C53.6273 76.7513 53.5696 77.2849 53.4543 77.8041C53.3389 78.2945 53.0504 78.6983 52.5889 79.0156C52.1562 79.304 51.3919 79.4482 50.2958 79.4482Z" fill="#0B2A2C"/>
<path d="M43.5469 74.862C43.893 75.5831 44.0805 76.2032 44.1094 76.7224C44.1382 77.2128 43.9796 77.6599 43.6334 78.0637C43.3161 78.4387 42.7825 78.8137 42.0326 79.1886C40.8788 79.7367 39.9846 79.8953 39.35 79.6646C38.7155 79.4627 38.1241 78.7848 37.5761 77.6311L29.0958 59.8917L20.6588 77.6311C20.0819 78.756 19.4762 79.4194 18.8416 79.6213C18.2359 79.8521 17.3561 79.6934 16.2024 79.1454C15.4524 78.7992 14.9044 78.4387 14.5582 78.0637C14.2409 77.6599 14.0967 77.1984 14.1256 76.6792C14.1544 76.1311 14.3563 75.4966 14.7313 74.7754L26.1104 51.1086C26.3989 50.5317 26.8171 50.0702 27.3652 49.724C27.942 49.3779 28.5334 49.2048 29.1391 49.2048C29.5718 49.2048 29.9756 49.2914 30.3506 49.4644C30.7255 49.6087 31.0573 49.825 31.3457 50.1134C31.663 50.4019 31.9226 50.748 32.1245 51.1518L43.5469 74.862ZM21.827 72.3958L24.5096 66.8144H33.7254L36.4079 72.3958H21.827Z" fill="#0B2A2C"/>
<path fill-rule="evenodd" clip-rule="evenodd" d="M44.3951 84.8568C44.3101 84.8036 44.2262 84.7486 44.1435 84.6918C42.449 83.5268 41.1513 81.8146 40.5684 79.7051C40.9983 79.6202 41.4863 79.448 42.0326 79.1886C42.3434 79.0331 42.617 78.8777 42.8535 78.7223C43.0113 78.6187 43.1525 78.515 43.2772 78.4113C43.4166 78.2954 43.5354 78.1795 43.6334 78.0636C43.9796 77.6598 44.1382 77.2127 44.1094 76.7224C44.0996 76.5465 44.0716 76.359 44.0254 76.1599C43.9353 75.7714 43.7758 75.3387 43.5469 74.8619L40.1625 67.8367V52.493C40.1625 51.5763 40.2309 50.6369 40.3971 49.6951C40.4196 49.5675 40.4457 49.4406 40.4754 49.3144C41.0279 46.9662 42.441 45.1749 44.1435 44.0044C46.3982 42.4543 48.9491 42.3164 50.3391 42.3164C51.621 42.3164 54.297 42.4112 56.6103 44.0569C58.3002 45.2436 59.7088 47.0743 60.1955 49.4719C60.4272 50.5174 60.5157 51.5519 60.5157 52.5363V76.2032C60.5157 77.2385 60.4063 78.2738 60.1786 79.2983C60.1724 79.3262 60.166 79.354 60.1595 79.3817C59.607 81.73 58.1939 83.5213 56.4914 84.6918C56.4644 84.7104 56.4372 84.7287 56.4099 84.7469C54.1412 86.2594 51.5391 86.3365 50.2958 86.3365C48.9514 86.3365 46.5615 86.2108 44.3951 84.8568ZM53.4543 50.8921C53.3677 50.4018 53.0937 49.998 52.6322 49.6807C52.1995 49.3634 51.4352 49.2047 50.3391 49.2047C49.2718 49.2047 48.5075 49.3634 48.0459 49.6807C47.5844 49.998 47.296 50.4018 47.1806 50.8921C47.1182 51.2457 47.0783 51.6218 47.0609 52.0204C47.0555 52.1443 47.0523 52.2705 47.0512 52.3987C47.0509 52.43 47.0508 52.4615 47.0508 52.493V76.1599C47.0508 76.1743 47.0508 76.1887 47.0509 76.2032C47.051 76.2347 47.0513 76.2661 47.0517 76.2975C47.0521 76.3256 47.0526 76.3536 47.0532 76.3816C47.0633 76.8521 47.1058 77.3118 47.1806 77.7608C47.296 78.28 47.5844 78.6982 48.0459 79.0155C48.5075 79.3039 49.2574 79.4482 50.2958 79.4482C51.3919 79.4482 52.1563 79.3039 52.5889 79.0155C53.0505 78.6982 53.3389 78.2944 53.4543 77.804C53.5353 77.4394 53.5879 77.0677 53.612 76.6889C53.6196 76.5694 53.6244 76.4492 53.6263 76.3284C53.627 76.2867 53.6273 76.245 53.6273 76.2032V52.5363C53.6273 52.5218 53.6273 52.5074 53.6272 52.493C53.6271 52.4648 53.6269 52.4368 53.6265 52.4088C53.6247 52.2789 53.6202 52.1517 53.613 52.0273C53.5893 51.6196 53.5364 51.2413 53.4543 50.8921Z" fill="#FFD324"/>
<path fill-rule="evenodd" clip-rule="evenodd" d="M47.0582 76.5489C47.0533 76.42 47.0508 76.2904 47.0508 76.1599V66.2639L38.3302 48.1621C38.3156 48.1317 38.3007 48.1014 38.2856 48.0712C37.7465 46.993 37.0204 45.9913 36.0974 45.1254C35.2157 44.2729 34.183 43.5913 33.031 43.1178C31.7697 42.5708 30.4484 42.3164 29.1391 42.3164C27.1501 42.3164 25.3468 42.9018 23.8211 43.8172C23.7761 43.8443 23.7313 43.8719 23.6868 43.8999C22.0821 44.9135 20.8026 46.3213 19.9493 48.0279C19.9334 48.0597 19.9178 48.0916 19.9024 48.1236L8.56328 71.7072C7.95354 72.9028 7.34523 74.4813 7.24726 76.3073C7.12942 78.472 7.77775 80.5833 9.1418 82.3194C9.25452 82.4628 9.3729 82.6018 9.49665 82.7358C10.7071 84.0472 12.1597 84.863 13.2803 85.3832C14.6737 86.0421 17.765 87.3128 21.1103 86.1258C24.3998 84.9987 26.0577 82.1987 26.7882 80.7742C26.8195 80.7131 26.8499 80.6516 26.8794 80.5895L27.5003 79.284H30.7314L31.354 80.5864C31.3552 80.589 31.3564 80.5916 31.3577 80.5941C32.0451 82.0398 33.6834 85.0265 37.1277 86.1848C40.4566 87.3347 43.5155 86.1101 44.9881 85.4106C45.03 85.3907 45.0716 85.3704 45.1131 85.3497C46.1858 84.8133 47.6786 83.9401 48.878 82.5294C49.6348 81.6422 50.2334 80.5994 50.5995 79.4442C50.5013 79.4469 50.4001 79.4482 50.2958 79.4482C49.2574 79.4482 48.5075 79.3039 48.046 79.0155C47.5844 78.6982 47.296 78.28 47.1806 77.7608C47.1152 77.3683 47.0745 76.9675 47.0586 76.5585C47.0584 76.5553 47.0583 76.5521 47.0582 76.5489ZM44.1094 76.7224C44.0805 76.2032 43.893 75.583 43.5469 74.8619L32.1245 51.1517C31.9226 50.7479 31.663 50.4018 31.3457 50.1133C31.0573 49.8249 30.7255 49.6086 30.3506 49.4643C29.9756 49.2913 29.5718 49.2047 29.1391 49.2047C28.5334 49.2047 27.9421 49.3778 27.3652 49.7239C26.8171 50.0701 26.3989 50.5316 26.1104 51.1085L14.7313 74.7754C14.7262 74.7851 14.7212 74.7948 14.7162 74.8046C14.3509 75.5136 14.154 76.1385 14.1256 76.6791C14.0967 77.1983 14.2409 77.6598 14.5582 78.0636C14.9044 78.4386 15.4524 78.7992 16.2024 79.1453C17.3561 79.6933 18.2359 79.852 18.8416 79.6212C19.1594 79.5201 19.4699 79.3033 19.7732 78.9708C20.0429 78.6751 20.3069 78.2878 20.5652 77.809C20.5965 77.751 20.6277 77.6916 20.6588 77.631L23.1488 72.3957H35.0734L37.5761 77.631C37.5887 77.6575 37.6013 77.6837 37.6139 77.7097C37.6153 77.7125 37.6167 77.7153 37.618 77.7181C37.874 78.2436 38.1393 78.6661 38.414 78.9855C38.7148 79.3353 39.0268 79.5616 39.35 79.6645C39.9846 79.8952 40.8788 79.7366 42.0326 79.1886C42.7825 78.8136 43.3161 78.4386 43.6334 78.0636C43.9796 77.6598 44.1382 77.2127 44.1094 76.7224ZM29.0958 59.8916L25.8033 66.8143H32.4052L29.0958 59.8916Z" fill="#FFD324"/>
<rect x="126.228" y="38.2625" width="124" height="49" rx="10" transform="rotate(3.16834 126.228 38.2625)" fill="#708254"/>
<rect x="131.776" y="44.5786" width="112.223" height="37" rx="9" transform="rotate(3.16834 131.776 44.5786)" stroke="#FABD32" stroke-width="2"/>
<path d="M155.042 71.2812C154.869 71.2716 154.717 71.2365 154.587 71.1759C154.457 71.1153 154.355 71.0228 154.282 70.8986C154.209 70.761 154.179 70.5725 154.193 70.3328C154.207 70.0799 154.257 69.8957 154.343 69.7803C154.431 69.6516 154.542 69.571 154.677 69.5384C154.813 69.4925 154.961 69.474 155.121 69.4828L156.838 69.5779L157.323 60.8313L158.031 61.4313C157.644 61.4233 157.311 61.4115 157.031 61.396C156.765 61.3813 156.547 61.3425 156.376 61.2797C156.22 61.2176 156.104 61.1311 156.03 61.0201C155.97 60.8966 155.946 60.735 155.957 60.5354C155.978 60.1626 156.078 59.9078 156.26 59.7709C156.441 59.6341 156.791 59.5733 157.311 59.5888L160.788 59.7412C162.04 59.7971 163.073 60.0746 163.887 60.5737C164.714 61.0735 165.315 61.7878 165.691 62.7167C166.08 63.6463 166.237 64.7967 166.161 66.168L165.896 70.9606C165.886 71.1337 165.851 71.292 165.79 71.4355C165.742 71.5664 165.65 71.6681 165.512 71.7406C165.388 71.8138 165.206 71.8438 164.966 71.8306C164.727 71.8173 164.542 71.7737 164.413 71.6998C164.297 71.6266 164.215 71.5286 164.169 71.4058C164.123 71.2698 164.104 71.1352 164.111 71.002L164.382 66.1095C164.436 65.1377 164.34 64.3245 164.096 63.67C163.865 63.0162 163.486 62.5145 162.958 62.1648C162.43 61.8017 161.754 61.5974 160.928 61.5517L159.091 61.45L158.608 70.1766C158.585 70.6026 158.487 70.9244 158.314 71.1419C158.156 71.3468 157.924 71.4407 157.618 71.4238L155.042 71.2812ZM169.678 72.0914C169.439 72.0781 169.261 72.0283 169.146 71.9417C169.03 71.8552 168.95 71.7439 168.904 71.6079C168.872 71.4592 168.861 71.305 168.869 71.1452L169.425 61.1006C169.434 60.9409 169.462 60.7955 169.51 60.6646C169.57 60.5344 169.663 60.4327 169.787 60.3595C169.925 60.287 170.113 60.2573 170.353 60.2706C170.606 60.2846 170.79 60.3415 170.904 60.4413C171.033 60.5286 171.114 60.6399 171.146 60.7752C171.179 60.8973 171.191 61.0448 171.182 61.2179L170.626 71.2625C170.617 71.4222 170.582 71.5672 170.521 71.6974C170.474 71.8283 170.382 71.93 170.244 72.0025C170.12 72.0758 169.931 72.1054 169.678 72.0914ZM176.093 72.3864C175.783 72.209 175.586 72.0245 175.503 71.8329C175.42 71.6414 175.465 71.4302 175.638 71.1994C176.303 70.2881 176.897 69.4397 177.422 68.6541C177.96 67.856 178.436 67.1011 178.849 66.3895C179.276 65.6654 179.657 64.9453 179.99 64.2293C180.324 63.5133 180.618 62.7751 180.874 62.0148L182.155 63.1073C181.794 64.0888 181.381 65.0274 180.918 65.9232C180.454 66.8189 179.929 67.7513 179.341 68.7203C178.753 69.6893 178.066 70.7729 177.278 71.9713C177.189 72.1266 177.082 72.2542 176.956 72.3541C176.844 72.4547 176.714 72.5142 176.566 72.5328C176.431 72.552 176.274 72.5032 176.093 72.3864ZM182.112 63.165L180.918 62.6582L174.928 62.3266C174.595 62.3082 174.352 62.2213 174.201 62.066C174.049 61.9107 173.969 61.666 173.961 61.3317L173.974 58.2076C173.983 58.0345 174.011 57.8892 174.058 57.7716C174.119 57.6414 174.224 57.5471 174.374 57.4886C174.525 57.4168 174.727 57.388 174.98 57.402C175.219 57.4152 175.39 57.4647 175.492 57.5505C175.594 57.6363 175.661 57.7535 175.693 57.9022C175.739 58.0382 175.757 58.1995 175.747 58.3858L175.746 60.5691L180.818 60.8499C181.244 60.8735 181.578 60.9855 181.821 61.1859C182.064 61.3862 182.209 61.6613 182.256 62.0112C182.318 62.3484 182.27 62.733 182.112 63.165ZM185.358 67.2907C185.119 67.2774 184.941 67.2275 184.826 67.141C184.711 67.0412 184.631 66.9233 184.585 66.7872C184.552 66.6518 184.541 66.5043 184.549 66.3445L184.793 61.9513C184.801 61.7915 184.829 61.6462 184.877 61.5152C184.937 61.3851 185.03 61.2834 185.154 61.2101C185.292 61.1376 185.48 61.108 185.72 61.1212C185.973 61.1352 186.157 61.1922 186.271 61.292C186.4 61.3792 186.481 61.4905 186.513 61.6259C186.547 61.7479 186.558 61.8954 186.549 62.0685L186.306 66.4618C186.297 66.6215 186.262 66.7665 186.201 66.8967C186.154 67.0276 186.062 67.1293 185.924 67.2018C185.8 67.2751 185.611 67.3047 185.358 67.2907ZM189.733 73.6823C189.544 73.7252 189.363 73.7419 189.19 73.7323C189.03 73.7234 188.9 73.6562 188.8 73.5305C188.7 73.4181 188.623 73.2335 188.57 72.9769C188.53 72.7343 188.541 72.5479 188.601 72.4178C188.675 72.2883 188.788 72.1877 188.939 72.1159C189.089 72.0442 189.266 71.9872 189.469 71.945L193.644 71.0544C194.269 70.8753 194.783 70.63 195.187 70.3186C195.606 69.9945 195.916 69.5844 196.117 69.0881C196.331 68.5925 196.457 68.0052 196.495 67.3263L196.761 62.5136C196.769 62.3672 196.796 62.2418 196.842 62.1375C196.902 62.0207 196.994 61.9323 197.117 61.8723C197.241 61.7991 197.423 61.7691 197.663 61.7823C197.916 61.7963 198.107 61.847 198.235 61.9342C198.364 62.0215 198.451 62.1398 198.496 62.2892C198.542 62.4253 198.56 62.5798 198.551 62.7529L198.303 66.8655C198.256 67.7175 198.121 68.4712 197.897 69.1265C197.674 69.7819 197.369 70.3459 196.983 70.8186C196.596 71.2912 196.12 71.6922 195.554 72.0214C194.988 72.3507 194.326 72.6145 193.567 72.8128L189.733 73.6823ZM192.25 71.6382C192.082 71.5355 191.91 71.3924 191.733 71.209C191.57 71.013 191.444 70.759 191.354 70.4469L189.408 62.5473C189.364 62.3713 189.34 62.2163 189.334 62.0824C189.328 61.9353 189.376 61.8043 189.476 61.6897C189.575 61.575 189.754 61.4914 190.01 61.4389C190.281 61.3737 190.488 61.3718 190.632 61.4332C190.788 61.4953 190.903 61.6018 190.974 61.7526C191.046 61.9035 191.104 62.0736 191.146 62.2629L193.346 71.3784L192.25 71.6382ZM201.636 73.8604C201.476 73.8515 201.324 73.8164 201.181 73.7551C201.051 73.6945 200.949 73.602 200.876 73.4778C200.803 73.3402 200.773 73.1516 200.787 72.912C200.801 72.6591 200.851 72.4749 200.937 72.3595C201.025 72.2308 201.136 72.1501 201.271 72.1176C201.421 72.0724 201.582 72.0547 201.755 72.0642L204.93 72.24C205.662 72.2805 206.31 72.1628 206.873 71.8868C207.435 71.6108 207.887 71.1818 208.226 70.5996C208.566 70.0042 208.761 69.2538 208.811 68.3485L208.826 68.0889C208.897 66.7976 208.659 65.7962 208.11 65.0848C207.576 64.3742 206.776 63.9894 205.711 63.9304L205.171 63.9006C204.692 63.874 204.246 63.9695 203.834 64.1871C203.435 64.392 203.113 64.6613 202.867 64.9949C202.636 65.3159 202.53 65.6573 202.55 66.0189C202.538 66.4856 202.609 66.8835 202.765 67.2126C202.933 67.5424 203.205 67.8246 203.579 68.0589C203.708 68.1462 203.782 68.2638 203.8 68.4117C203.833 68.547 203.818 68.6864 203.757 68.8299C203.695 68.9734 203.608 69.1021 203.495 69.2161C203.382 69.33 203.258 69.4032 203.122 69.4358C202.945 69.5061 202.719 69.4802 202.446 69.3583C202.186 69.2237 201.924 69.0089 201.66 68.7139C201.396 68.4188 201.175 68.0594 200.999 67.6357C200.836 67.1993 200.762 66.7212 200.778 66.2012C200.798 65.5881 200.929 65.0278 201.171 64.5204C201.426 64.0137 201.764 63.5784 202.185 63.2145C202.606 62.8372 203.089 62.5568 203.634 62.3732C204.192 62.1771 204.791 62.0968 205.43 62.1321L205.749 62.1498C206.841 62.2103 207.754 62.4811 208.488 62.9625C209.236 63.4445 209.786 64.1226 210.138 64.9968C210.505 65.8583 210.654 66.9015 210.586 68.1263L210.565 68.5057C210.495 69.7705 210.197 70.8222 209.669 71.661C209.156 72.5006 208.467 73.1235 207.603 73.5297C206.74 73.9226 205.749 74.0881 204.631 74.0262L201.636 73.8604ZM215.116 74.5465C214.805 74.369 214.608 74.1845 214.525 73.993C214.442 73.8014 214.487 73.5903 214.661 73.3595C215.325 72.4482 215.92 71.5997 216.444 70.8142C216.982 70.016 217.458 69.2612 217.871 68.5496C218.299 67.8254 218.679 67.1054 219.012 66.3894C219.346 65.6734 219.64 64.9352 219.896 64.1748L221.178 65.2673C220.816 66.2489 220.404 67.1875 219.94 68.0832C219.477 68.979 218.951 69.9114 218.363 70.8804C217.775 71.8493 217.088 72.933 216.3 74.1313C216.212 74.2866 216.104 74.4142 215.979 74.5141C215.866 74.6147 215.736 74.6743 215.588 74.6928C215.454 74.7121 215.296 74.6633 215.116 74.5465ZM221.134 65.325L219.941 64.8183L213.95 64.4867C213.617 64.4682 213.375 64.3814 213.223 64.2261C213.071 64.0708 212.992 63.826 212.983 63.4917L212.996 60.3676C213.006 60.1946 213.034 60.0492 213.08 59.9316C213.141 59.8014 213.246 59.7071 213.396 59.6487C213.547 59.5769 213.749 59.548 214.002 59.562C214.242 59.5753 214.413 59.6248 214.515 59.7106C214.617 59.7963 214.684 59.9136 214.716 60.0622C214.761 60.1983 214.779 60.3595 214.769 60.5459L214.768 62.7292L219.84 63.01C220.266 63.0335 220.601 63.1455 220.843 63.3459C221.086 63.5463 221.231 63.8214 221.278 64.1712C221.34 64.5085 221.292 64.8931 221.134 65.325Z" fill="#FAF6EE"/>
<path d="M8.33875 31L9.10847 33.8509C9.63446 35.778 11.3279 37.2947 13.5088 37.7394L16.7288 38.4122L13.5216 39.0964C11.3535 39.564 9.6473 41.0692 9.14698 43.0078L8.39006 45.8701L7.62034 43.0192C7.09436 41.092 5.40094 39.5754 3.22003 39.1306L0 38.4578L3.20721 37.7736C5.37529 37.3061 7.08153 35.8008 7.58186 33.8623L8.33875 31Z" fill="#0B2A2C"/>
<path d="M16.4865 27L16.9036 28.5366C17.1861 29.577 18.1009 30.3842 19.2713 30.6293L21 30.988L19.2713 31.3587C18.1009 31.6099 17.1928 32.423 16.917 33.4634L16.5135 35L16.0964 33.4634C15.8139 32.423 14.8991 31.6158 13.7287 31.3707L12 31.012L13.7287 30.6413C14.8991 30.3901 15.8072 29.577 16.083 28.5366L16.4865 27Z" fill="#0B2A2C"/>
<path d="M163.767 36.1372L163.803 36.1455C164.554 36.3124 165.323 36.3904 166.102 36.3904H171.09C172.869 36.3904 174.612 35.7763 175.867 34.27C175.88 34.2546 175.893 34.2391 175.905 34.2235C177.06 32.7795 177.43 30.9913 177.43 29.2698V17.2866C178.142 17.3475 178.58 17.5106 178.841 17.6656C179.133 17.839 179.429 18.1315 179.679 18.7404C179.943 19.3835 180.149 20.4058 180.149 21.9393V30.3541C180.149 31.0833 180.235 31.8054 180.402 32.516C180.418 32.5859 180.437 32.6552 180.459 32.7237C180.824 33.8928 181.567 34.8136 182.526 35.4528C182.55 35.4691 182.575 35.4851 182.6 35.5007C183.805 36.2539 185.271 36.3904 186.445 36.3904C187.612 36.3904 189.187 36.2547 190.434 35.3621C191.421 34.6731 192.186 33.672 192.488 32.3859L192.497 32.3496C192.664 31.5982 192.742 30.8294 192.742 30.0505V21.8526C192.742 18.3578 192.195 15.2236 190.936 12.5897C189.686 9.91297 187.744 7.84294 185.151 6.48794C182.618 5.14883 179.601 4.59351 176.266 4.62557L176.26 4.62565L168.973 4.7124L168.956 4.71265C167.117 4.74491 165.017 5.08008 163.515 6.45099L163.515 6.45099C161.958 7.87304 161.541 9.88066 161.541 11.6593C161.541 12.8943 161.812 14.3496 162.837 15.5327C162.884 15.5865 162.933 15.6388 162.983 15.6892C163.524 16.2296 164.14 16.6295 164.794 16.9143V23.8729C164.48 23.9108 164.168 23.9632 163.858 24.0302C162.508 24.2899 161.466 25.079 160.767 26.0954C159.912 27.339 159.762 28.8834 159.762 30.0939C159.762 31.2963 159.918 32.8145 160.767 34.049C161.457 35.0521 162.466 35.8311 163.767 36.1372Z" fill="#333335" stroke="#333335" stroke-width="6" stroke-linejoin="round"/>
<path d="M149.739 36.2924C149.764 36.3001 149.788 36.3075 149.812 36.3146C150.893 36.6283 152.357 36.8764 153.769 36.3359C154.842 35.9586 155.768 35.2746 156.429 34.2927C156.872 33.6449 157.238 32.9535 157.522 32.222L157.535 32.1881C157.887 31.25 158.253 30.2553 158.632 29.2041L158.641 29.1796C159.019 28.1041 159.396 27.0008 159.774 25.8698C160.185 24.7235 160.581 23.5633 160.963 22.3892L160.969 22.3687C161.348 21.1754 161.712 20.0106 162.061 18.8742C162.411 17.7379 162.746 16.6299 163.067 15.5503C163.119 15.3765 163.154 15.2007 163.174 15.025C163.495 13.5982 163.56 12.1591 163.252 10.7557C162.839 8.87516 161.825 7.29033 160.233 6.17404C158.643 5.03832 156.724 4.62524 154.77 4.62524H140.456C139.734 4.62524 139.018 4.70315 138.311 4.8554C136.973 5.10316 135.894 5.86119 135.164 6.92329L135.164 6.92329C134.309 8.16692 134.159 9.71129 134.159 10.9218C134.159 12.1242 134.315 13.6424 135.164 14.8769C135.593 15.5 136.137 16.0192 136.781 16.399C135.873 17.0824 135.175 18.0425 134.89 19.2567C134.877 19.3117 134.865 19.3669 134.855 19.4225C134.735 20.1024 134.68 20.7984 134.68 21.5054V37.641C134.68 38.3489 134.736 39.049 134.851 39.7391C134.859 39.7919 134.87 39.8444 134.881 39.8967C135.171 41.2 135.926 42.253 136.978 42.9759C138.212 43.8246 139.73 43.9809 140.933 43.9809C142.1 43.9809 143.675 43.8452 144.922 42.9523C145.95 42.234 146.69 41.1968 146.98 39.9169C147.15 39.1865 147.229 38.4395 147.229 37.6844V35.1233C148.024 35.6637 148.913 36.0294 149.739 36.2924ZM145.985 17.2183H149.378C149.36 17.2724 149.342 17.3265 149.324 17.3806C148.898 18.6305 148.458 19.8805 148.003 21.1308C147.996 21.1498 147.989 21.1688 147.983 21.188C147.736 21.9113 147.485 22.6244 147.229 23.3274V21.5487C147.229 20.8172 147.155 20.0933 146.996 19.3847C146.839 18.5554 146.485 17.8261 145.985 17.2183ZM137.24 16.6383C137.24 16.6383 137.24 16.6383 137.24 16.6383L138.673 18.7225L137.24 16.6383Z" fill="#333335" stroke="#333335" stroke-width="6" stroke-linejoin="round"/>
<path d="M108.199 6.96666L108.199 6.96667C107.344 8.21029 107.194 9.75466 107.194 10.9651C107.194 12.1675 107.35 13.6858 108.199 14.9203C108.921 15.9717 109.975 16.7271 111.278 17.0167C112.018 17.1813 112.772 17.2617 113.534 17.2617H119.165V30.0503C119.165 30.8292 119.243 31.598 119.41 32.3494L119.418 32.3857C119.709 33.6202 120.42 34.6215 121.389 35.3323C121.413 35.3503 121.438 35.368 121.463 35.3852C122.698 36.2339 124.216 36.3902 125.418 36.3902C126.581 36.3902 128.029 36.2564 129.227 35.5232C130.262 34.9052 131.18 33.8967 131.475 32.4601C131.633 31.7674 131.715 31.0641 131.715 30.3539V17.1122C131.879 17.0834 132.043 17.0501 132.205 17.0122C133.499 16.7194 134.545 15.9663 135.264 14.9203L132.792 13.2207L135.264 14.9203C136.113 13.6858 136.269 12.1675 136.269 10.9651C136.269 9.75466 136.119 8.21029 135.264 6.96667L132.792 8.66625L135.264 6.96666C134.545 5.92063 133.499 5.16761 132.205 4.87471C131.475 4.70426 130.728 4.62524 129.973 4.62524H113.49C112.745 4.62524 112.007 4.7082 111.278 4.87019C109.975 5.1598 108.921 5.9152 108.199 6.96666Z" fill="#333335" stroke="#333335" stroke-width="6" stroke-linejoin="round"/>
<path d="M84.3606 4.77983C83.1488 5.04183 81.6013 5.54196 80.5587 6.74492L80.548 6.75734C79.7474 7.69138 79.3053 8.84219 79.3053 10.0977C79.3053 10.1532 79.3068 10.2087 79.3099 10.2641C79.3507 10.9986 79.471 11.7369 79.6551 12.4736L79.6551 12.4736L79.6582 12.4858L81.4599 19.5659L79.6614 29.4914C79.355 31.0496 79.3733 33.0984 80.8648 34.6728C80.8834 34.6924 80.9023 34.7118 80.9214 34.7309C82.3146 36.1241 84.2782 36.3903 85.8187 36.3903C86.9986 36.3903 88.5948 36.2516 89.8483 35.3324C90.1959 35.0775 90.51 34.7837 90.7819 34.4538C91.4729 35.276 92.3939 35.8761 93.503 36.137L93.5394 36.1454C94.28 36.3099 95.0334 36.3903 95.795 36.3903H104.123C105.124 36.3903 106.223 36.3341 107.134 36.0537C107.768 35.8774 108.421 35.5467 108.977 34.9911C109.54 34.428 109.872 33.7648 110.047 33.1222C110.315 32.2142 110.376 31.1239 110.376 30.0938V21.1584C110.376 17.952 109.975 15.074 109.063 12.6166C108.162 10.1588 106.78 8.08096 104.799 6.61616C102.806 5.08987 100.419 4.40845 97.8337 4.40845C95.8945 4.40845 94.0532 4.68801 92.4605 5.4198L92.432 5.43308C91.781 5.74048 91.1692 6.10194 90.6031 6.51961C90.0666 5.8253 89.3682 5.31266 88.5986 4.97064C87.1645 4.33326 85.5649 4.51944 84.3606 4.77983ZM84.3606 4.77983L84.9946 7.71208M84.3606 4.77983L84.9946 7.71208M84.9946 7.71208C86.0645 7.48074 86.8597 7.48074 87.3802 7.71208C87.881 7.93466 88.2346 8.26433 88.441 8.70109L83.2973 14.6215L82.5655 11.746C82.421 11.1676 82.3342 10.6182 82.3053 10.0977C82.3053 9.57722 82.4788 9.11455 82.8258 8.70971C83.2017 8.27596 83.9246 7.94341 84.9946 7.71208ZM93.3591 24.0814L93.7463 21.9781C93.933 21.1547 94.1321 20.3452 94.3437 19.5496C94.5419 18.8992 94.7807 18.3544 95.0465 17.8988C95.0553 17.8836 95.0641 17.8683 95.0727 17.853C95.2419 17.5507 95.4242 17.3772 95.6199 17.2581C95.6464 17.2419 95.6728 17.2253 95.6988 17.2083C95.7587 17.1693 95.987 17.0449 96.5758 17.0449C96.7968 17.0449 96.921 17.0734 96.9762 17.0908C97.0036 17.0994 97.0177 17.1064 97.0226 17.109C97.0273 17.1115 97.029 17.1128 97.0305 17.114C97.0466 17.127 97.0628 17.1399 97.0792 17.1526C97.1009 17.174 97.2584 17.3466 97.41 17.9073C97.4165 17.9314 97.4233 17.9555 97.4305 17.9794C97.6347 18.6664 97.7832 19.7362 97.7832 21.2886V23.7972H95.8384C95.0785 23.7972 94.3283 23.8714 93.5946 24.0301C93.515 24.0454 93.4365 24.0625 93.3591 24.0814Z" fill="#333335" stroke="#333335" stroke-width="6" stroke-linejoin="round"/>
<path d="M70.5839 24.5847C70.55 24.5614 70.5165 24.5373 70.4835 24.5126C69.5446 23.8084 68.7956 22.8163 68.4958 21.5419C68.4828 21.4869 68.4715 21.4317 68.4617 21.3761C68.3417 20.6962 68.2859 20.0002 68.2859 19.2932V10.9218C68.2859 10.2148 68.3417 9.5188 68.4617 8.83891C68.4693 8.79558 68.4779 8.75242 68.4875 8.70947C68.7771 7.40621 69.5325 6.35313 70.5839 5.63025M70.5839 24.5847L70.5839 5.63025M70.5839 24.5847C71.8184 25.4335 73.3367 25.5897 74.539 25.5897C75.7062 25.5897 77.2806 25.4541 78.5278 24.5614C79.5147 23.8724 80.2797 22.8714 80.5823 21.5852L77.6621 20.8981L80.5823 21.5852C80.7554 20.8497 80.8356 20.0973 80.8356 19.3366V10.9651C80.8356 10.2336 80.7614 9.50972 80.6018 8.80114C80.3569 7.50686 79.6334 6.45617 78.6193 5.73095M70.5839 24.5847L78.6193 5.73095M70.5839 5.63025C71.8276 4.77526 73.3719 4.62524 74.5824 4.62524C75.7628 4.62524 77.3596 4.7769 78.6193 5.73095M70.5839 5.63025L78.6193 5.73095" fill="#333335" stroke="#333335" stroke-width="6" stroke-linejoin="round"/>
<path d="M40.8084 32.1918C40.8192 32.2568 40.8322 32.3215 40.8473 32.3857C41.1534 33.6864 41.9324 34.6955 42.9355 35.3852C43.9884 36.1091 45.2568 36.3276 46.3557 36.3776C46.4466 36.386 46.5383 36.3902 46.6304 36.3902H46.934H63.7636H64.0239C64.101 36.3902 64.1779 36.3872 64.2542 36.3814C65.3479 36.3401 66.6729 36.1346 67.7526 35.3617C68.7527 34.6631 69.5273 33.6288 69.784 32.2941C69.9426 31.5603 70.0168 30.8101 70.0168 30.0503V20.6379C70.0168 17.5869 69.4587 14.7866 68.2173 12.3402C66.9831 9.90812 65.1851 7.9814 62.8475 6.63943C60.5033 5.24739 57.7857 4.62524 54.8283 4.62524H47.3677C45.7142 4.62524 43.8738 4.99232 42.4794 6.32034C41.0295 7.70119 40.6375 9.59631 40.6375 11.2688V30.0937C40.6375 30.8016 40.6934 31.5017 40.8084 32.1918ZM57.4671 20.768V23.7972H53.2305V17.2617H54.9584C55.9419 17.2617 56.3928 17.4422 56.552 17.5366C56.5656 17.5446 56.5793 17.5526 56.593 17.5604C56.7497 17.6499 56.9164 17.7943 57.0686 18.1807C57.0781 18.2048 57.088 18.2288 57.0981 18.2527C57.2916 18.7089 57.4671 19.5003 57.4671 20.768Z" fill="#333335" stroke="#333335" stroke-width="6" stroke-linejoin="round"/>
<path d="M195.845 4.77983C194.634 5.04182 193.086 5.54195 192.044 6.74492L192.033 6.75734C191.232 7.69142 190.79 8.84223 190.79 10.0977C190.79 10.1532 190.792 10.2087 190.795 10.2641C190.836 10.9986 190.956 11.7369 191.14 12.4736L191.14 12.4736L191.143 12.4858L192.945 19.5659L191.146 29.4914C190.84 31.0497 190.858 33.0984 192.35 34.6728C192.368 34.6924 192.387 34.7118 192.406 34.7309C193.8 36.1241 195.763 36.3903 197.304 36.3903C198.483 36.3903 200.08 36.2516 201.333 35.3324C201.681 35.0775 201.995 34.7837 202.267 34.4538C202.958 35.276 203.879 35.8761 204.988 36.137L205.024 36.1454C205.765 36.3099 206.518 36.3903 207.28 36.3903H215.608C216.608 36.3903 217.708 36.3341 218.619 36.0537C219.253 35.8774 219.906 35.5467 220.462 34.9911C221.025 34.428 221.357 33.7648 221.532 33.1222C221.8 32.2142 221.861 31.1239 221.861 30.0938V21.1584C221.861 17.952 221.46 15.074 220.548 12.6166C219.647 10.1587 218.265 8.08096 216.284 6.61616C214.29 5.08987 211.904 4.40845 209.319 4.40845C207.379 4.40845 205.538 4.68801 203.945 5.4198L203.917 5.43308C203.266 5.74048 202.654 6.10194 202.088 6.51961C201.551 5.8253 200.853 5.31266 200.083 4.97064C198.649 4.33326 197.05 4.51944 195.845 4.77983ZM195.845 4.77983L196.479 7.71208M195.845 4.77983L196.479 7.71208M196.479 7.71208C197.549 7.48074 198.345 7.48074 198.865 7.71208C199.366 7.93466 199.719 8.26433 199.926 8.70109L194.782 14.6215L194.05 11.746C193.906 11.1676 193.819 10.6182 193.79 10.0977C193.79 9.57722 193.964 9.11455 194.311 8.70971C194.687 8.27596 195.41 7.94341 196.479 7.71208ZM204.844 24.0814L205.231 21.9781C205.418 21.1546 205.617 20.3451 205.829 19.5496C206.027 18.8992 206.266 18.3544 206.531 17.8988C206.54 17.8836 206.549 17.8683 206.558 17.853C206.727 17.5507 206.909 17.3772 207.105 17.2581C207.131 17.2419 207.158 17.2253 207.184 17.2083C207.244 17.1693 207.472 17.0449 208.061 17.0449C208.282 17.0449 208.406 17.0734 208.461 17.0908C208.488 17.0994 208.503 17.1064 208.507 17.109C208.512 17.1115 208.514 17.1128 208.515 17.114C208.531 17.127 208.548 17.1399 208.564 17.1526C208.586 17.174 208.743 17.3466 208.895 17.9073C208.901 17.9314 208.908 17.9555 208.915 17.9794C209.12 18.6664 209.268 19.7362 209.268 21.2886V23.7972H207.323C206.563 23.7972 205.813 23.8714 205.079 24.0301C205 24.0454 204.921 24.0625 204.844 24.0814Z" fill="#333335" stroke="#333335" stroke-width="6" stroke-linejoin="round"/>
<path d="M47.1546 33.3904C46.0846 33.3904 45.3183 33.2313 44.8557 32.9132C44.393 32.5952 44.1038 32.1903 43.9882 31.6987C43.9014 31.1782 43.858 30.6433 43.858 30.0939V11.2689C43.858 9.99659 44.1617 9.07125 44.7689 8.49292C45.3762 7.91458 46.316 7.62541 47.5883 7.62541H55.0489C57.5936 7.62541 59.7623 8.16037 61.5552 9.2303C63.377 10.2713 64.7794 11.7605 65.7626 13.698C66.7458 15.6354 67.2374 17.9487 67.2374 20.638V30.0505C67.2374 30.6288 67.1795 31.1782 67.0639 31.6987C66.9771 32.1903 66.7024 32.5952 66.2397 32.9132C65.806 33.2313 65.0541 33.3904 63.9842 33.3904C62.9432 33.3904 62.1914 33.2458 61.7287 32.9566C61.266 32.6675 60.9769 32.2915 60.8612 31.8289C60.7455 31.3373 60.6877 30.8457 60.6877 30.3541V20.7681C60.6877 19.2645 60.4853 18.0355 60.0804 17.0812C59.7045 16.127 59.1117 15.4185 58.302 14.9558C57.5213 14.4932 56.4803 14.2618 55.179 14.2618H50.4511V30.0505C50.4511 30.6288 50.3933 31.1782 50.2776 31.6987C50.1619 32.1903 49.8728 32.5952 49.4101 32.9132C48.9763 33.2313 48.2245 33.3904 47.1546 33.3904ZM46.8509 33.3904L46.8943 26.7973H64.2011L64.2445 33.3904H46.8509ZM74.7596 22.5899C73.7186 22.5899 72.9668 22.4309 72.5041 22.1128C72.0414 21.7658 71.7522 21.3465 71.6366 20.8549C71.5498 20.3633 71.5064 19.8428 71.5064 19.2934V10.9219C71.5064 10.3725 71.5498 9.85201 71.6366 9.36042C71.7522 8.83992 72.0414 8.42062 72.5041 8.10254C72.9668 7.78445 73.733 7.62541 74.803 7.62541C75.8729 7.62541 76.6247 7.79891 77.0585 8.14591C77.5212 8.464 77.7959 8.88329 77.8826 9.4038C77.9983 9.89539 78.0561 10.4159 78.0561 10.9653V19.3368C78.0561 19.8862 77.9983 20.4067 77.8826 20.8983C77.767 21.3899 77.4778 21.7947 77.0151 22.1128C76.5814 22.4309 75.8295 22.5899 74.7596 22.5899ZM107.597 21.1585V30.0939C107.597 31.1059 107.524 31.8433 107.38 32.306C107.264 32.7687 106.975 33.0578 106.512 33.1735C106.079 33.3181 105.356 33.3904 104.344 33.3904H96.0156C95.4661 33.3904 94.9312 33.3325 94.4107 33.2169C93.9191 33.1012 93.5143 32.8265 93.1962 32.3927C92.8781 31.9301 92.719 31.1638 92.719 30.0939C92.719 29.0239 92.8781 28.2576 93.1962 27.795C93.5143 27.3323 93.9191 27.0576 94.4107 26.9708C94.9312 26.8552 95.4806 26.7973 96.0589 26.7973H101.004V21.2886C101.004 19.5826 100.845 18.1945 100.527 17.1246C100.237 16.0547 99.7748 15.2739 99.1386 14.7823C98.5313 14.2908 97.7506 14.045 96.7963 14.045C95.7842 14.045 94.9456 14.2618 94.2806 14.6956C93.6155 15.1004 93.0805 15.6643 92.6757 16.3872C92.2708 17.0812 91.9383 17.862 91.678 18.7295C91.4467 19.597 91.2298 20.479 91.0274 21.3754L89.4225 30.0939C89.3068 30.6433 89.1912 31.1782 89.0755 31.6987C88.9888 32.1903 88.7285 32.5952 88.2947 32.9132C87.861 33.2313 87.1092 33.3904 86.0392 33.3904C84.7091 33.3904 83.7837 33.1301 83.2632 32.6096C82.7427 32.0602 82.5981 31.2072 82.8295 30.0505L85.1717 17.1246L87.4706 19.6838C87.9333 18.556 88.3381 17.4138 88.6851 16.2571C89.0321 15.0715 89.3936 13.9582 89.7695 12.9172C90.1743 11.8473 90.7093 10.9075 91.3744 10.0978C92.0395 9.28813 92.8925 8.6375 93.9335 8.14591C95.0035 7.65432 96.377 7.40853 98.0542 7.40853C100.107 7.40853 101.828 7.94349 103.216 9.01342C104.633 10.0544 105.717 11.6015 106.469 13.6546C107.221 15.6788 107.597 18.1801 107.597 21.1585ZM85.8657 23.8478L82.7861 11.7461C82.6415 11.1677 82.5547 10.6183 82.5258 10.0978C82.5258 9.5773 82.6993 9.11463 83.0463 8.70979C83.4222 8.27604 84.1452 7.94349 85.2151 7.71216C86.285 7.48082 87.0802 7.48082 87.6007 7.71216C88.1212 7.94349 88.4827 8.2905 88.6851 8.75317C88.8875 9.18692 89.0466 9.64959 89.1623 10.1412L91.0708 18.6861L85.8657 23.8478ZM113.754 14.2618C113.205 14.2618 112.67 14.204 112.149 14.0883C111.629 13.9727 111.209 13.6835 110.891 13.2208C110.573 12.7582 110.414 12.0063 110.414 10.9653C110.414 9.89539 110.573 9.12909 110.891 8.66642C111.209 8.20375 111.629 7.91458 112.149 7.79891C112.67 7.68324 113.19 7.62541 113.711 7.62541H130.193C130.743 7.62541 131.263 7.68324 131.755 7.79891C132.275 7.91458 132.695 8.20375 133.013 8.66642C133.331 9.12909 133.49 9.89539 133.49 10.9653C133.49 12.0063 133.331 12.7582 133.013 13.2208C132.695 13.6835 132.275 13.9727 131.755 14.0883C131.263 14.204 130.728 14.2618 130.15 14.2618H113.754ZM125.639 33.3904C124.598 33.3904 123.846 33.2313 123.383 32.9132C122.95 32.5952 122.675 32.1903 122.559 31.6987C122.444 31.1782 122.386 30.6288 122.386 30.0505V12.657L128.935 13.2208V30.3541C128.935 30.8457 128.878 31.3373 128.762 31.8289C128.675 32.2915 128.386 32.6675 127.894 32.9566C127.432 33.2458 126.68 33.3904 125.639 33.3904ZM150.869 33.4338C149.597 33.0289 148.759 32.5084 148.354 31.8722C147.978 31.2072 147.992 30.3541 148.397 29.3131C148.831 28.2143 149.265 27.072 149.698 25.8864C150.161 24.6719 150.609 23.4285 151.043 22.1562C151.506 20.8838 151.954 19.6115 152.388 18.3391C152.821 17.0379 153.241 15.7655 153.646 14.5221C154.05 13.2497 154.441 12.0208 154.817 10.8352L160.412 14.6956C160.094 15.7655 159.761 16.8644 159.414 17.9921C159.067 19.1199 158.706 20.2766 158.33 21.4622C157.954 22.6188 157.564 23.761 157.159 24.8888C156.783 26.0166 156.407 27.1154 156.031 28.1853C155.655 29.2263 155.294 30.2095 154.947 31.1349C154.744 31.6554 154.484 32.147 154.166 32.6096C153.877 33.0434 153.472 33.347 152.952 33.5205C152.46 33.7229 151.766 33.694 150.869 33.4338ZM141.153 40.9811C140.112 40.9811 139.361 40.822 138.898 40.5039C138.435 40.1859 138.146 39.7666 138.03 39.2461C137.944 38.7255 137.9 38.1906 137.9 37.6412V21.5055C137.9 20.9561 137.944 20.4356 138.03 19.944C138.146 19.4524 138.435 19.0476 138.898 18.7295C139.361 18.4114 140.127 18.2524 141.197 18.2524C142.267 18.2524 143.019 18.4114 143.452 18.7295C143.915 19.0476 144.19 19.4669 144.276 19.9874C144.392 20.479 144.45 20.9995 144.45 21.5489V37.6845C144.45 38.234 144.392 38.7545 144.276 39.2461C144.161 39.7666 143.872 40.1859 143.409 40.5039C142.975 40.822 142.223 40.9811 141.153 40.9811ZM160.152 15.4763L154.556 14.2185H152.171H140.72C140.17 14.2185 139.635 14.1606 139.115 14.045C138.594 13.9293 138.175 13.6401 137.857 13.1775C137.539 12.7148 137.38 11.9629 137.38 10.9219C137.38 9.85201 137.539 9.08571 137.857 8.62304C138.175 8.16037 138.594 7.88566 139.115 7.79891C139.635 7.68324 140.156 7.62541 140.676 7.62541H154.99C156.552 7.62541 157.795 7.95795 158.72 8.62304C159.675 9.28813 160.282 10.2135 160.542 11.3991C160.802 12.5847 160.672 13.9438 160.152 15.4763ZM166.323 33.3904C165.744 33.3904 165.195 33.3325 164.674 33.2169C164.183 33.1012 163.778 32.812 163.46 32.3494C163.142 31.8867 162.983 31.1349 162.983 30.0939C162.983 29.0239 163.142 28.2576 163.46 27.795C163.778 27.3323 164.183 27.0576 164.674 26.9708C165.195 26.8552 165.73 26.7973 166.279 26.7973H168.014V12.0497L172.135 14.1751C171.123 14.2908 170.169 14.392 169.272 14.4787C168.405 14.5366 167.624 14.5076 166.93 14.392C166.265 14.2474 165.73 13.9727 165.325 13.5678C164.949 13.1341 164.761 12.4979 164.761 11.6593C164.761 10.2713 165.094 9.27367 165.759 8.66642C166.424 8.05916 167.581 7.74108 169.229 7.71216L176.516 7.62541C179.523 7.59649 182.01 8.10254 183.976 9.14355C185.972 10.1846 187.461 11.7605 188.444 13.8715C189.456 15.9824 189.962 18.6428 189.962 21.8525V30.0505C189.962 30.6288 189.904 31.1782 189.789 31.6987C189.673 32.1903 189.384 32.5952 188.921 32.9132C188.487 33.2313 187.736 33.3904 186.666 33.3904C185.625 33.3904 184.873 33.2458 184.41 32.9566C183.976 32.6675 183.687 32.2915 183.543 31.8289C183.427 31.3373 183.369 30.8457 183.369 30.3541V21.9393C183.369 20.1753 183.138 18.7295 182.675 17.6017C182.212 16.474 181.518 15.6354 180.593 15.086C179.668 14.5366 178.482 14.2618 177.036 14.2618H174.651V29.2697C174.651 30.5999 174.362 31.6264 173.783 32.3494C173.205 33.0434 172.381 33.3904 171.311 33.3904H166.323ZM219.082 21.1585V30.0939C219.082 31.1059 219.009 31.8433 218.865 32.306C218.749 32.7687 218.46 33.0578 217.997 33.1735C217.564 33.3181 216.841 33.3904 215.829 33.3904H207.5C206.951 33.3904 206.416 33.3325 205.896 33.2169C205.404 33.1012 204.999 32.8265 204.681 32.3927C204.363 31.9301 204.204 31.1638 204.204 30.0939C204.204 29.0239 204.363 28.2576 204.681 27.795C204.999 27.3323 205.404 27.0576 205.896 26.9708C206.416 26.8552 206.965 26.7973 207.544 26.7973H212.489V21.2886C212.489 19.5826 212.33 18.1945 212.011 17.1246C211.722 16.0547 211.26 15.2739 210.623 14.7823C210.016 14.2908 209.235 14.045 208.281 14.045C207.269 14.045 206.431 14.2618 205.765 14.6956C205.1 15.1004 204.565 15.6643 204.161 16.3872C203.756 17.0812 203.423 17.862 203.163 18.7295C202.932 19.597 202.715 20.479 202.512 21.3754L200.907 30.0939C200.792 30.6433 200.676 31.1782 200.56 31.6987C200.474 32.1903 200.213 32.5952 199.78 32.9132C199.346 33.2313 198.594 33.3904 197.524 33.3904C196.194 33.3904 195.269 33.1301 194.748 32.6096C194.228 32.0602 194.083 31.2072 194.314 30.0505L196.657 17.1246L198.955 19.6838C199.418 18.556 199.823 17.4138 200.17 16.2571C200.517 15.0715 200.878 13.9582 201.254 12.9172C201.659 11.8473 202.194 10.9075 202.859 10.0978C203.524 9.28813 204.377 8.6375 205.418 8.14591C206.488 7.65432 207.862 7.40853 209.539 7.40853C211.592 7.40853 213.313 7.94349 214.701 9.01342C216.118 10.0544 217.202 11.6015 217.954 13.6546C218.706 15.6788 219.082 18.1801 219.082 21.1585ZM197.351 23.8478L194.271 11.7461C194.126 11.1677 194.04 10.6183 194.011 10.0978C194.011 9.5773 194.184 9.11463 194.531 8.70979C194.907 8.27604 195.63 7.94349 196.7 7.71216C197.77 7.48082 198.565 7.48082 199.086 7.71216C199.606 7.94349 199.968 8.2905 200.17 8.75317C200.372 9.18692 200.531 9.64959 200.647 10.1412L202.556 18.6861L197.351 23.8478Z" fill="white"/>
</svg>
