<svg width="135" height="139" viewBox="0 0 135 139" fill="none" xmlns="http://www.w3.org/2000/svg">
<path d="M85.0332 99.4551C79.8289 104.058 72.6676 106.392 65.7502 105.728C64.0752 100.591 58.5194 97.2628 54.1448 94.0868C48.6918 90.1323 43.7651 85.3612 40.2437 79.6144C36.7304 73.8792 34.6809 67.1278 35.147 60.4C35.7662 51.518 40.997 43.0788 48.663 38.572C56.3407 34.0571 66.2581 33.5929 74.3139 37.3717C82.3698 41.1505 88.3682 49.0651 89.8037 57.8569C92.0965 71.8328 78.8493 93.023 85.0134 99.4515L85.0332 99.4551Z" fill="#FFD324"/>
<path d="M65.8579 105.983C65.3742 106.961 65.3532 108.155 65.7792 109.144C66.2134 110.144 67.1061 110.93 68.1444 111.251C67.5009 112.149 67.3612 113.547 67.6818 114.609C68.0024 115.671 68.8341 116.568 69.8697 116.96C68.9819 117.906 68.6656 119.375 69.2334 120.543C69.8012 121.711 71.1403 122.465 72.4313 122.349C78.8781 121.761 85.4288 119.972 91.2442 117.15C92.3336 116.619 92.6093 115.091 92.4165 113.889C92.2237 112.686 91.3928 111.614 90.2876 111.097C90.9922 110.087 91.3621 108.945 90.9602 107.767C90.5664 106.599 89.5715 105.641 88.3863 105.284C88.5868 104.173 88.2317 102.962 87.6713 101.98C87.1074 101.018 86.1795 100.256 85.1286 99.8922" stroke="#0C1129" stroke-width="2" stroke-linecap="round" stroke-linejoin="round"/>
<path d="M73.4208 105.227C73.1133 99.8343 71.9952 94.4494 69.7237 89.5529C67.4522 84.6565 63.9524 80.2657 59.424 77.318C58.499 76.7106 57.492 76.1602 56.3874 76.094C55.2828 76.0279 54.079 76.5687 53.6954 77.616C53.2858 78.7508 54.0224 80.0617 55.07 80.6707C56.1059 81.2879 57.3692 81.3826 58.5965 81.4504C62.1275 81.6368 65.7269 81.6716 69.1547 80.7843C72.5824 79.897 75.8727 78.0117 77.8018 75.0409C78.5666 73.8678 79.0612 72.2054 78.1239 71.1553C77.1784 70.0936 75.3819 70.4558 74.2678 71.3508C72.7412 72.6016 71.9874 74.5655 71.5887 76.491C70.6086 81.1286 71.2183 85.9813 72.6364 90.4984C74.0661 95.0074 76.297 99.2205 78.6135 103.357" stroke="#0C1129" stroke-width="2" stroke-linecap="round" stroke-linejoin="round"/>
<path d="M68.1642 111.254C68.1642 111.254 78.0914 111.304 88.426 105.291" stroke="#0C1129" stroke-width="2" stroke-linecap="round" stroke-linejoin="round"/>
<path d="M69.8895 116.964C69.8895 116.964 75.6416 119.374 90.3155 111.113" stroke="#0C1129" stroke-width="2" stroke-linecap="round" stroke-linejoin="round"/>
<path d="M54.1583 26.3393C53.2301 22.6276 52.3018 18.9159 51.3852 15.196" stroke="#0C1129" stroke-width="2" stroke-linecap="round" stroke-linejoin="round"/>
<path d="M34.6957 39.8523C31.9653 38.2943 29.2348 36.7364 26.4926 35.1865" stroke="#0C1129" stroke-width="2" stroke-linecap="round" stroke-linejoin="round"/>
<path d="M82.026 28.1818C83.974 25.7881 85.9138 23.3826 87.85 20.9969" stroke="#0C1129" stroke-width="2" stroke-linecap="round" stroke-linejoin="round"/>
<path d="M97.2551 52.666C100.833 51.9696 104.41 51.2733 107.988 50.5769" stroke="#0C1129" stroke-width="2" stroke-linecap="round" stroke-linejoin="round"/>
<path d="M26.968 68.9423C23.7242 71.1944 20.4805 73.4466 17.2367 75.6987" stroke="#0C1129" stroke-width="2" stroke-linecap="round" stroke-linejoin="round"/>
<path d="M39.6004 55.1907C39.3361 56.4849 39.2986 58.0556 40.3537 58.8503C41.3925 59.6216 42.8634 59.1904 43.9905 58.5641C47.8809 56.4184 50.647 52.3284 51.1685 47.9052C51.3505 46.4424 51.2353 43.9018 49.5771 43.2133C48.0146 42.5627 46.4272 44.1508 45.3817 45.1197C42.4738 47.7807 40.3859 51.3477 39.5887 55.1988L39.6004 55.1907Z" stroke="#0C1129" stroke-width="2" stroke-linecap="round" stroke-linejoin="round"/>
<path d="M41.0309 68.9496C43.6026 67.7542 42.4111 61.4136 39.2464 63.4547C36.8708 64.9826 37.9772 70.3756 41.0309 68.9496Z" stroke="#0C1129" stroke-width="2" stroke-linecap="round" stroke-linejoin="round"/>
</svg>
