<svg width="14" height="14" viewBox="0 0 14 14" fill="none" xmlns="http://www.w3.org/2000/svg">
<g clip-path="url(#clip0_403_32)">
<path d="M6.5 12.5C9.81371 12.5 12.5 9.81371 12.5 6.5C12.5 3.18629 9.81371 0.5 6.5 0.5C3.18629 0.5 0.5 3.18629 0.5 6.5C0.5 9.81371 3.18629 12.5 6.5 12.5Z" stroke="white" stroke-linecap="round" stroke-linejoin="round"/>
<path d="M10.7402 10.7402L13.5002 13.5002" stroke="white" stroke-linecap="round" stroke-linejoin="round"/>
<path d="M3.44969 6.8286C3.08188 6.76461 3.08188 6.23661 3.44969 6.17262C4.7822 5.9408 5.84202 4.92586 6.13124 3.60463L6.15341 3.50335C6.23299 3.13984 6.75058 3.13758 6.83333 3.50038L6.86025 3.61841C7.16018 4.9334 8.22029 5.93977 9.5491 6.17095C9.91878 6.23526 9.91878 6.76596 9.5491 6.83028C8.22029 7.06145 7.16018 8.06782 6.86025 9.38282L6.83333 9.50084C6.75058 9.86365 6.23299 9.86139 6.15341 9.49787L6.13124 9.3966C5.84202 8.07536 4.7822 7.06042 3.44969 6.8286Z" stroke="white" stroke-linecap="round" stroke-linejoin="round"/>
</g>
<defs>
<clipPath id="clip0_403_32">
<rect width="14" height="14" fill="white"/>
</clipPath>
</defs>
</svg>
