<svg width="251" height="95" fill="none" xmlns="http://www.w3.org/2000/svg"><mask id="a" maskUnits="userSpaceOnUse" x="63.319" y="43" width="57" height="39" fill="#000"><path fill="#fff" d="M63.319 43h57v39h-57z"/><path d="M72.89 66.889c-.405 0-.825-.044-1.258-.13-.434-.116-.796-.376-1.085-.781-.289-.434-.433-1.142-.433-2.125 0-.984.144-1.678.433-2.083.319-.404.694-.65 1.128-.737a4.879 4.879 0 011.258-.173h10.15c.434 0 .867.057 1.301.173.434.087.795.347 1.085.78.289.406.433 1.085.433 2.04 0 .983-.144 1.691-.433 2.125-.26.405-.608.665-1.041.78-.434.087-.882.13-1.345.13H72.89zm34.185 8.501c-1.012 0-1.764-.144-2.255-.433-.463-.29-.752-.665-.868-1.128a6.047 6.047 0 01-.173-1.475V63.94c0-1.301-.13-2.429-.391-3.383-.26-.983-.65-1.793-1.171-2.429-.491-.636-1.142-1.099-1.952-1.388-.78-.318-1.706-.477-2.776-.477h-3.86c-.55 0-1.085-.058-1.605-.174-.52-.115-.94-.404-1.258-.867-.318-.463-.477-1.215-.477-2.256 0-1.07.159-1.836.477-2.299.318-.462.723-.751 1.215-.867a7.374 7.374 0 011.605-.174h3.773c2.198 0 4.106.304 5.726.911 1.648.579 3.007 1.46 4.077 2.646 1.07 1.157 1.865 2.632 2.386 4.424.549 1.764.824 3.846.824 6.246v8.199a7.56 7.56 0 01-.174 1.648c-.087.491-.361.896-.824 1.214-.463.318-1.229.477-2.299.477zm-13.88 0a7.38 7.38 0 01-1.605-.173c-.52-.087-.94-.362-1.258-.824-.318-.492-.477-1.258-.477-2.3 0-1.07.16-1.82.477-2.255.318-.462.738-.751 1.258-.867a7.183 7.183 0 011.562-.174h17.567c.578 0 1.113.058 1.605.174.491.115.896.405 1.214.867.318.434.477 1.186.477 2.256 0 1.04-.159 1.807-.477 2.299-.318.462-.723.737-1.214.824a7.218 7.218 0 01-1.649.173h-17.48z"/></mask><path d="M72.89 66.889c-.405 0-.825-.044-1.258-.13-.434-.116-.796-.376-1.085-.781-.289-.434-.433-1.142-.433-2.125 0-.984.144-1.678.433-2.083.319-.404.694-.65 1.128-.737a4.879 4.879 0 011.258-.173h10.15c.434 0 .867.057 1.301.173.434.087.795.347 1.085.78.289.406.433 1.085.433 2.04 0 .983-.144 1.691-.433 2.125-.26.405-.608.665-1.041.78-.434.087-.882.13-1.345.13H72.89zm34.185 8.501c-1.012 0-1.764-.144-2.255-.433-.463-.29-.752-.665-.868-1.128a6.047 6.047 0 01-.173-1.475V63.94c0-1.301-.13-2.429-.391-3.383-.26-.983-.65-1.793-1.171-2.429-.491-.636-1.142-1.099-1.952-1.388-.78-.318-1.706-.477-2.776-.477h-3.86c-.55 0-1.085-.058-1.605-.174-.52-.115-.94-.404-1.258-.867-.318-.463-.477-1.215-.477-2.256 0-1.07.159-1.836.477-2.299.318-.462.723-.751 1.215-.867a7.374 7.374 0 011.605-.174h3.773c2.198 0 4.106.304 5.726.911 1.648.579 3.007 1.46 4.077 2.646 1.07 1.157 1.865 2.632 2.386 4.424.549 1.764.824 3.846.824 6.246v8.199a7.56 7.56 0 01-.174 1.648c-.087.491-.361.896-.824 1.214-.463.318-1.229.477-2.299.477zm-13.88 0a7.38 7.38 0 01-1.605-.173c-.52-.087-.94-.362-1.258-.824-.318-.492-.477-1.258-.477-2.3 0-1.07.16-1.82.477-2.255.318-.462.738-.751 1.258-.867a7.183 7.183 0 011.562-.174h17.567c.578 0 1.113.058 1.605.174.491.115.896.405 1.214.867.318.434.477 1.186.477 2.256 0 1.04-.159 1.807-.477 2.299-.318.462-.723.737-1.214.824a7.218 7.218 0 01-1.649.173h-17.48z" fill="#fff"/><path d="M71.632 66.759l-1.546 5.798c.122.032.245.06.369.086l1.177-5.884zm-1.085-.781l-4.992 3.328a6 6 0 00.11.16l4.882-3.488zm0-4.207l-4.718-3.708a5.976 5.976 0 00-.164.22l4.882 3.487zm1.128-.738l1.177 5.884c.124-.025.247-.053.37-.086l-1.547-5.798zm12.71 0l-1.547 5.798c.122.033.245.061.37.086l1.176-5.884zm1.084.78l-4.993 3.33c.035.053.072.106.11.159l4.883-3.488zm0 4.165l-4.993-3.329a5.72 5.72 0 00-.055.084l5.047 3.245zm-1.041.78l1.176 5.885a5.99 5.99 0 00.37-.086l-1.547-5.798zm-11.538-5.87c.024 0 0 .003-.081-.013l-2.354 11.768c.786.157 1.6.246 2.435.246v-12zm.288.073c.482.128.948.347 1.364.646.408.294.696.615.888.883l-9.766 6.976c1.006 1.408 2.493 2.576 4.422 3.09l3.092-11.595zm2.362 1.688c.418.627.534 1.14.561 1.272.032.153.013.153.013-.069h-12c0 1.276.13 3.49 1.44 5.454l9.986-6.657zm.574 1.203c0-.225.02-.21-.017-.033-.031.147-.167.74-.667 1.44l-9.766-6.976c-1.443 2.02-1.55 4.358-1.55 5.57h12zm-.848 1.626a3.82 3.82 0 01-.914.827c-.443.29-.954.503-1.5.612L70.498 55.15c-2.06.412-3.62 1.58-4.669 2.914l9.437 7.415zM73.22 66.83c-.016.004-.118.03-.288.03V54.858c-.98 0-1.92.14-2.804.376l3.092 11.596zm-.288.03h10.15V54.858h-10.15V66.86zm10.15 0a.978.978 0 01-.245-.03l3.092-11.596a11.029 11.029 0 00-2.847-.376V66.86zm.124.056a4.482 4.482 0 01-1.733-.754 4.02 4.02 0 01-.998-1.02l9.985-6.658c-1.002-1.503-2.63-2.882-4.9-3.336l-2.354 11.768zm-2.621-1.615c-.485-.679-.626-1.258-.661-1.426-.041-.19-.023-.224-.023-.023h12c0-1.23-.121-3.526-1.55-5.527l-9.766 6.976zm-.684-1.45c0 .222-.019.222.012.07.027-.133.144-.646.562-1.273l9.985 6.657c1.31-1.964 1.442-4.178 1.442-5.453H79.902zm.519-1.119c.214-.332.535-.714.992-1.057a4.31 4.31 0 011.468-.715l3.093 11.596c1.987-.53 3.537-1.77 4.542-3.334l-10.095-6.49zm2.83-1.858a.866.866 0 01-.168.013V72.89c.84 0 1.683-.079 2.521-.246l-2.353-11.768zm-.168.013H72.89V72.89h10.193v-12zm21.737 14.069l-3.181 5.088.138.084 3.043-5.172zm-.868-1.128l5.822-1.455-5.822 1.455zm-.564-13.273l-5.8 1.536.011.043 5.789-1.579zm-1.171-2.429l-4.748 3.669c.034.044.069.088.104.13l4.644-3.799zm-1.952-1.388l-2.264 5.557c.081.033.163.064.246.094l2.018-5.651zm-9.499-1.518l-4.945 3.4 4.945-3.4zm0-4.555l-4.945-3.4 4.945 3.4zm1.215-.867l-1.302-5.858a5.892 5.892 0 00-.073.017l1.375 5.84zm11.104.737l-2.107 5.619c.04.015.08.03.12.043l1.987-5.662zm4.077 2.646l-4.455 4.02.05.055 4.405-4.075zm2.386 4.424l-5.763 1.673.034.112 5.729-1.785zm.65 16.093l-5.857-1.302c-.02.086-.037.172-.052.259l5.909 1.043zm-.824 1.214l-3.399-4.944 3.399 4.944zm-17.784.304l1.302-5.858a6.023 6.023 0 00-.315-.061l-.987 5.919zm-1.258-.824l-5.038 3.26.094.14 4.944-3.4zm0-4.555l4.84 3.549.105-.15-4.945-3.399zm1.258-.867l-1.302-5.858 1.302 5.858zm20.734 0l1.374-5.841-1.374 5.84zm1.214.867l-4.945 3.4.106.149 4.839-3.549zm0 4.555l4.945 3.4c.032-.047.063-.093.093-.14l-5.038-3.26zm-1.214.824l-1.043-5.91c-.111.02-.222.043-.332.069l1.375 5.84zm-5.249-5.827c-.239 0-.284-.019-.19 0 .082.015.469.096.977.394l-6.085 10.345c1.88 1.106 3.932 1.262 5.298 1.262V69.39zm.925.478c.285.178.66.474 1.012.931.361.47.621 1.01.762 1.575l-11.643 2.91c.547 2.19 1.933 3.777 3.508 4.761L108 69.868zm1.774 2.506c.006.026.008.04.007.038 0-.002-.002-.02-.002-.058h-12c0 .967.107 1.95.352 2.93l11.643-2.91zm.005-.02V63.94h-12v8.415h12zm0-8.415c0-1.677-.165-3.36-.602-4.962l-11.578 3.158c.084.307.18.879.18 1.804h12zm-.59-4.919c-.429-1.62-1.151-3.255-2.328-4.693l-9.288 7.6c-.135-.166-.077-.181.015.165l11.601-3.072zm-2.224-4.562c-1.242-1.608-2.869-2.723-4.682-3.37L98.247 62.39a1.544 1.544 0 01-.364-.197 1.976 1.976 0 01-.414-.397l9.496-7.338zm-4.436-3.276c-1.664-.678-3.394-.92-5.04-.92v12c.495 0 .615.076.512.034l4.528-11.114zm-5.04-.92h-3.86v12h3.86v-12zm-3.86 0c-.125 0-.223-.014-.303-.031l-2.604 11.715c.961.214 1.933.316 2.907.316v-12zm-.303-.031c.458.102.944.3 1.4.614.451.311.772.666.985.976l-9.89 6.8c1.128 1.64 2.815 2.861 4.901 3.325l2.604-11.715zm2.385 1.59c.42.613.54 1.117.568 1.247.031.147.01.137.01-.103h-12c0 1.364.153 3.649 1.532 5.655l9.89-6.799zm.579 1.144c0-.263.021-.291-.006-.157-.024.111-.14.627-.573 1.258l-9.89-6.8c-1.392 2.026-1.533 4.348-1.533 5.7H96.29zm-.58 1.1c-.185.272-.48.61-.914.92a4.112 4.112 0 01-1.441.655l-2.749-11.682c-2.11.496-3.723 1.765-4.785 3.309l9.89 6.799zm-2.428 1.592c.08-.018.178-.031.303-.031V43.625c-.973 0-1.945.103-2.906.316l2.603 11.716zm.303-.031h3.774V43.625h-3.773v12.001zm3.774 0c1.665 0 2.828.232 3.619.529l4.214-11.237c-2.448-.918-5.102-1.293-7.833-1.293v12.001zm3.739.572c.792.278 1.273.632 1.609 1.004l8.91-8.04c-1.804-2-4.041-3.41-6.546-4.288l-3.973 11.324zm1.659 1.059c.33.357.72.96 1.028 2.023l11.525-3.346c-.732-2.524-1.933-4.87-3.743-6.826l-8.81 8.149zm1.062 2.134c.324 1.043.552 2.496.552 4.462h12.001c0-2.835-.321-5.546-1.095-8.031l-11.458 3.569zm.552 4.462v8.197h12.001v-8.197h-12.001zm0 8.197c0 .178-.017.288-.03.347L116.056 75c.218-.982.316-1.97.316-2.95h-12.001zm-.082.606a4.29 4.29 0 01.673-1.654c.339-.5.718-.831 1.013-1.033l6.799 9.889c1.607-1.105 2.931-2.836 3.333-5.117l-11.818-2.085zm1.686-2.688c.63-.433 1.146-.55 1.258-.572.134-.028.105-.006-.158-.006v12c1.351 0 3.674-.14 5.699-1.532l-6.799-9.89zm-12.78-.578c-.125 0-.223-.013-.303-.03l-2.603 11.715c.96.213 1.932.316 2.906.316V69.39zm-.618-.092a4.186 4.186 0 011.597.629c.516.338.873.732 1.103 1.066l-9.89 6.8c1.176 1.708 2.978 2.97 5.217 3.343l1.973-11.838zm2.793 1.835c.355.547.456.984.48 1.097.026.124.006.1.006-.136H83.855c0 1.414.172 3.6 1.44 5.559l10.075-6.52zm.486.96c0-.266.022-.28-.01-.124-.028.127-.163.72-.675 1.418l-9.678-7.097c-1.52 2.073-1.638 4.514-1.638 5.804h12zm-.579 1.145c-.213.31-.534.665-.985.976a4.013 4.013 0 01-1.4.615l-2.603-11.716c-2.087.464-3.774 1.686-4.901 3.326l9.889 6.799zm-2.385 1.59c.104-.023.188-.03.26-.03V62.797c-.97 0-1.926.108-2.864.316l2.604 11.716zm.26-.03h17.567V62.797H93.152v12zm17.567 0c.181 0 .249.018.23.014l2.749-11.682a12.993 12.993 0 00-2.979-.333v12zm.23.014a4.12 4.12 0 01-1.441-.655 3.78 3.78 0 01-.915-.92l9.89-6.798c-1.061-1.544-2.675-2.813-4.785-3.31l-2.749 11.683zm-2.25-1.425c-.512-.699-.647-1.291-.674-1.418-.033-.156-.01-.142-.01.125h12.001c0-1.29-.118-3.73-1.639-5.804l-9.678 7.097zm-.684-1.293c0 .236-.02.26.006.136.023-.113.125-.55.479-1.097l10.076 6.52c1.268-1.96 1.44-4.145 1.44-5.56h-12.001zm.578-1.1a3.943 3.943 0 011.034-1.013 4.285 4.285 0 011.654-.673l2.085 11.818c2.281-.402 4.012-1.726 5.117-3.334l-9.89-6.799zm2.356-1.618c.039-.01-.039.014-.274.014v12c.98 0 2.001-.092 3.023-.332l-2.749-11.682zm-.274.014h-17.48v12h17.48v-12z" fill="#333335" mask="url(#a)"/><rect x="126.449" y="38.263" width="124" height="49" rx="10" transform="rotate(3.168 126.449 38.263)" fill="#708254"/><rect x="131.997" y="44.579" width="112.223" height="37" rx="9" transform="rotate(3.168 131.997 44.579)" stroke="#FABD32" stroke-width="2"/><mask id="b" maskUnits="userSpaceOnUse" x="7" y="42.059" width="54" height="45" fill="#000"><path fill="#fff" d="M7 42.059h54v45H7z"/><path d="M43.767 74.862c.347.721.534 1.341.563 1.86.029.49-.13.938-.476 1.342-.317.375-.85.75-1.6 1.125-1.155.548-2.049.706-2.683.476-.635-.202-1.226-.88-1.774-2.034l-8.48-17.74-8.438 17.74c-.577 1.125-1.182 1.788-1.817 1.99-.606.231-1.485.072-2.64-.476-.749-.346-1.297-.706-1.643-1.081a1.991 1.991 0 01-.433-1.385c.029-.548.23-1.183.606-1.904L26.33 51.11a3.417 3.417 0 011.255-1.385c.577-.346 1.168-.52 1.774-.52.432 0 .836.087 1.211.26.375.145.707.361.995.65.318.288.577.634.78 1.038l11.422 23.71zm-21.72-2.466l2.683-5.582h9.216l2.683 5.582H22.048zm28.47 7.052c-1.039 0-1.789-.144-2.25-.432-.462-.318-.75-.736-.866-1.255a9.726 9.726 0 01-.13-1.601V52.493c0-.577.044-1.11.13-1.6.116-.491.404-.895.865-1.212.462-.317 1.226-.476 2.294-.476 1.096 0 1.86.159 2.293.476.461.317.735.72.822 1.211.115.49.173 1.039.173 1.644v23.667c0 .548-.058 1.082-.173 1.601-.115.49-.404.894-.865 1.212-.433.288-1.198.432-2.294.432z"/></mask><path d="M43.767 74.862c.347.721.534 1.341.563 1.86.029.49-.13.938-.476 1.342-.317.375-.85.75-1.6 1.125-1.155.548-2.049.706-2.683.476-.635-.202-1.226-.88-1.774-2.034l-8.48-17.74-8.438 17.74c-.577 1.125-1.182 1.788-1.817 1.99-.606.231-1.485.072-2.64-.476-.749-.346-1.297-.706-1.643-1.081a1.991 1.991 0 01-.433-1.385c.029-.548.23-1.183.606-1.904L26.33 51.11a3.417 3.417 0 011.255-1.385c.577-.346 1.168-.52 1.774-.52.432 0 .836.087 1.211.26.375.145.707.361.995.65.318.288.577.634.78 1.038l11.422 23.71zm-21.72-2.466l2.683-5.582h9.216l2.683 5.582H22.048zm28.47 7.052c-1.039 0-1.789-.144-2.25-.432-.462-.318-.75-.736-.866-1.255a9.726 9.726 0 01-.13-1.601V52.493c0-.577.044-1.11.13-1.6.116-.491.404-.895.865-1.212.462-.317 1.226-.476 2.294-.476 1.096 0 1.86.159 2.293.476.461.317.735.72.822 1.211.115.49.173 1.039.173 1.644v23.667c0 .548-.058 1.082-.173 1.601-.115.49-.404.894-.865 1.212-.433.288-1.198.432-2.294.432z" fill="#0B2A2C"/><path d="M43.767 74.862l6.21-2.98-.004-.01-6.206 2.99zm.563 1.86l-6.878.383.002.022 6.876-.405zm-.476 1.342l-5.23-4.483a8.41 8.41 0 00-.028.033l5.258 4.45zm-1.6 1.125l2.955 6.222.125-.061-3.08-6.161zm-2.683.476l2.354-6.474a6.744 6.744 0 00-.266-.09l-2.088 6.564zm-1.774-2.034l6.222-2.955-.008-.016-6.214 2.971zm-8.48-17.74l6.214-2.97a6.888 6.888 0 00-12.435.012l6.22 2.959zm-8.438 17.74l6.13 3.143c.031-.06.061-.122.091-.184l-6.22-2.959zm-1.817 1.99l-2.088-6.564a6.981 6.981 0 00-.364.127l2.452 6.437zm-2.64-.476l2.956-6.222a7.257 7.257 0 00-.069-.032l-2.886 6.254zm-1.643-1.081L9.362 82.32c.113.143.231.282.355.416l5.062-4.672zm-.433-1.385l6.878.382v-.02l-6.878-.362zm.606-1.904l6.111 3.178a6.95 6.95 0 00.097-.193l-6.208-2.985zM26.33 51.11l-6.161-3.081a7.05 7.05 0 00-.047.096l6.208 2.985zm1.255-1.385l-3.544-5.907-.135.083 3.679 5.824zm2.985-.26l-2.887 6.255c.136.063.275.12.414.175l2.473-6.43zm.995.65l-4.87 4.87c.077.078.156.153.237.226l4.633-5.097zm.78 1.038l6.205-2.99-.045-.09-6.16 3.08zM22.047 72.396l-6.209-2.984a6.888 6.888 0 006.209 9.872v-6.888zm2.682-5.582v-6.888a6.889 6.889 0 00-6.208 3.904l6.208 2.984zm9.216 0l6.208-2.984a6.888 6.888 0 00-6.208-3.904v6.888zm2.683 5.582v6.888a6.888 6.888 0 006.208-9.872l-6.209 2.984zm.928 5.447c.054.112.046.114.017.018a3.281 3.281 0 01-.122-.757l13.756-.764c-.099-1.772-.682-3.316-1.23-4.459l-12.42 5.962zm-.104-.716a5.12 5.12 0 01.288-2.005 4.878 4.878 0 01.883-1.541l10.46 8.966c1.402-1.636 2.265-3.802 2.122-6.23l-13.753.81zm1.143-3.513c.322-.38.592-.576.66-.624.078-.055.067-.038-.083.038l6.16 12.322c1.078-.539 2.578-1.417 3.78-2.837l-10.517-8.899zm.702-.647c-.227.107-.134.031.216-.03.349-.063 1.263-.163 2.41.254l-4.707 12.947c3.38 1.23 6.5-.019 7.992-.727l-5.911-12.444zm2.361.133c1.234.393 1.931 1.088 2.183 1.377.252.288.284.424.177.199l-12.444 5.91c.694 1.462 2.365 4.516 5.907 5.643L41.659 73.1zm2.352 1.56l-8.48-17.74-12.43 5.943 8.481 17.739 12.43-5.942zM23.096 56.933l-8.437 17.74L27.1 80.59l8.437-17.74-12.441-5.917zM14.75 74.488c-.113.22-.084.102.155-.16.238-.26.902-.9 2.069-1.27l4.177 13.127c3.41-1.084 5.114-3.96 5.858-5.41L14.75 74.487zm1.86-1.304c1.231-.469 2.216-.35 2.56-.288.356.064.45.142.208.027l-5.91 12.445c1.401.665 4.604 2.002 8.046.69L16.61 73.184zm2.7-.293c-.14-.064-.15-.08-.075-.03.069.044.309.21.605.53L9.717 82.736c1.223 1.325 2.694 2.144 3.82 2.664l5.772-12.509zm.885.917c.326.414.62.936.812 1.552.192.615.245 1.2.217 1.701l-13.756-.764a8.878 8.878 0 001.894 6.023l10.833-8.512zm1.03 3.233c-.022.422-.101.712-.142.84-.04.13-.063.157-.02.072L8.84 71.597c-.629 1.21-1.273 2.834-1.373 4.72l13.758.724zm-.065.72l11.379-23.668-12.416-5.97-11.38 23.668 12.417 5.97zm11.332-23.572a3.475 3.475 0 01-1.228 1.359L23.907 43.9a10.304 10.304 0 00-3.737 4.128l12.322 6.161zm-1.362 1.442a3.499 3.499 0 01-1.77.462V42.316c-1.99 0-3.793.586-5.318 1.501l7.088 11.814zm-1.77.462c-.516 0-1.102-.11-1.675-.374l5.773-12.509a9.742 9.742 0 00-4.098-.894v13.777zm-1.262-.2a4.058 4.058 0 01-1.402-.909l9.741-9.741a9.72 9.72 0 00-3.393-2.208l-4.946 12.859zm-1.165-.683a3.384 3.384 0 01-.749-.978l12.322-6.16a10.392 10.392 0 00-2.306-3.056L26.933 55.21zm-.794-1.069l11.423 23.71 12.411-5.979-11.422-23.71-12.412 5.98zm2.117 21.239l2.683-5.582-12.417-5.968-2.683 5.582 12.417 5.968zm-3.526-1.677h9.216V59.926H24.73v13.777zm3.008-3.905l2.682 5.582 12.417-5.968-2.683-5.582-12.417 5.968zm8.89-4.29h-14.58v13.776h14.58V65.507zm11.639 13.508l-3.903 5.676c.083.057.167.112.252.165l3.65-5.841zM47.4 77.76l-6.794 1.132c.02.121.043.242.07.362l6.724-1.494zm0-26.869l-6.705-1.578c-.03.127-.056.254-.078.381l6.783 1.197zm.865-1.211l3.903 5.676-3.902-5.676zm4.587 0l-4.074 5.555.171.121 3.903-5.676zm.822 1.211L46.89 52.09c.023.128.049.255.079.38l6.705-1.577zm0 26.912l6.705 1.578.02-.084-6.725-1.494zm-.865 1.212l3.82 5.731.082-.055-3.903-5.676zm-2.294-6.456c-.226 0-.215-.018-.04.016.148.028.725.15 1.441.598l-7.301 11.683c2.166 1.354 4.556 1.48 5.9 1.48V72.56zm1.653.78c.39.268.827.664 1.206 1.213.382.555.625 1.149.75 1.713l-13.448 2.99c.515 2.316 1.874 4.19 3.687 5.436l7.805-11.353zm2.027 3.288a2.847 2.847 0 01-.036-.468H40.383c0 .912.072 1.825.224 2.733l13.589-2.265zm-.036-.468V52.493H40.383V76.16H54.16zm0-23.667c0-.237.018-.365.025-.404l-13.567-2.394a16.1 16.1 0 00-.235 2.798H54.16zm-.054-.023a5.004 5.004 0 01-.797 1.755 4.656 4.656 0 01-1.14 1.132l-7.805-11.352c-1.702 1.17-3.115 2.961-3.668 5.31l13.41 3.155zm-1.937 2.887c-.759.522-1.397.673-1.583.711-.211.044-.248.025-.026.025V42.316c-1.39 0-3.941.138-6.196 1.688l7.805 11.353zm-1.61.736c.251 0 .217.021-.004-.025-.179-.037-.92-.204-1.776-.832l8.147-11.11c-2.334-1.712-5.067-1.81-6.366-1.81v13.777zm-1.609-.736a4.822 4.822 0 01-1.245-1.268 5.18 5.18 0 01-.814-2l13.567-2.394c-.448-2.543-1.927-4.47-3.703-5.69L48.95 55.356zm-1.98-2.887c-.015-.062-.017-.09-.016-.078.002.012.006.059.006.144h13.776c0-1.033-.097-2.122-.356-3.221L46.97 52.47zm-.01.066v23.667h13.776V52.536H46.96zm0 23.667c0 .061-.006.093-.01.107l13.45 2.988c.227-1.024.336-2.06.336-3.095H46.96zm.01.023a5.004 5.004 0 01.797-1.755 4.658 4.658 0 011.14-1.132l7.805 11.353c1.702-1.17 3.116-2.962 3.668-5.31l-13.41-3.156zm2.019-2.942a5.114 5.114 0 011.092-.557 3.62 3.62 0 01.554-.156c.17-.032.16-.011-.119-.011v13.777c1.244 0 3.846-.078 6.114-1.59L48.99 73.284z" fill="#FFD324" mask="url(#b)"/><path d="M155.262 71.281a1.237 1.237 0 01-.455-.105.68.68 0 01-.305-.277c-.072-.138-.102-.326-.089-.566.014-.253.065-.437.151-.553a.554.554 0 01.334-.242c.136-.045.284-.064.444-.055l1.717.095.484-8.747.708.6c-.387-.008-.72-.02-.999-.035a2.284 2.284 0 01-.655-.116.715.715 0 01-.346-.26.988.988 0 01-.073-.485c.02-.372.121-.627.302-.764s.532-.198 1.052-.182l3.477.152c1.252.056 2.285.334 3.099.833.827.5 1.428 1.214 1.804 2.143.389.93.546 2.08.47 3.451l-.265 4.793a1.39 1.39 0 01-.107.475.554.554 0 01-.277.305c-.124.073-.306.103-.546.09-.24-.014-.424-.057-.554-.131a.59.59 0 01-.244-.294 1.054 1.054 0 01-.057-.404l.27-4.892c.054-.972-.041-1.785-.285-2.44-.231-.654-.611-1.156-1.139-1.505-.527-.363-1.204-.568-2.029-.613l-1.837-.102-.483 8.727c-.024.426-.122.747-.294.965-.158.205-.391.299-.697.282l-2.576-.143zm14.637.81c-.24-.013-.417-.063-.532-.15a.671.671 0 01-.242-.333 1.728 1.728 0 01-.035-.463l.556-10.044c.009-.16.037-.306.084-.436a.679.679 0 01.278-.306c.137-.072.326-.102.565-.088.253.014.437.07.552.17a.555.555 0 01.242.334c.033.122.045.27.035.443l-.556 10.044a1.17 1.17 0 01-.104.435.554.554 0 01-.277.305c-.124.074-.313.103-.566.09zm6.415.295c-.311-.177-.507-.361-.59-.553-.083-.192-.038-.403.135-.634a74.097 74.097 0 001.783-2.545 40.04 40.04 0 001.428-2.264c.427-.725.807-1.445 1.141-2.16.333-.717.628-1.455.884-2.215l1.281 1.092c-.361.982-.774 1.92-1.237 2.816a48.28 48.28 0 01-1.577 2.797c-.588.97-1.276 2.053-2.063 3.251a1.315 1.315 0 01-.322.383.702.702 0 01-.39.179c-.135.019-.293-.03-.473-.147zm6.019-9.221l-1.194-.507-5.991-.331c-.333-.019-.575-.106-.727-.261-.151-.155-.231-.4-.239-.734l.012-3.124c.01-.173.038-.319.085-.436a.55.55 0 01.316-.283c.151-.072.352-.101.605-.087.24.013.411.063.513.148a.611.611 0 01.201.352c.046.136.064.297.053.484v2.183l5.072.28c.426.025.76.137 1.003.337.242.2.387.475.435.825.061.337.013.722-.144 1.154zm3.246 4.126c-.24-.014-.417-.063-.533-.15a.809.809 0 01-.24-.354 1.506 1.506 0 01-.036-.443l.243-4.393c.009-.16.037-.305.084-.436a.68.68 0 01.278-.305c.137-.072.326-.102.566-.089.252.014.436.071.551.171a.554.554 0 01.242.334c.033.122.045.27.035.443l-.243 4.393a1.17 1.17 0 01-.104.435.554.554 0 01-.277.305c-.124.073-.313.103-.566.089zm4.375 6.391c-.19.043-.371.06-.544.05a.512.512 0 01-.389-.201c-.101-.113-.177-.297-.23-.554-.04-.243-.03-.43.031-.56a.74.74 0 01.337-.301c.151-.072.328-.129.53-.171l4.176-.89c.624-.18 1.139-.425 1.543-.736.419-.325.728-.735.929-1.23.215-.496.341-1.084.378-1.763l.267-4.812c.008-.147.035-.272.081-.377a.586.586 0 01.275-.265c.124-.073.306-.103.546-.09.253.014.443.065.572.152a.64.64 0 01.261.355c.046.136.064.29.054.464l-.247 4.112c-.047.853-.183 1.606-.406 2.261a5.374 5.374 0 01-.915 1.693 5.22 5.22 0 01-1.428 1.202c-.566.33-1.228.594-1.987.792l-3.834.87zm2.517-2.044a2.641 2.641 0 01-.517-.429 2.077 2.077 0 01-.379-.762l-1.946-7.9a2.391 2.391 0 01-.075-.465.55.55 0 01.142-.392c.1-.115.278-.199.535-.251.271-.065.478-.067.621-.006a.62.62 0 01.343.32c.072.15.129.32.172.51l2.2 9.115-1.096.26zm9.385 2.222a1.34 1.34 0 01-.455-.105.68.68 0 01-.305-.277c-.072-.138-.102-.326-.089-.566.014-.253.065-.437.151-.553a.554.554 0 01.334-.241c.149-.046.311-.063.484-.054l3.175.176c.732.04 1.38-.077 1.942-.353.563-.276 1.014-.705 1.354-1.287.34-.596.535-1.346.585-2.251l.014-.26c.072-1.291-.167-2.293-.715-3.004-.535-.71-1.335-1.096-2.4-1.155l-.539-.03a2.518 2.518 0 00-1.338.287 2.73 2.73 0 00-.966.808 1.568 1.568 0 00-.317 1.024c-.012.467.059.864.214 1.194.169.33.441.612.815.846a.484.484 0 01.221.353.653.653 0 01-.044.418 1.226 1.226 0 01-.261.386.783.783 0 01-.373.22c-.177.07-.403.044-.677-.078-.259-.134-.521-.35-.785-.644a3.794 3.794 0 01-.662-1.078 3.755 3.755 0 01-.221-1.435 4.194 4.194 0 01.394-1.68 4.22 4.22 0 011.013-1.306 4.133 4.133 0 011.449-.842 4.604 4.604 0 011.796-.24l.32.017c1.091.06 2.005.331 2.739.813.748.481 1.298 1.16 1.65 2.034.366.861.516 1.904.448 3.13l-.021.379c-.07 1.264-.369 2.316-.896 3.155a4.76 4.76 0 01-2.066 1.869c-.863.393-1.854.558-2.972.496l-2.996-.166zm13.48.686c-.31-.177-.507-.362-.59-.553-.083-.192-.038-.403.135-.633a75.74 75.74 0 001.784-2.546 40.03 40.03 0 001.427-2.264 25.1 25.1 0 001.141-2.16 21.56 21.56 0 00.884-2.215l1.281 1.092c-.361.982-.774 1.92-1.237 2.816a47.666 47.666 0 01-1.577 2.797 109.18 109.18 0 01-2.063 3.251 1.315 1.315 0 01-.322.383.701.701 0 01-.39.179c-.135.02-.292-.03-.473-.147zm6.019-9.221l-1.194-.507-5.991-.331c-.332-.019-.575-.106-.726-.26-.152-.156-.232-.401-.24-.735l.013-3.124c.009-.173.037-.319.084-.436a.552.552 0 01.316-.283c.151-.072.353-.101.606-.087.239.013.41.063.512.149a.61.61 0 01.201.351c.046.136.064.297.054.484l-.001 2.183 5.072.281c.426.023.76.136 1.003.336.243.2.388.475.435.825.062.337.014.722-.144 1.154z" fill="#FAF6EE"/><path d="M8.56 31l.769 2.85c.526 1.928 2.22 3.445 4.4 3.89l3.22.672-3.207.684c-2.168.468-3.874 1.973-4.374 3.912L8.61 45.87l-.77-2.85c-.526-1.928-2.22-3.445-4.4-3.89l-3.22-.672 3.207-.684c2.168-.468 3.874-1.973 4.374-3.912L8.56 31zM16.707 27l.417 1.537c.283 1.04 1.198 1.847 2.368 2.092l1.729.359-1.73.37c-1.17.252-2.078 1.065-2.353 2.105L16.734 35l-.417-1.537c-.282-1.04-1.197-1.847-2.368-2.092l-1.728-.359 1.728-.37c1.17-.252 2.079-1.065 2.354-2.105L16.707 27z" fill="#0B2A2C"/><mask id="c" maskUnits="userSpaceOnUse" x="37" y="1" width="189" height="46" fill="#000"><path fill="#fff" d="M37 1h189v46H37z"/><path d="M47.155 33.39c-1.07 0-1.837-.159-2.3-.477-.462-.318-.751-.723-.867-1.214a9.74 9.74 0 01-.13-1.605V11.269c0-1.272.304-2.198.91-2.776.608-.578 1.548-.868 2.82-.868h7.46c2.546 0 4.714.535 6.507 1.605 1.822 1.041 3.224 2.53 4.208 4.468.983 1.937 1.474 4.25 1.474 6.94v9.412c0 .579-.057 1.128-.173 1.649-.087.491-.362.896-.824 1.214-.434.318-1.186.477-2.256.477-1.04 0-1.793-.144-2.255-.433-.463-.29-.752-.666-.868-1.128a6.418 6.418 0 01-.173-1.475v-9.586c0-1.503-.203-2.733-.608-3.687-.375-.954-.968-1.662-1.778-2.125-.78-.463-1.822-.694-3.123-.694h-4.728V30.05c0 .579-.058 1.128-.173 1.649-.116.491-.405.896-.868 1.214-.434.318-1.185.477-2.255.477zm-.304 0l.043-6.593h17.307l.044 6.593H46.85zm27.909-10.8c-1.041 0-1.793-.16-2.256-.477-.463-.347-.752-.767-.867-1.258a8.976 8.976 0 01-.13-1.562v-8.371c0-.55.043-1.07.13-1.562.115-.52.404-.94.867-1.257.463-.319 1.229-.478 2.299-.478 1.07 0 1.822.174 2.255.52.463.319.738.738.825 1.259.115.491.173 1.012.173 1.561v8.372c0 .55-.058 1.07-.173 1.561-.116.492-.405.897-.868 1.215-.434.318-1.186.477-2.255.477zm32.837-1.431v8.935c0 1.012-.073 1.75-.217 2.212-.116.463-.405.752-.868.867-.433.145-1.156.217-2.168.217h-8.328a7.38 7.38 0 01-1.605-.173c-.492-.116-.897-.39-1.215-.824-.318-.463-.477-1.23-.477-2.3 0-1.07.16-1.835.477-2.298.318-.463.723-.737 1.215-.824a7.585 7.585 0 011.648-.174h4.945V21.29c0-1.706-.159-3.095-.477-4.164-.29-1.07-.752-1.851-1.388-2.343-.608-.491-1.388-.737-2.343-.737-1.012 0-1.85.217-2.515.65a4.52 4.52 0 00-1.605 1.692 10.776 10.776 0 00-.998 2.343 70.78 70.78 0 00-.65 2.645l-1.606 8.719a147.1 147.1 0 01-.346 1.605c-.087.491-.347.896-.781 1.214-.434.318-1.186.477-2.256.477-1.33 0-2.255-.26-2.776-.78-.52-.55-.665-1.403-.434-2.56l2.343-12.925 2.299 2.559c.462-1.128.867-2.27 1.214-3.427a56.946 56.946 0 011.084-3.34c.405-1.07.94-2.01 1.605-2.82.666-.809 1.519-1.46 2.56-1.951 1.07-.492 2.443-.737 4.12-.737 2.053 0 3.774.534 5.162 1.604 1.417 1.041 2.501 2.588 3.253 4.642.752 2.024 1.128 4.525 1.128 7.504zm-21.731 2.689l-3.08-12.102a8.829 8.829 0 01-.26-1.648c0-.52.173-.983.52-1.388.376-.434 1.1-.767 2.17-.998 1.069-.231 1.864-.231 2.385 0 .52.231.882.579 1.084 1.041.203.434.362.897.477 1.388l1.909 8.545-5.205 5.162zm27.888-9.586a7.381 7.381 0 01-1.605-.174c-.52-.115-.94-.404-1.258-.867-.318-.463-.477-1.215-.477-2.256 0-1.07.159-1.836.477-2.299.318-.462.738-.751 1.258-.867a7.183 7.183 0 011.562-.174h16.482c.55 0 1.07.058 1.562.174.52.116.94.405 1.258.867.318.463.477 1.23.477 2.3 0 1.04-.159 1.792-.477 2.255-.318.463-.738.752-1.258.867a7.006 7.006 0 01-1.605.174h-16.396zm11.885 19.128c-1.041 0-1.793-.159-2.256-.477-.433-.318-.708-.723-.824-1.214a7.623 7.623 0 01-.173-1.649V12.657l6.549.564v17.133a6.4 6.4 0 01-.173 1.475c-.087.462-.376.838-.868 1.128-.462.289-1.214.433-2.255.433zm25.23.044c-1.272-.405-2.11-.926-2.515-1.562-.376-.665-.362-1.518.043-2.559.434-1.099.868-2.241 1.301-3.427.463-1.214.911-2.457 1.345-3.73.463-1.272.911-2.544 1.345-3.817.433-1.301.853-2.573 1.258-3.817l1.171-3.687 5.595 3.86a421.657 421.657 0 01-2.082 6.767 118.926 118.926 0 01-1.171 3.427 215.838 215.838 0 01-1.128 3.296 259.882 259.882 0 01-1.084 2.95 7.235 7.235 0 01-.781 1.475 2.278 2.278 0 01-1.214.91c-.492.203-1.186.174-2.083-.086zm-9.716 7.547c-1.041 0-1.792-.159-2.255-.477-.463-.318-.752-.737-.868-1.258a9.831 9.831 0 01-.13-1.605V21.506c0-.55.044-1.07.13-1.562.116-.492.405-.896.868-1.214.463-.319 1.229-.478 2.299-.478 1.07 0 1.822.16 2.255.478.463.318.738.737.824 1.257.116.492.174 1.013.174 1.562v16.136c0 .549-.058 1.07-.174 1.561-.115.52-.404.94-.867 1.258-.434.318-1.186.477-2.256.477zm18.999-25.505l-5.596-1.258H140.72c-.55 0-1.085-.057-1.605-.173-.521-.116-.94-.405-1.258-.867-.318-.463-.477-1.215-.477-2.256 0-1.07.159-1.836.477-2.299.318-.463.737-.737 1.258-.824a7.174 7.174 0 011.561-.174h14.314c1.562 0 2.805.333 3.73.998.955.665 1.562 1.59 1.822 2.776.26 1.186.13 2.545-.39 4.077zm6.171 17.914a7.591 7.591 0 01-1.649-.173c-.491-.116-.896-.405-1.214-.868-.318-.462-.477-1.214-.477-2.255 0-1.07.159-1.836.477-2.299.318-.463.723-.737 1.214-.824a7.387 7.387 0 011.605-.174h1.735V12.05l4.121 2.125c-1.012.116-1.966.217-2.863.304-.867.058-1.648.029-2.342-.087-.665-.145-1.2-.42-1.605-.824-.376-.434-.564-1.07-.564-1.909 0-1.388.333-2.385.998-2.993.665-.607 1.822-.925 3.47-.954l7.287-.087c3.007-.029 5.494.478 7.46 1.519 1.996 1.04 3.485 2.617 4.468 4.727 1.012 2.111 1.518 4.772 1.518 7.981v8.198c0 .579-.058 1.128-.173 1.649-.116.491-.405.896-.868 1.214-.434.318-1.185.477-2.255.477-1.041 0-1.793-.144-2.256-.433-.434-.29-.723-.666-.867-1.128a6.402 6.402 0 01-.174-1.475V21.94c0-1.764-.231-3.21-.694-4.337-.463-1.128-1.157-1.967-2.082-2.516-.925-.55-2.111-.824-3.557-.824h-2.385V29.27c0 1.33-.289 2.356-.868 3.08-.578.693-1.402 1.04-2.472 1.04h-4.988zm52.759-12.232v8.936c0 1.012-.073 1.75-.217 2.212-.116.463-.405.752-.868.867-.433.145-1.156.217-2.168.217H207.5a7.372 7.372 0 01-1.604-.173c-.492-.116-.897-.39-1.215-.824-.318-.463-.477-1.23-.477-2.3 0-1.07.159-1.835.477-2.298.318-.463.723-.737 1.215-.824a7.575 7.575 0 011.648-.174h4.945V21.29c0-1.706-.159-3.095-.478-4.164-.289-1.07-.751-1.851-1.388-2.343-.607-.491-1.388-.737-2.342-.737-1.012 0-1.85.217-2.516.65-.665.405-1.2.97-1.604 1.692a10.757 10.757 0 00-.998 2.343c-.231.867-.448 1.749-.651 2.645l-1.605 8.719c-.115.55-.231 1.084-.347 1.605-.086.491-.347.896-.78 1.214-.434.318-1.186.477-2.256.477-1.33 0-2.255-.26-2.776-.78-.52-.55-.665-1.403-.434-2.56l2.343-12.925 2.298 2.559c.463-1.128.868-2.27 1.215-3.427a56.878 56.878 0 011.084-3.34c.405-1.07.94-2.01 1.605-2.82.665-.809 1.518-1.46 2.559-1.951 1.07-.492 2.444-.737 4.121-.737 2.053 0 3.774.534 5.162 1.604 1.417 1.041 2.501 2.588 3.253 4.642.752 2.024 1.128 4.525 1.128 7.504zm-21.731 2.69l-3.08-12.102a8.802 8.802 0 01-.26-1.648c0-.52.173-.983.52-1.388.376-.434 1.099-.767 2.169-.998 1.07-.231 1.865-.231 2.386 0 .52.231.882.579 1.084 1.041.202.434.361.897.477 1.388l1.909 8.545-5.205 5.162z"/></mask><path d="M47.155 33.39c-1.07 0-1.837-.159-2.3-.477-.462-.318-.751-.723-.867-1.214a9.74 9.74 0 01-.13-1.605V11.269c0-1.272.304-2.198.91-2.776.608-.578 1.548-.868 2.82-.868h7.46c2.546 0 4.714.535 6.507 1.605 1.822 1.041 3.224 2.53 4.208 4.468.983 1.937 1.474 4.25 1.474 6.94v9.412c0 .579-.057 1.128-.173 1.649-.087.491-.362.896-.824 1.214-.434.318-1.186.477-2.256.477-1.04 0-1.793-.144-2.255-.433-.463-.29-.752-.666-.868-1.128a6.418 6.418 0 01-.173-1.475v-9.586c0-1.503-.203-2.733-.608-3.687-.375-.954-.968-1.662-1.778-2.125-.78-.463-1.822-.694-3.123-.694h-4.728V30.05c0 .579-.058 1.128-.173 1.649-.116.491-.405.896-.868 1.214-.434.318-1.185.477-2.255.477zm-.304 0l.043-6.593h17.307l.044 6.593H46.85zm27.909-10.8c-1.041 0-1.793-.16-2.256-.477-.463-.347-.752-.767-.867-1.258a8.976 8.976 0 01-.13-1.562v-8.371c0-.55.043-1.07.13-1.562.115-.52.404-.94.867-1.257.463-.319 1.229-.478 2.299-.478 1.07 0 1.822.174 2.255.52.463.319.738.738.825 1.259.115.491.173 1.012.173 1.561v8.372c0 .55-.058 1.07-.173 1.561-.116.492-.405.897-.868 1.215-.434.318-1.186.477-2.255.477zm32.837-1.431v8.935c0 1.012-.073 1.75-.217 2.212-.116.463-.405.752-.868.867-.433.145-1.156.217-2.168.217h-8.328a7.38 7.38 0 01-1.605-.173c-.492-.116-.897-.39-1.215-.824-.318-.463-.477-1.23-.477-2.3 0-1.07.16-1.835.477-2.298.318-.463.723-.737 1.215-.824a7.585 7.585 0 011.648-.174h4.945V21.29c0-1.706-.159-3.095-.477-4.164-.29-1.07-.752-1.851-1.388-2.343-.608-.491-1.388-.737-2.343-.737-1.012 0-1.85.217-2.515.65a4.52 4.52 0 00-1.605 1.692 10.776 10.776 0 00-.998 2.343 70.78 70.78 0 00-.65 2.645l-1.606 8.719a147.1 147.1 0 01-.346 1.605c-.087.491-.347.896-.781 1.214-.434.318-1.186.477-2.256.477-1.33 0-2.255-.26-2.776-.78-.52-.55-.665-1.403-.434-2.56l2.343-12.925 2.299 2.559c.462-1.128.867-2.27 1.214-3.427a56.946 56.946 0 011.084-3.34c.405-1.07.94-2.01 1.605-2.82.666-.809 1.519-1.46 2.56-1.951 1.07-.492 2.443-.737 4.12-.737 2.053 0 3.774.534 5.162 1.604 1.417 1.041 2.501 2.588 3.253 4.642.752 2.024 1.128 4.525 1.128 7.504zm-21.731 2.689l-3.08-12.102a8.829 8.829 0 01-.26-1.648c0-.52.173-.983.52-1.388.376-.434 1.1-.767 2.17-.998 1.069-.231 1.864-.231 2.385 0 .52.231.882.579 1.084 1.041.203.434.362.897.477 1.388l1.909 8.545-5.205 5.162zm27.888-9.586a7.381 7.381 0 01-1.605-.174c-.52-.115-.94-.404-1.258-.867-.318-.463-.477-1.215-.477-2.256 0-1.07.159-1.836.477-2.299.318-.462.738-.751 1.258-.867a7.183 7.183 0 011.562-.174h16.482c.55 0 1.07.058 1.562.174.52.116.94.405 1.258.867.318.463.477 1.23.477 2.3 0 1.04-.159 1.792-.477 2.255-.318.463-.738.752-1.258.867a7.006 7.006 0 01-1.605.174h-16.396zm11.885 19.128c-1.041 0-1.793-.159-2.256-.477-.433-.318-.708-.723-.824-1.214a7.623 7.623 0 01-.173-1.649V12.657l6.549.564v17.133a6.4 6.4 0 01-.173 1.475c-.087.462-.376.838-.868 1.128-.462.289-1.214.433-2.255.433zm25.23.044c-1.272-.405-2.11-.926-2.515-1.562-.376-.665-.362-1.518.043-2.559.434-1.099.868-2.241 1.301-3.427.463-1.214.911-2.457 1.345-3.73.463-1.272.911-2.544 1.345-3.817.433-1.301.853-2.573 1.258-3.817l1.171-3.687 5.595 3.86a421.657 421.657 0 01-2.082 6.767 118.926 118.926 0 01-1.171 3.427 215.838 215.838 0 01-1.128 3.296 259.882 259.882 0 01-1.084 2.95 7.235 7.235 0 01-.781 1.475 2.278 2.278 0 01-1.214.91c-.492.203-1.186.174-2.083-.086zm-9.716 7.547c-1.041 0-1.792-.159-2.255-.477-.463-.318-.752-.737-.868-1.258a9.831 9.831 0 01-.13-1.605V21.506c0-.55.044-1.07.13-1.562.116-.492.405-.896.868-1.214.463-.319 1.229-.478 2.299-.478 1.07 0 1.822.16 2.255.478.463.318.738.737.824 1.257.116.492.174 1.013.174 1.562v16.136c0 .549-.058 1.07-.174 1.561-.115.52-.404.94-.867 1.258-.434.318-1.186.477-2.256.477zm18.999-25.505l-5.596-1.258H140.72c-.55 0-1.085-.057-1.605-.173-.521-.116-.94-.405-1.258-.867-.318-.463-.477-1.215-.477-2.256 0-1.07.159-1.836.477-2.299.318-.463.737-.737 1.258-.824a7.174 7.174 0 011.561-.174h14.314c1.562 0 2.805.333 3.73.998.955.665 1.562 1.59 1.822 2.776.26 1.186.13 2.545-.39 4.077zm6.171 17.914a7.591 7.591 0 01-1.649-.173c-.491-.116-.896-.405-1.214-.868-.318-.462-.477-1.214-.477-2.255 0-1.07.159-1.836.477-2.299.318-.463.723-.737 1.214-.824a7.387 7.387 0 011.605-.174h1.735V12.05l4.121 2.125c-1.012.116-1.966.217-2.863.304-.867.058-1.648.029-2.342-.087-.665-.145-1.2-.42-1.605-.824-.376-.434-.564-1.07-.564-1.909 0-1.388.333-2.385.998-2.993.665-.607 1.822-.925 3.47-.954l7.287-.087c3.007-.029 5.494.478 7.46 1.519 1.996 1.04 3.485 2.617 4.468 4.727 1.012 2.111 1.518 4.772 1.518 7.981v8.198c0 .579-.058 1.128-.173 1.649-.116.491-.405.896-.868 1.214-.434.318-1.185.477-2.255.477-1.041 0-1.793-.144-2.256-.433-.434-.29-.723-.666-.867-1.128a6.402 6.402 0 01-.174-1.475V21.94c0-1.764-.231-3.21-.694-4.337-.463-1.128-1.157-1.967-2.082-2.516-.925-.55-2.111-.824-3.557-.824h-2.385V29.27c0 1.33-.289 2.356-.868 3.08-.578.693-1.402 1.04-2.472 1.04h-4.988zm52.759-12.232v8.936c0 1.012-.073 1.75-.217 2.212-.116.463-.405.752-.868.867-.433.145-1.156.217-2.168.217H207.5a7.372 7.372 0 01-1.604-.173c-.492-.116-.897-.39-1.215-.824-.318-.463-.477-1.23-.477-2.3 0-1.07.159-1.835.477-2.298.318-.463.723-.737 1.215-.824a7.575 7.575 0 011.648-.174h4.945V21.29c0-1.706-.159-3.095-.478-4.164-.289-1.07-.751-1.851-1.388-2.343-.607-.491-1.388-.737-2.342-.737-1.012 0-1.85.217-2.516.65-.665.405-1.2.97-1.604 1.692a10.757 10.757 0 00-.998 2.343c-.231.867-.448 1.749-.651 2.645l-1.605 8.719c-.115.55-.231 1.084-.347 1.605-.086.491-.347.896-.78 1.214-.434.318-1.186.477-2.256.477-1.33 0-2.255-.26-2.776-.78-.52-.55-.665-1.403-.434-2.56l2.343-12.925 2.298 2.559c.463-1.128.868-2.27 1.215-3.427a56.878 56.878 0 011.084-3.34c.405-1.07.94-2.01 1.605-2.82.665-.809 1.518-1.46 2.559-1.951 1.07-.492 2.444-.737 4.121-.737 2.053 0 3.774.534 5.162 1.604 1.417 1.041 2.501 2.588 3.253 4.642.752 2.024 1.128 4.525 1.128 7.504zm-21.731 2.69l-3.08-12.102a8.802 8.802 0 01-.26-1.648c0-.52.173-.983.52-1.388.376-.434 1.099-.767 2.169-.998 1.07-.231 1.865-.231 2.386 0 .52.231.882.579 1.084 1.041.202.434.361.897.477 1.388l1.909 8.545-5.205 5.162z" fill="#fff"/><path d="M44.856 32.913l3.4-4.944-3.4 4.944zm-.868-1.214l-5.919.986c.022.13.048.26.078.388l5.841-1.374zm.78-23.206l4.14 4.345-4.14-4.345zm16.787.737l-3.075 5.153c.033.02.065.039.098.057l2.977-5.21zM67.064 31.7l-5.858-1.302c-.019.086-.036.172-.051.259l5.909 1.043zm-.824 1.214l-3.4-4.944c-.05.034-.1.07-.149.105l3.549 4.84zm-4.511.044l3.18-5.089-3.18 5.089zm-.868-1.128l-5.84 1.374c.005.027.012.054.019.081l5.821-1.455zm-.78-14.748l-5.584 2.2.06.144 5.523-2.344zm-1.779-2.125l-3.06 5.162.083.048 2.977-5.21zm-7.85-.694v-6a6 6 0 00-6.002 6h6.001zm-.174 17.437l5.84 1.374.017-.073-5.857-1.301zm-.868 1.214l-3.4-4.944c-.05.034-.1.07-.148.105l3.548 4.84zm-2.56.477l-6-.04a6 6 0 006 6.04v-6zm.044-6.593v-6a6 6 0 00-6 5.96l6 .04zm17.307 0l6-.04a6 6 0 00-6-5.96v6zm.044 6.593v6a6 6 0 006-6.04l-6 .04zm-17.09-6c-.264 0-.292-.022-.158.006.111.023.627.139 1.258.572l-6.799 9.89c2.025 1.392 4.347 1.533 5.699 1.533V27.39zm1.1.578c.271.187.61.481.92.915.316.443.536.939.654 1.441l-11.682 2.75c.497 2.11 1.766 3.723 3.31 4.784l6.798-9.89zm1.652 2.744a3.744 3.744 0 01-.048-.618H37.857c0 .866.069 1.732.212 2.591l11.838-1.973zm-.048-.618V11.269H37.857v18.825H49.86zm0-18.825c0-.184.025-.071-.072.223a3.35 3.35 0 01-.88 1.346l-8.276-8.69c-2.293 2.183-2.773 5.048-2.773 7.12h12zm-.952 1.57a3.153 3.153 0 01-1.213.739c-.241.074-.31.048-.106.048V1.625c-2.035 0-4.776.445-6.957 2.523l8.276 8.69zm-1.319.787h7.46V1.625h-7.46v12.001zm7.46 0c1.7 0 2.753.352 3.432.757l6.15-10.305c-2.906-1.735-6.19-2.453-9.581-2.453v12.001zm3.53.814c.766.438 1.361 1.042 1.834 1.973l10.702-5.43C69.62 8.038 67.41 5.665 64.532 4.02l-5.954 10.42zm1.834 1.973c.466.92.825 2.26.825 4.225h12c0-3.413-.624-6.7-2.123-9.656l-10.702 5.431zm.825 4.225v9.412h12v-9.412h-12zm0 9.412c0 .178-.018.288-.03.347L72.92 33c.219-.982.317-1.97.317-2.95H61.237zm-.082.606c.1-.57.325-1.142.672-1.654.34-.5.719-.831 1.013-1.034l6.8 9.89c1.607-1.105 2.93-2.836 3.333-5.116l-11.818-2.086zm1.536-2.582c.699-.512 1.291-.647 1.418-.674.156-.033.142-.01-.125-.01v12c1.29 0 3.73-.117 5.804-1.638l-7.097-9.678zm1.293-.684c-.266 0-.315-.02-.211 0 .059.01.191.04.375.105.184.066.452.18.761.373l-6.36 10.177c1.947 1.218 4.128 1.346 5.435 1.346V27.39zm.925.478c.285.178.66.474 1.012.931.36.47.62 1.01.762 1.575l-11.643 2.91c.547 2.19 1.933 3.777 3.508 4.761l6.361-10.177zm1.793 2.587a.43.43 0 01-.014-.1h-12c0 .966.113 1.918.332 2.848l11.682-2.749zm-.014-.1v-9.587h-12v9.586h12zm0-9.587c0-1.976-.256-4.08-1.084-6.03l-11.048 4.687c-.016-.04.02.034.06.269.038.234.071.584.071 1.074h12.001zm-1.025-5.886c-.823-2.09-2.268-3.927-4.384-5.136l-5.954 10.42a2.152 2.152 0 01-.573-.481 1.559 1.559 0 01-.255-.404l11.166-4.4zm-4.302-5.088c-2.024-1.2-4.245-1.533-6.182-1.533v12.001c.149 0 .26.007.337.015.078.007.115.015.118.016.007.002-.15-.032-.391-.175L61.36 9.794zM55.18 8.26h-4.728v12.001h4.728v-12zm-10.729 6v15.79h12.002V14.26H44.45zm0 15.79c0 .177-.017.287-.03.346L56.135 33c.218-.982.317-1.97.317-2.95H44.45zm-.014.273c.119-.502.339-.998.655-1.44.31-.435.649-.73.92-.916l6.799 9.89c1.543-1.061 2.812-2.675 3.309-4.785l-11.682-2.749zm1.426-2.25c.698-.512 1.29-.647 1.417-.674.156-.033.142-.01-.124-.01v12c1.29 0 3.73-.117 5.804-1.638l-7.097-9.678zm6.99 5.356l.043-6.593-12.001-.08-.044 6.594 12.001.079zm-5.958-.632h17.307V20.797H46.894v12zm11.307-5.961l.043 6.593 12-.08-.043-6.592-12 .079zm6.044.553H46.85v12h17.394v-12zm8.26-5.277l-3.601 4.8c.066.05.133.098.2.145l3.4-4.945zm-.868-1.258l-5.91 1.043c.02.11.043.221.069.331l5.84-1.374zm0-11.495L65.779 8.06c-.02.086-.036.172-.052.259l5.91 1.042zm.867-1.257l3.4 4.944-3.4-4.944zm4.554.043l-3.748 4.686c.113.09.23.176.349.259l3.4-4.945zm.825 1.258l-5.92.986c.022.13.048.26.079.388l5.84-1.374zm0 11.494l5.84 1.375-5.84-1.375zm-.868 1.215l-3.4-4.945c-.05.035-.1.07-.148.106l3.548 4.839zm-2.255-5.524c-.24 0-.25-.02-.103.011.13.027.634.147 1.247.568l-6.8 9.89c2.007 1.379 4.292 1.532 5.656 1.532v-12zm1.344.723c.219.164.506.428.776.82.276.4.483.86.598 1.348l-11.682 2.75c.484 2.057 1.692 3.622 3.108 4.683l7.2-9.6zm1.442 2.5a3.01 3.01 0 01-.039-.519H65.506c0 .865.068 1.736.221 2.605l11.819-2.086zm-.039-.519v-8.371H65.506v8.371h12.001zm0-8.371c0-.234.018-.404.039-.519L65.727 8.318c-.153.868-.221 1.74-.221 2.604h12.001zm-.013-.26c-.102.458-.3.944-.614 1.4a3.842 3.842 0 01-.976.985l-6.8-9.89c-1.64 1.129-2.861 2.816-3.325 4.902l11.715 2.603zm-1.59 2.385c-.631.434-1.147.55-1.259.573-.133.028-.105.006.158.006V1.625c-1.351 0-3.674.14-5.698 1.533l6.799 9.89zm-1.101.579c.241 0 .217.023.017-.024-.18-.041-.806-.207-1.51-.77l7.497-9.372c-2.113-1.69-4.655-1.835-6.004-1.835v12.001zm-1.144-.535a3.995 3.995 0 01-1.067-1.104 4.188 4.188 0 01-.628-1.597l11.838-1.973c-.374-2.238-1.635-4.04-3.344-5.216l-6.799 9.89zm-1.617-2.313c0 .004.014.06.014.187h12c0-.972-.102-1.956-.332-2.936l-11.682 2.75zm.014.187v8.372h12v-8.372h-12zm0 8.372c0 .127-.014.183-.014.187l11.682 2.749c.23-.98.333-1.964.333-2.936H72.056zm-.014.187c.118-.503.338-.998.654-1.441.31-.434.649-.729.92-.915l6.799 9.89c1.543-1.062 2.812-2.675 3.309-4.785l-11.682-2.75zm1.425-2.25c.698-.512 1.29-.647 1.417-.674.156-.033.142-.01-.124-.01v12c1.29 0 3.73-.118 5.804-1.638l-7.097-9.678zm33.913 15.032l-5.727-1.79c-.035.11-.066.222-.094.335l5.821 1.455zm-.868.867l-1.455-5.82c-.149.036-.296.08-.442.128l1.897 5.692zm-12.101.044l-1.375 5.84c.025.007.049.012.073.017l1.302-5.857zm-1.215-.824l-4.945 3.4c.035.05.07.1.106.148l4.84-3.548zm1.215-5.422l1.043 5.91c.086-.016.172-.033.258-.053l-1.301-5.857zm6.593-.174v6a6 6 0 006-6h-6zm-.477-9.672l-5.793 1.565.04.145 5.753-1.71zm-1.388-2.343l-3.776 4.664c.035.029.07.057.107.084l3.669-4.748zm-4.858-.086l3.12 5.125c.053-.032.105-.065.157-.1l-3.277-5.025zm-1.605 1.691l5.183 3.024.052-.092-5.235-2.932zm-.998 2.343l-5.748-1.725-.05.178 5.798 1.547zm-.65 2.645l-5.854-1.321a6.058 6.058 0 00-.048.235l5.901 1.086zm-1.606 8.719l5.872 1.236.03-.15-5.901-1.086zm-.346 1.605l-5.858-1.302c-.02.086-.036.172-.052.259l5.91 1.043zm-.781 1.214l-3.549-4.839 3.549 4.84zm-5.032-.303l-4.356 4.127.113.116 4.243-4.243zm-.434-2.56l5.885 1.177.02-.107-5.904-1.07zm2.343-12.925l4.464-4.01a6 6 0 00-10.369 2.94l5.905 1.07zm2.299 2.559l-4.464 4.01a6 6 0 0010.015-1.733l-5.551-2.277zm1.214-3.427l5.748 1.724.011-.038-5.759-1.686zm1.084-3.34l-5.612-2.123-.031.085 5.643 2.038zm1.605-2.82l4.637 3.81-4.637-3.81zm2.56-1.951l-2.506-5.453a5.668 5.668 0 00-.057.027l2.563 5.426zm9.282.867l-3.663 4.753.11.083 3.553-4.836zm3.253 4.642l-5.635 2.063.01.026 5.625-2.09zM85.866 23.848l-5.816 1.48a6 6 0 0010.041 2.78l-4.225-4.26zm-3.08-12.102l-5.821 1.455.006.025 5.815-1.48zm-.26-1.648h-6c0 .11.002.222.008.333l5.992-.333zm.52-1.388l-4.534-3.93a3.757 3.757 0 00-.022.025l4.556 3.905zm2.17-.998l1.267 5.865-1.268-5.865zm2.385 0l-2.437 5.483L87.6 7.712zm1.084 1.041l-5.497 2.405c.02.045.039.089.06.133l5.437-2.538zm.477 1.388l5.856-1.308a5.052 5.052 0 00-.015-.066l-5.84 1.374zm1.909 8.545l4.225 4.26a6 6 0 001.631-5.568l-5.856 1.308zm10.525 2.473v8.935h12.001v-8.936h-12.001zm0 8.935c0 .376-.014.608-.025.726-.006.056-.008.06-.001.02.006-.035.029-.151.083-.324l11.454 3.58c.433-1.384.49-2.894.49-4.002h-12.001zm-.037.757c.161-.646.53-1.48 1.274-2.224a4.829 4.829 0 012.224-1.275l2.911 11.643a7.178 7.178 0 003.351-1.882 7.173 7.173 0 001.882-3.352l-11.642-2.91zm3.056-3.37a3.549 3.549 0 01.412-.11c.057-.011.069-.01.021-.006a4.57 4.57 0 01-.249.017c-.122.005-.272.008-.455.008v12c1.067 0 2.639-.048 4.066-.524l-3.795-11.385zm-.271-.091h-8.328v12h8.328v-12zm-8.328 0c-.125 0-.223-.013-.304-.03L93.11 39.074c.96.213 1.933.316 2.907.316V27.39zm-.231-.014c.444.104.9.296 1.323.583.418.284.72.604.927.885l-9.678 7.097c1.104 1.505 2.702 2.652 4.68 3.117l2.748-11.682zm2.356 1.617c.433.631.55 1.147.573 1.259.027.133.006.105.006-.158H86.719c0 1.35.14 3.673 1.532 5.698l9.89-6.799zm.579 1.1c0-.262.021-.29-.006-.157-.023.112-.14.628-.573 1.258l-9.89-6.799c-1.392 2.025-1.532 4.348-1.532 5.699h12zm-.58 1.101a3.93 3.93 0 01-1.032 1.013 4.288 4.288 0 01-1.654.673l-2.086-11.818c-2.28.402-4.011 1.726-5.117 3.333l9.89 6.8zm-2.428 1.634c.06-.013.17-.03.347-.03V20.797c-.98 0-1.968.098-2.95.316l2.603 11.715zm.347-.03h4.945V20.797h-4.945v12zm10.945-6v-5.51h-12v5.51h12zm0-5.51c0-2.013-.18-4.038-.726-5.873l-11.503 3.42c.09.304.228 1.055.228 2.454h12.001zm-.685-5.729c-.503-1.864-1.51-3.979-3.511-5.525L95.47 19.53c-.73-.563-.81-1.116-.736-.84l11.585-3.131zm-3.405-5.44c-1.896-1.536-4.103-2.075-6.118-2.075v12.002c-.035 0-.22-.005-.5-.093a2.869 2.869 0 01-.933-.507l7.551-9.328zm-6.118-2.075c-1.858 0-3.918.402-5.793 1.625l6.555 10.053c-.545.355-.927.323-.762.323v-12zM91.161 9.57a10.519 10.519 0 00-3.72 3.885l10.47 5.864c-.025.044-.08.13-.177.233a1.643 1.643 0 01-.334.27L91.16 9.57zm-3.668 3.794a16.768 16.768 0 00-1.563 3.641l11.495 3.449c.142-.47.296-.806.434-1.043l-10.366-6.047zm-1.613 3.82c-.252.943-.487 1.9-.706 2.87l11.707 2.643c.185-.823.384-1.63.595-2.421L85.88 17.183zm-.754 3.105l-1.605 8.718 11.803 2.173 1.605-8.718-11.803-2.173zm-1.575 8.569c-.112.528-.223 1.041-.333 1.539L94.933 33c.12-.543.241-1.1.361-1.67l-11.743-2.472zm-.385 1.798a4.19 4.19 0 01.602-1.53 3.96 3.96 0 01.978-1.052l7.097 9.678c1.574-1.154 2.764-2.872 3.142-5.01l-11.819-2.086zm1.58-2.582c.699-.512 1.291-.647 1.418-.674.156-.033.142-.01-.125-.01v12c1.29 0 3.73-.117 5.804-1.638l-7.097-9.678zm1.293-.684c-.31 0-.292-.035-.067.029.233.065.878.292 1.534.948l-8.486 8.486c2.266 2.266 5.268 2.538 7.02 2.538V27.39zm1.58 1.093a4.048 4.048 0 011.062 2.072c.085.506.012.776.032.672l-11.768-2.353c-.393 1.967-.52 5.243 1.962 7.863l8.712-8.254zm1.115 2.637l2.342-12.925-11.809-2.14-2.342 12.926 11.809 2.14zm-8.026-9.985l2.299 2.559 8.928-8.02-2.3-2.56-8.927 8.02zm12.314.826a43.149 43.149 0 001.41-3.98l-11.494-3.448a31.12 31.12 0 01-1.019 2.873l11.103 4.555zm1.422-4.018c.316-1.08.64-2.075.97-2.988L84.125 10.88a62.928 62.928 0 00-1.2 3.693l11.518 3.37zm.938-2.902c.194-.515.415-.874.63-1.134l-9.274-7.618a15.94 15.94 0 00-2.58 4.505l11.224 4.247zm.63-1.134c.047-.059.165-.185.484-.335L91.37 2.72c-1.763.833-3.351 2.008-4.633 3.569l9.273 7.618zm.427-.309c-.003.002.108-.049.384-.098a7.11 7.11 0 011.231-.09V1.407c-2.201 0-4.51.313-6.626 1.285l5.01 10.905zm1.615-.189c.964 0 1.333.23 1.498.357l7.327-9.505c-2.61-2.013-5.683-2.853-8.825-2.853v12.001zm1.61.44c.256.189.725.654 1.17 1.869l11.27-4.127c-1.059-2.89-2.758-5.52-5.335-7.413l-7.106 9.671zm1.18 1.895c.429 1.155.752 2.898.752 5.415h12.001c0-3.44-.428-6.7-1.503-9.594l-11.25 4.179zm-9.163 6.624L88.6 10.266l-11.63 2.96 3.08 12.102 11.63-2.96zM88.608 10.29a2.908 2.908 0 01-.09-.526l-11.984.666c.053.948.207 1.875.43 2.77l11.644-2.91zm-.082-.193c0 .42-.072.892-.252 1.37-.178.475-.425.859-.672 1.147l-9.112-7.81a8.071 8.071 0 00-1.965 5.293h12.001zm-.945 2.542c-.544.627-1.07.885-1.203.946-.152.07-.15.046.105-.009l-2.536-11.73c-1.354.293-3.726.96-5.435 2.933l9.069 7.86zm-1.098.937c.262-.056.285-.038.131-.038-.132 0-.703-.011-1.45-.344L90.038 2.23c-2.348-1.044-4.752-.671-6.091-.382l2.536 11.73zm-1.32-.382a3.729 3.729 0 01-1.056-.72 4.126 4.126 0 01-.92-1.317l10.996-4.81c-.88-2.012-2.445-3.363-4.145-4.12l-4.874 10.967zm-1.915-1.904c.019.04.047.112.073.224l11.682-2.748a13.14 13.14 0 00-.88-2.551L83.247 11.29zm.058.158l1.909 8.545 11.712-2.616-1.909-8.545-11.712 2.616zm3.54 2.976l-5.206 5.162 8.451 8.521 5.205-5.161-8.45-8.522zm24.045-1.204l4.945-3.4-4.945 3.4zm0-4.555l-4.944-3.4 4.944 3.4zm20.864-.867l-1.375 5.841.073.017 1.302-5.858zm1.258.867l4.944-3.4-4.944 3.4zm0 4.555l4.944 3.4-4.944-3.4zm-1.258.867l-1.302-5.857-.073.016 1.375 5.841zm-8.372 18.825l-3.548 4.84.149.105 3.399-4.945zm-.824-1.214L116.702 33l.016.073 5.841-1.374zm-.173-19.042l.514-5.978a6 6 0 00-6.515 5.978h6.001zm6.549.564h6.001a6 6 0 00-5.486-5.979l-.515 5.979zm-.173 18.608l-5.841-1.375c-.021.09-.04.18-.057.269l5.898 1.106zm-.868 1.128l-3.042-5.172a8.463 8.463 0 00-.138.083l3.18 5.089zM113.754 8.26c-.125 0-.223-.012-.303-.03l-2.604 11.715a13.38 13.38 0 002.907.316v-12zm-.303-.03c.458.101.944.3 1.4.614.451.311.772.666.985.976l-9.889 6.8c1.127 1.64 2.814 2.861 4.9 3.325l2.604-11.715zm2.385 1.59c.421.613.541 1.117.568 1.247.031.147.011.137.011-.103h-12.001c0 1.364.153 3.649 1.533 5.655l9.889-6.799zm.579 1.144c0-.263.022-.291-.006-.157-.023.111-.139.627-.573 1.258l-9.889-6.8c-1.392 2.026-1.533 4.348-1.533 5.7h12.001zm-.579 1.1c-.213.31-.534.666-.985.977a4.016 4.016 0 01-1.4.615L110.847 1.94c-2.086.464-3.773 1.686-4.9 3.326l9.889 6.799zm-2.385 1.592c.103-.023.188-.031.26-.031V1.625c-.969 0-1.926.108-2.864.316l2.604 11.716zm.26-.031h16.482V1.625h-16.482v12.001zm16.482 0c.127 0 .184.013.187.014l2.749-11.682a12.794 12.794 0 00-2.936-.333v12.001zm.26.03a4.016 4.016 0 01-1.4-.614 3.849 3.849 0 01-.985-.976l9.889-6.8c-1.127-1.64-2.814-2.861-4.9-3.325l-2.604 11.716zm-2.385-1.59c-.434-.63-.55-1.147-.573-1.258-.028-.134-.006-.106-.006.157h12.001c0-1.35-.141-3.673-1.533-5.698l-9.889 6.799zm-.579-1.1c0 .239-.02.25.011.102.027-.13.147-.634.568-1.247l9.889 6.8c1.38-2.007 1.533-4.292 1.533-5.656h-12.001zm.579-1.145c.213-.31.534-.665.985-.976a4.014 4.014 0 011.4-.614l2.604 11.715c2.086-.464 3.773-1.685 4.9-3.326l-9.889-6.799zm2.312-1.574c.019-.004-.049.014-.23.014v12.001c.976 0 1.978-.097 2.979-.333L130.38 8.247zm-.23.014h-16.396v12.001h16.396v-12zm-4.511 19.129c-.24 0-.25-.02-.103.01.13.028.635.148 1.247.569l-6.799 9.889c2.006 1.38 4.291 1.533 5.655 1.533V27.39zm1.293.684c.281.206.601.51.885.928.287.423.479.879.583 1.322l-11.682 2.75c.466 1.977 1.612 3.575 3.117 4.678l7.097-9.678zm1.485 2.323a1.614 1.614 0 01-.031-.346h-12.001c0 .979.098 1.967.317 2.95l11.715-2.604zm-.031-.346V12.657h-12.001V30.05h12.001zm-6.515-11.416l6.55.564 1.029-11.957-6.55-.563-1.029 11.956zm1.064-5.414v17.133h12.001V13.221h-12.001zm0 17.133a.468.468 0 01-.014.1l11.682 2.75c.219-.93.333-1.883.333-2.85h-12.001zm-.071.369a4.543 4.543 0 01.86-1.924 4.009 4.009 0 011.128-1.014l6.085 10.344c1.641-.966 3.249-2.67 3.723-5.194l-11.796-2.212zm1.85-2.855c.309-.193.578-.307.761-.373.184-.065.317-.094.375-.106.104-.02.055 0-.211 0v12.002c1.308 0 3.488-.128 5.436-1.346l-6.361-10.177zm26.155 5.566l-1.819 5.718.146.044 1.673-5.762zm-2.515-1.562l-5.224 2.953c.051.09.105.18.161.269l5.063-3.222zm.043-2.559l-5.581-2.203a.33.33 0 00-.011.028l5.592 2.175zm1.301-3.427l-5.607-2.136-.028.075 5.635 2.061zm1.345-3.73l-5.639-2.05a4.88 4.88 0 00-.041.114l5.68 1.936zm1.345-3.817l5.679 1.936.013-.038-5.692-1.898zm1.258-3.817l5.705 1.858.013-.038-5.718-1.82zm1.171-3.687l3.407-4.939a6 6 0 00-9.127 3.126l5.72 1.813zm5.595 3.86l5.752 1.71a6.001 6.001 0 00-2.344-6.649l-3.408 4.94zm-2.082 6.767l5.707 1.855.013-.041-5.72-1.814zm-1.171 3.427l-5.648-2.028-.045.13 5.693 1.898zm-1.128 3.296l5.644 2.038.017-.049-5.661-1.989zm-1.084 2.95l5.592 2.175.026-.068-5.618-2.107zm-.781 1.475l-4.945-3.4-.048.071 4.993 3.329zm-1.215.91l-1.897-5.692a5.84 5.84 0 00-.387.144l2.284 5.548zm-14.053 6.984l-3.4 4.945 3.4-4.945zm-.868-1.258l-5.919.986c.018.106.038.211.062.316l5.857-1.302zm0-19.302l-5.841-1.374c-.026.11-.048.22-.068.331l5.909 1.043zm.868-1.214l-3.4-4.945 3.4 4.945zm4.554 0l-3.548 4.838c.049.036.099.072.149.106l3.399-4.944zm.824 1.257l-5.918.987c.021.13.047.26.077.388l5.841-1.375zm0 19.26l-5.841-1.375-.016.072 5.857 1.302zm-.867 1.257l-3.4-4.945a9.11 9.11 0 00-.149.106l3.549 4.839zm16.743-25.028l-1.316 5.855a6 6 0 006.998-3.925l-5.682-1.93zm-5.596-1.258l1.317-5.854a6.007 6.007 0 00-1.317-.146v6zm-15.441-.173l-1.302 5.858 1.302-5.858zm-1.258-5.422l-4.945-3.4 4.945 3.4zm1.258-.824l.986 5.919a5.84 5.84 0 00.315-.061l-1.301-5.858zm19.605.824l-3.502 4.873.071.05 3.431-4.923zm1.822 2.776l-5.861 1.287 5.861-1.287zm-7.853 16.317c-.318-.102-.358-.149-.238-.075.119.075.558.37.965 1.01l-10.125 6.443c1.555 2.443 4.074 3.522 5.759 4.058l3.639-11.436zm.889 1.204c.397.703.513 1.4.504 1.915-.008.465-.113.705-.092.653l-11.185-4.35c-.747 1.92-1.287 4.835.325 7.687l10.448-5.905zm.401 2.596c.453-1.149.905-2.338 1.355-3.568l-11.271-4.123a136.882 136.882 0 01-1.247 3.285l11.163 4.406zm1.327-3.493c.489-1.283.961-2.593 1.417-3.93l-11.36-3.873a103.6 103.6 0 01-1.272 3.53l11.215 4.273zm1.376-3.816c.477-1.31.938-2.62 1.385-3.932l-11.359-3.872a196.474 196.474 0 01-1.304 3.703l11.278 4.1zm1.398-3.97c.438-1.314.862-2.6 1.271-3.857l-11.411-3.716c-.401 1.23-.815 2.489-1.245 3.778l11.385 3.795zm1.284-3.895l1.173-3.693-11.44-3.627c-.376 1.183-.765 2.41-1.17 3.68l11.437 3.64zm-7.955-.568l5.595 3.86 6.816-9.878-5.596-3.86-6.815 9.878zm3.251-2.788c-.312 1.05-.639 2.13-.981 3.241l11.471 3.53c.352-1.145.69-2.262 1.014-3.351l-11.504-3.42zm-.981 3.241c-.341 1.111-.698 2.251-1.069 3.421l11.44 3.628c.381-1.201.747-2.374 1.1-3.52l-11.471-3.529zm-1.056 3.38c-.357 1.1-.728 2.185-1.112 3.254l11.296 4.055c.425-1.186.835-2.386 1.23-3.6l-11.414-3.708zm-1.157 3.384a204.882 204.882 0 01-1.096 3.205l11.322 3.978c.388-1.101.774-2.23 1.16-3.388l-11.386-3.795zm-1.079 3.156c-.368 1.021-.721 1.981-1.059 2.88l11.237 4.215c.357-.951.727-1.957 1.11-3.019l-11.288-4.076zm-1.033 2.813a1.177 1.177 0 01-.133.25l9.89 6.8a13.196 13.196 0 001.428-2.7l-11.185-4.35zm-.181.321a3.77 3.77 0 01.872-.919 3.58 3.58 0 011.009-.534l3.795 11.385a8.278 8.278 0 004.31-3.275l-9.986-6.657zm1.494-1.31c.763-.313 1.379-.327 1.645-.316.268.011.363.055.23.016l-3.346 11.525c1.318.383 3.645.86 6.04-.127l-4.569-11.097zm-9.514 7.01c-.239 0-.249-.021-.102.01.13.028.634.147 1.246.568l-6.799 9.89c2.007 1.38 4.292 1.533 5.655 1.533V34.98zm1.144.578c.31.213.666.534.977.985.314.456.512.942.614 1.4l-11.715 2.604c.463 2.086 1.685 3.773 3.325 4.9l6.799-9.889zm1.652 2.7a3.781 3.781 0 01-.048-.618H131.9c0 .867.068 1.732.211 2.592l11.838-1.973zm-.048-.618V21.506H131.9V37.64h12.001zm0-16.135c0-.235.018-.404.039-.52l-11.819-2.085c-.153.869-.221 1.74-.221 2.605h12.001zm-.03-.188a4.11 4.11 0 01-.654 1.441c-.31.434-.649.729-.92.915l-6.799-9.89c-1.543 1.062-2.812 2.676-3.309 4.786l11.682 2.748zm-1.574 2.356c-.63.434-1.146.55-1.258.573-.134.028-.105.006.158.006V12.252c-1.351 0-3.674.14-5.699 1.533l6.799 9.89zm-1.1.579c.267 0 .281.022.124-.01-.126-.027-.719-.162-1.417-.675l7.097-9.677c-2.074-1.52-4.514-1.64-5.804-1.64v12.002zm-1.144-.579a3.996 3.996 0 01-1.067-1.103 4.182 4.182 0 01-.628-1.597L150.195 19c-.373-2.239-1.634-4.041-3.343-5.216l-6.799 9.89zm-1.618-2.312c.001.003.014.06.014.187h12.001c0-.972-.102-1.956-.333-2.936l-11.682 2.749zm.014.187v16.136h12.001V21.549h-12.001zm0 16.136a.878.878 0 01-.014.187l11.682 2.748c.231-.98.333-1.963.333-2.935h-12.001zm-.03.26c.102-.459.3-.945.614-1.4.311-.452.667-.773.976-.986l6.799 9.89c1.641-1.128 2.862-2.815 3.326-4.901l-11.715-2.604zm1.441-2.28c.699-.512 1.291-.647 1.418-.674.156-.033.142-.01-.125-.01v12c1.29 0 3.731-.118 5.804-1.638l-7.097-9.678zm21.608-26.043l-5.595-1.258-2.633 11.709 5.596 1.258 2.632-11.71zm-6.912-1.404h-2.385v12.001h2.385V8.218zm-2.385 0H140.72v12.001h11.451V8.218zm-11.451 0c-.125 0-.223-.013-.304-.03l-2.603 11.715a13.38 13.38 0 002.907.316V8.218zm-.304-.03c.459.101.945.3 1.401.614.451.31.772.666.985.976l-9.89 6.799c1.128 1.64 2.815 2.862 4.901 3.326l2.603-11.716zm2.386 1.59c.421.612.54 1.117.568 1.247.031.147.01.136.01-.103h-12.001c0 1.364.154 3.648 1.533 5.655l9.89-6.799zm.578 1.144c0-.263.022-.292-.006-.158-.023.112-.139.628-.572 1.259l-9.89-6.8c-1.392 2.025-1.533 4.348-1.533 5.699h12.001zm-.578 1.1c-.23.335-.587.729-1.104 1.067a4.184 4.184 0 01-1.597.629L138.128 1.88c-2.238.373-4.041 1.634-5.216 3.344l9.89 6.799zm-2.386 1.635c.104-.023.188-.031.26-.031V1.625c-.969 0-1.926.108-2.863.316l2.603 11.716zm.26-.031h14.314V1.625h-14.314v12.001zm14.314 0c.365 0 .531.04.554.046.01.002-.128-.034-.326-.176l7.005-9.745c-2.262-1.626-4.87-2.126-7.233-2.126v12.001zm.299-.08a1.635 1.635 0 01-.414-.438 1.37 1.37 0 01-.194-.422l11.722-2.573c-.568-2.59-2.001-4.844-4.252-6.413l-6.862 9.846zm-.608-.86c-.04-.183.072.029-.211.86l11.364 3.86c.758-2.233 1.13-4.74.569-7.293l-11.722 2.573zm9.993 20.53l-1.374 5.842.073.017 1.301-5.858zm-1.214-.867l-4.945 3.4 4.945-3.4zm1.214-5.378l1.043 5.91c.087-.016.173-.033.259-.053l-1.302-5.857zm3.34-.174v6a6.001 6.001 0 006.001-6h-6.001zm0-14.747l2.751-5.333a6 6 0 00-8.751 5.333h6zm4.121 2.125l.681 5.962a6 6 0 002.07-11.295l-2.751 5.333zm-2.863.304l.399 5.987c.06-.004.12-.009.179-.015l-.578-5.972zm-2.342-.087l-1.275 5.864c.096.02.192.039.288.055l.987-5.919zm-1.605-.824l-4.535 3.93c.094.108.191.212.292.313l4.243-4.243zm.434-4.902l-4.046-4.43 4.046 4.43zm3.47-.954l-.072-6h-.033l.105 6zm7.287-.087l-.058-6h-.014l.072 6zm7.46 1.519l-2.807 5.303.032.017 2.775-5.32zm4.468 4.727l-5.439 2.534.028.06 5.411-2.594zm1.345 17.828l5.841 1.374.016-.073-5.857-1.301zm-.868 1.214l-3.399-4.944c-.051.034-.1.07-.149.105l3.548 4.84zm-4.511.044l-3.328 4.992c.049.033.098.065.148.096l3.18-5.088zm-.867-1.128l-5.841 1.374c.033.14.07.279.113.416l5.728-1.79zm-.868-14.227l5.552-2.278-5.552 2.278zm-8.024-3.34v-6a6 6 0 00-6.001 6h6.001zm-.868 18.087l4.61 3.842c.026-.03.051-.062.076-.093l-4.686-3.749zm-7.46-4.96c-.177 0-.288-.017-.347-.03l-2.603 11.715c.982.219 1.97.317 2.95.317V27.39zm-.274-.013c.502.118.998.338 1.441.654.434.31.728.649.915.92l-9.89 6.799c1.061 1.544 2.675 2.812 4.785 3.309l2.749-11.682zm2.356 1.574c.421.612.54 1.116.568 1.247.031.147.01.136.01-.103h-12.001c0 1.364.154 3.648 1.533 5.655l9.89-6.8zm.578 1.144c0-.263.022-.292-.006-.158-.023.112-.139.628-.572 1.258l-9.89-6.799c-1.392 2.025-1.533 4.348-1.533 5.699h12.001zm-.578 1.1a3.943 3.943 0 01-1.034 1.013 4.285 4.285 0 01-1.654.673l-2.085-11.818c-2.281.402-4.012 1.726-5.117 3.333l9.89 6.8zm-2.429 1.634c.08-.017.178-.03.303-.03V20.797c-.974 0-1.946.103-2.906.316l2.603 11.715zm.303-.03h1.735V20.797h-1.735v12zm7.736-6V12.05h-12.001v14.747h12.001zm-8.751-9.415l4.12 2.125 5.502-10.666-4.121-2.125-5.501 10.666zm6.19-9.17c-.982.113-1.902.21-2.76.293l1.156 11.945c.935-.09 1.924-.195 2.966-.314l-1.362-11.924zm-2.581.278c-.508.034-.813.006-.957-.018l-1.973 11.838c1.244.207 2.502.237 3.728.155l-.798-11.975zm-.668.037c.244.053.811.245 1.363.797l-8.486 8.486c1.361 1.361 2.999 2.102 4.573 2.445l2.55-11.728zm1.655 1.11c.454.524.686 1.05.797 1.427.105.357.105.582.105.594h-12.001c0 1.632.355 3.906 2.029 5.839l9.07-7.86zm.902 2.021c0-.243.032-.165-.059.109a3.25 3.25 0 01-.898 1.33l-8.092-8.863c-2.45 2.237-2.952 5.255-2.952 7.424h12.001zm-.957 1.439c-.561.511-1.044.648-1.089.66-.035.01-.006-.001.105-.015.11-.013.278-.027.513-.031l-.21-12c-2.03.036-5.073.388-7.411 2.523l8.092 8.863zm-.505.614l7.287-.086-.143-12-7.287.086.143 12zm7.274-.086c2.345-.023 3.766.382 4.595.82l5.615-10.606c-3.104-1.643-6.656-2.25-10.326-2.215l.116 12zm4.627.838c.782.408 1.357.982 1.804 1.94l10.879-5.066c-1.52-3.263-3.923-5.84-7.132-7.514l-5.551 10.64zm1.832 2.002c.508 1.058.929 2.76.929 5.386h12.001c0-3.793-.592-7.412-2.108-10.575l-10.822 5.189zm.929 5.386v8.198h12.001v-8.198h-12.001zm0 8.198c0 .178-.018.288-.031.347L195.646 33c.219-.982.317-1.97.317-2.95h-12.001zm-.014.274a4.11 4.11 0 01.654-1.44c.31-.435.649-.73.92-.916l6.799 9.89c1.543-1.061 2.812-2.675 3.309-4.785l-11.682-2.749zm1.425-2.25c.698-.512 1.291-.647 1.417-.674.156-.033.143-.01-.124-.01v12c1.29 0 3.73-.117 5.804-1.638l-7.097-9.678zm1.293-.684c-.266 0-.315-.02-.212 0 .059.01.192.04.376.105.183.066.451.18.76.373l-6.36 10.177c1.948 1.218 4.128 1.346 5.436 1.346V27.39zm1.073.574c.275.183.592.455.885.835.297.386.512.811.646 1.24l-11.455 3.58c.586 1.875 1.783 3.341 3.267 4.33l6.657-9.985zm1.645 2.49a.408.408 0 01-.014-.1h-12.001c0 .967.114 1.92.333 2.85l11.682-2.75zm-.014-.1V21.94h-12.001v8.415h12.001zm0-8.415c0-2.224-.283-4.518-1.143-6.615l-11.103 4.555c.065.159.245.757.245 2.06h12.001zm-1.143-6.615c-.889-2.165-2.379-4.096-4.57-5.398l-6.127 10.32a1.351 1.351 0 01-.345-.293c-.082-.1-.09-.144-.061-.074l11.103-4.555zm-4.57-5.398c-2.119-1.257-4.455-1.665-6.621-1.665v12.001c.35 0 .545.034.619.052.069.015.007.01-.125-.068l6.127-10.32zm-6.621-1.665h-2.385v12.001h2.385v-12zm-8.386 6V29.27h12.001V14.262H168.65zm0 15.009c0 .244-.028.268.008.14.04-.143.157-.455.44-.81l9.371 7.498c1.732-2.165 2.182-4.715 2.182-6.828H168.65zm.523-.762a3.275 3.275 0 011.23-.908c.455-.192.797-.21.908-.21v12c2.487 0 5.15-.88 7.082-3.2l-9.22-7.682zm2.138-1.118h-4.988v12h4.988v-12zm47.554 4.916l-5.728-1.79c-.034.11-.066.222-.094.335l5.822 1.455zm-.868.867l-1.455-5.82c-.149.036-.297.08-.442.128l1.897 5.692zm-12.101.044l-1.375 5.84c.024.007.049.012.073.017l1.302-5.857zm-1.215-.824l-4.945 3.4a8 8 0 00.106.148l4.839-3.548zm1.215-5.422l1.042 5.91c.087-.016.173-.033.259-.053l-1.301-5.857zm6.593-.174v6a6 6 0 006-6h-6zm-.478-9.672l-5.792 1.565c.013.048.026.097.041.145l5.751-1.71zm-1.388-2.343l-3.775 4.664.106.084 3.669-4.748zm-4.858-.086l3.12 5.125c.054-.032.106-.065.158-.1l-3.278-5.025zm-1.604 1.691l5.183 3.024.052-.092-5.235-2.932zm-.998 2.343l-5.748-1.725-.05.178 5.798 1.547zm-.651 2.645l-5.853-1.321a4.74 4.74 0 00-.048.235l5.901 1.086zm-1.605 8.719l5.872 1.236.03-.15-5.902-1.086zm-.347 1.605l-5.857-1.302a5.727 5.727 0 00-.052.259l5.909 1.043zm-.78 1.214l-3.549-4.839 3.549 4.84zm-5.032-.303l-4.356 4.127.113.116 4.243-4.243zm-.434-2.56l5.884 1.177.021-.107-5.905-1.07zm2.343-12.925l4.464-4.01a6.001 6.001 0 00-10.369 2.94l5.905 1.07zm2.298 2.559l-4.463 4.01a5.999 5.999 0 0010.015-1.733l-5.552-2.277zm1.215-3.427l5.747 1.724.012-.038-5.759-1.686zm1.084-3.34l-5.612-2.123-.031.085 5.643 2.038zm1.605-2.82l4.637 3.81-4.637-3.81zm2.559-1.951l-2.505-5.453a6.926 6.926 0 00-.057.027l2.562 5.426zm9.283.867l-3.664 4.753.111.083 3.553-4.836zm3.253 4.642l-5.635 2.063.01.026 5.625-2.09zm-20.603 10.193l-5.816 1.48a6 6 0 0010.041 2.78l-4.225-4.26zm-3.08-12.102l-5.821 1.455.006.025 5.815-1.48zm-.26-1.648h-6.001c0 .11.003.222.009.333l5.992-.333zm.52-1.388l-4.534-3.93a.477.477 0 00-.022.025l4.556 3.905zm2.169-.998l1.268 5.865-1.268-5.865zm2.386 0l-2.437 5.483 2.437-5.483zm1.084 1.041l-5.497 2.405.059.133 5.438-2.538zm.477 1.388l5.856-1.308-.015-.066-5.841 1.374zm1.909 8.545l4.225 4.26a5.999 5.999 0 001.631-5.568l-5.856 1.308zm10.525 2.473v8.935h12.001v-8.936h-12.001zm0 8.935c0 .376-.014.608-.025.726-.006.056-.008.06-.001.02a2.6 2.6 0 01.082-.324l11.455 3.58c.433-1.384.49-2.894.49-4.002h-12.001zm-.038.757a4.834 4.834 0 011.275-2.224 4.824 4.824 0 012.224-1.275l2.911 11.643a7.178 7.178 0 003.351-1.882 7.173 7.173 0 001.882-3.352l-11.643-2.91zm3.057-3.37a3.549 3.549 0 01.412-.11c.057-.011.069-.01.021-.006a4.57 4.57 0 01-.249.017 11.22 11.22 0 01-.455.008v12c1.067 0 2.639-.048 4.066-.524L216.1 27.481zm-.271-.091H207.5v12h8.329v-12zm-8.329 0a1.38 1.38 0 01-.303-.03l-2.603 11.715c.961.213 1.933.316 2.906.316V27.39zm-.23-.014c.444.104.899.296 1.323.583.418.284.721.604.927.885l-9.678 7.097c1.104 1.505 2.702 2.652 4.679 3.117l2.749-11.682zm2.356 1.617c.433.631.549 1.147.573 1.259.027.133.005.105.005-.158h-12.001c0 1.35.141 3.673 1.533 5.698l9.89-6.799zm.578 1.1c0-.262.022-.29-.005-.157-.024.112-.14.628-.573 1.258l-9.89-6.799c-1.392 2.025-1.533 4.348-1.533 5.699h12.001zm-.578 1.101a3.952 3.952 0 01-1.033 1.013 4.29 4.29 0 01-1.655.673l-2.085-11.818c-2.28.402-4.012 1.726-5.117 3.333l9.89 6.8zm-2.429 1.634c.059-.013.17-.03.347-.03V20.797c-.98 0-1.968.098-2.95.316l2.603 11.715zm.347-.03h4.945V20.797h-4.945v12zm10.945-6v-5.51h-12.001v5.51h12.001zm0-5.51c0-2.013-.18-4.038-.726-5.873l-11.503 3.42c.09.304.228 1.055.228 2.454h12.001zm-.685-5.729c-.504-1.864-1.51-3.979-3.512-5.525l-7.338 9.496c-.728-.563-.81-1.116-.735-.84l11.585-3.131zm-3.405-5.44c-1.897-1.536-4.103-2.075-6.118-2.075v12.002c-.035 0-.22-.005-.5-.093a2.87 2.87 0 01-.933-.507l7.551-9.328zm-6.118-2.075c-1.858 0-3.918.402-5.793 1.625l6.555 10.053c-.545.355-.927.323-.762.323v-12zm-5.636 1.526a10.518 10.518 0 00-3.72 3.885l10.471 5.864c-.025.044-.08.13-.177.233a1.665 1.665 0 01-.334.27l-6.24-10.252zm-3.668 3.794a16.821 16.821 0 00-1.562 3.641l11.495 3.449c.141-.47.296-.806.434-1.043l-10.367-6.047zm-1.612 3.82c-.252.943-.487 1.9-.706 2.87l11.706 2.643c.186-.823.385-1.63.596-2.421l-11.596-3.093zm-.754 3.105l-1.605 8.718 11.803 2.173 1.605-8.718-11.803-2.173zm-1.575 8.569c-.112.528-.223 1.041-.333 1.539L206.418 33c.121-.543.241-1.1.361-1.67l-11.743-2.472zm-.385 1.798c.09-.508.285-1.038.602-1.53.311-.485.671-.827.978-1.052l7.097 9.678c1.574-1.154 2.764-2.872 3.142-5.01l-11.819-2.086zm1.58-2.582c.699-.512 1.291-.647 1.418-.674.156-.033.142-.01-.125-.01v12c1.29 0 3.731-.117 5.804-1.638l-7.097-9.678zm1.293-.684c-.31 0-.292-.035-.067.029.233.065.878.292 1.534.948l-8.486 8.486c2.266 2.266 5.268 2.538 7.019 2.538V27.39zm1.58 1.093a4.046 4.046 0 011.061 2.072c.086.506.013.776.033.672l-11.768-2.353c-.393 1.967-.519 5.243 1.962 7.863l8.712-8.254zm1.115 2.637l2.342-12.925-11.809-2.14-2.342 12.926 11.809 2.14zm-8.026-9.985l2.299 2.559 8.927-8.02-2.298-2.56-8.928 8.02zm12.314.826a42.998 42.998 0 001.41-3.98l-11.494-3.448c-.291.967-.63 1.925-1.019 2.873l11.103 4.555zm1.422-4.018c.316-1.08.64-2.075.969-2.988l-11.287-4.076a62.625 62.625 0 00-1.2 3.693l11.518 3.37zm.938-2.902c.194-.515.415-.874.629-1.134l-9.274-7.618a15.945 15.945 0 00-2.58 4.505l11.225 4.247zm.629-1.134c.048-.059.166-.185.485-.335L202.856 2.72c-1.763.833-3.351 2.008-4.634 3.569l9.274 7.618zm.428-.309c-.003.002.108-.049.384-.098.277-.05.678-.09 1.231-.09V1.407c-2.201 0-4.51.313-6.626 1.285l5.011 10.905zm1.615-.189c.964 0 1.333.23 1.498.357l7.327-9.505c-2.611-2.013-5.683-2.853-8.825-2.853v12.001zm1.609.44c.257.189.726.654 1.171 1.869l11.27-4.127c-1.059-2.89-2.758-5.52-5.335-7.413l-7.106 9.671zm1.181 1.895c.429 1.155.752 2.898.752 5.415h12.001c0-3.44-.428-6.7-1.503-9.594l-11.25 4.179zm-9.163 6.624l-3.08-12.102-11.63 2.96 3.079 12.102 11.631-2.96zm-3.074-12.077a2.914 2.914 0 01-.09-.526l-11.983.666c.053.948.207 1.875.431 2.77l11.642-2.91zm-.081-.193a3.924 3.924 0 01-.924 2.517l-9.112-7.81a8.073 8.073 0 00-1.965 5.293h12.001zm-.945 2.542c-.544.627-1.069.885-1.203.946-.152.07-.15.046.105-.009l-2.536-11.73c-1.354.293-3.726.96-5.435 2.933l9.069 7.86zm-1.098.937c.262-.056.285-.038.131-.038-.132 0-.703-.011-1.45-.344l4.874-10.966c-2.348-1.044-4.752-.671-6.091-.382l2.536 11.73zm-1.319-.382a3.712 3.712 0 01-1.057-.72 4.105 4.105 0 01-.919-1.317l10.994-4.81c-.88-2.012-2.444-3.363-4.144-4.12l-4.874 10.967zm-1.917-1.904c.02.04.047.112.074.224l11.682-2.748a13.199 13.199 0 00-.88-2.551l-10.876 5.075zm.059.158l1.908 8.545 11.713-2.616-1.909-8.545-11.712 2.616zm3.539 2.976l-5.205 5.162 8.451 8.521 5.205-5.161-8.451-8.522z" fill="#333335" mask="url(#c)"/></svg>