<svg width="23" height="24" viewBox="0 0 23 24" fill="none" xmlns="http://www.w3.org/2000/svg">
<path d="M21.3902 15.5185C19.1094 17.5369 16.6516 19.2395 13.8987 20.5423C13.1085 20.9164 13.7427 22.1802 14.4798 21.7473C17.1817 20.1558 19.6688 18.3019 21.8552 16.051C22.1685 15.7274 21.736 15.211 21.3902 15.5185Z" fill="#FFD324"/>
<path d="M16.3794 8.81617C15.0357 11.3435 13.1505 13.516 11.7101 15.9598C11.2869 16.6777 12.2797 17.3533 12.7847 16.6804C14.4793 14.4273 15.5514 11.5418 16.7742 9.01289C16.8829 8.78451 16.4965 8.59074 16.3794 8.81617Z" fill="#FFD324"/>
<path d="M7.32072 3.60769C7.12671 6.68923 7.19551 9.86929 6.71206 12.9215C6.57015 13.8275 8.12284 13.8636 8.02761 12.8537C7.74752 9.82835 8.02892 6.70114 8.03608 3.66395C8.03748 3.20575 7.34926 3.13992 7.32072 3.60769Z" fill="#FFD324"/>
<path d="M2.99011 12.6445C2.36518 10.8974 1.98492 9.11668 1.41289 7.36282C1.34015 7.14359 1.02603 7.01383 0.715213 7.00264C0.685454 7.00264 0.652389 7.00264 0.62263 7.0004C0.371333 6.99146 0.0803574 7.1324 0.0307593 7.30466C-0.157714 8.00262 0.569726 8.94443 0.860702 9.61107C1.32362 10.667 1.79645 11.7251 2.17671 12.7967C2.30235 13.1524 3.11246 13.0025 2.98681 12.6468L2.99011 12.6445Z" fill="#FFD324"/>
</svg>
