<svg width="122" height="150" viewBox="0 0 122 150" fill="none" xmlns="http://www.w3.org/2000/svg">
<path d="M28.5269 48.8876C28.9566 47.232 28.7112 45.5201 28.6146 43.828C28.4998 41.925 28.4485 40.0002 28.2851 38.1014C28.1649 36.7057 26.0064 36.8915 26.1104 38.2886C26.2738 40.1874 26.5523 42.0927 26.7645 43.9873C26.9422 45.6723 26.9929 47.401 27.7155 48.9574C27.8965 49.3506 28.4483 49.3031 28.5594 48.8848L28.5269 48.8876Z" fill="black"/>
<path d="M27.1911 38.3099C28.617 38.3506 29.95 38.0723 31.3438 37.7398C32.5308 37.4741 33.717 37.3883 34.3184 36.2085C34.4449 35.9687 34.3789 35.582 34.1525 35.4216C33.0264 34.6847 31.986 35.134 30.7898 35.4822C29.3543 35.9001 28.0324 36.3082 26.7413 37.0733C26.0876 37.4566 26.6013 38.2952 27.1911 38.3099Z" fill="black"/>
<path d="M34.3247 36.4696C34.3027 38.3027 34.5106 40.1486 34.6671 41.9663C34.7844 43.3295 34.5546 44.8371 35.6961 45.7525C35.9429 45.9602 36.3324 45.9266 36.54 45.6799C37.4554 44.5383 36.943 43.1437 36.7931 41.7832C36.5866 39.9535 36.4124 38.121 36.0287 36.3229C35.8053 35.2467 34.3271 35.3576 34.3247 36.4696Z" fill="black"/>
<path d="M1.96721 53.4976L9.4961 90.2574C10.3243 94.3011 14.093 97.0508 18.1965 96.6055L83.8489 89.4809L100.067 59.4731L73.9772 41.2823L5.45432 48.7184C3.11075 48.9727 1.49421 51.1883 1.96721 53.4976Z" fill="#FFD324"/>
<path d="M39.3707 63.8023C44.3317 63.6037 49.2766 63.2096 54.2203 62.7694C58.6468 62.3761 63.4065 62.4358 67.6868 61.228C68.9228 60.876 68.5374 59.203 67.3601 59.1158C62.5359 58.7696 57.321 59.919 52.5069 60.4828C48.0377 61.0154 43.569 61.571 39.1278 62.3102C38.2672 62.4574 38.5073 63.8343 39.3594 63.8141L39.3707 63.8023Z" fill="black"/>
<path d="M14.2573 61.6897C21.2149 61.3113 27.978 59.9566 34.7494 58.7681C41.5208 57.5796 48.7305 57.5223 54.9684 54.8067C55.5715 54.5472 55.3147 52.5264 54.5338 52.4788C47.7537 52.1538 41.2553 54.4831 34.7938 55.6744C27.7745 56.9617 20.6809 58.0664 13.8767 60.2065C13.3727 60.3725 13.7491 61.7052 14.2656 61.6875L14.2573 61.6897Z" fill="black"/>
<path d="M33.0857 95.3855C34.3634 111.936 36.6946 128.379 38.4902 144.868C38.6707 146.585 41.3248 146.079 40.8317 144.339L40.2675 142.344C40.0586 141.627 38.9253 141.757 38.8231 142.469L38.5109 144.539L40.9083 144.66C38.6907 128.207 36.9897 111.677 34.2543 95.2849C34.1265 94.5602 33.0377 94.6375 33.102 95.3841L33.0857 95.3855Z" fill="black"/>
<path d="M28.176 147.554C41.23 148.016 55.6713 143.323 68.4872 140.83C69.9988 140.537 70.5021 138.597 69.0296 137.824L67.6938 137.122C66.923 136.714 66.0813 137.571 66.3607 138.349L66.8625 139.809L68.2162 137.682C55.3191 140.182 39.9926 141.24 27.9638 146.608C27.445 146.849 27.6349 147.536 28.176 147.554Z" fill="black"/>
<path d="M39.2055 94.8748C40.2196 111.023 44.829 127.531 47.8337 143.442C48.1631 145.179 50.7573 144.547 50.159 142.915L49.667 141.568C49.4748 141.045 48.6155 140.939 48.4033 141.513L47.9429 142.811L50.2342 143.219C47.1872 127.197 45.4373 110.099 40.4397 94.5887C40.216 93.8886 39.1602 94.1593 39.2041 94.8586L39.2055 94.8748Z" fill="black"/>
<path d="M96.0902 43.9714C95.9106 43.9416 95.7607 43.8138 95.7041 43.6387L93.5256 36.8101C89.7625 35.314 86.3824 32.5375 83.9986 28.9896C83.0263 27.5477 82.3513 25.8055 81.9933 23.8068C80.8185 17.3324 83.1784 9.87064 87.4815 6.44375C90.3895 4.12984 94.1696 2.77544 98.128 2.62861C101.801 2.49278 105.617 3.37052 109.167 5.17188C112.302 6.76559 114.649 8.79339 116.143 11.195C118.698 15.3088 119.573 18.9205 118.981 22.9032C118.369 27.0125 116.305 30.8904 113.308 33.5481C108.856 37.4967 104.857 38.9493 99.9977 38.3648L96.5818 43.7481C96.4792 43.9058 96.2932 43.996 96.1085 43.9699L96.091 43.967L96.0902 43.9714Z" fill="#BDF0E8"/>
<path d="M97.8318 30.3927C95.618 30.0264 93.6379 27.4612 92.1001 25.1235C90.2498 22.3166 89.594 19.1762 90.2997 16.5108C91.1514 13.2886 94.1284 10.9944 97.0767 11.2871C98.9391 11.4727 100.759 12.6725 101.96 14.4961C102.107 14.7201 102.248 14.9566 102.382 15.2013C102.804 14.8445 103.254 14.5422 103.733 14.3037C105.823 13.2471 108.921 13.4466 110.483 15.6113C111.557 17.0916 111.691 19.2378 110.845 21.2083C110.038 23.0763 108.55 24.4776 107.347 25.4858C104.159 28.1582 101.483 29.7442 99.1681 30.3415C98.7183 30.4577 98.2721 30.4701 97.8354 30.3979L97.8318 30.3927ZM97.2499 12.3006C97.1582 12.2855 97.0665 12.2703 96.9734 12.2639C94.5287 12.0183 91.9566 14.0345 91.237 16.7567C90.6072 19.1533 91.2129 21.9994 92.9092 24.5721C93.8878 26.0593 96.4914 30.0075 98.9235 29.3797C101.093 28.8218 103.647 27.2973 106.72 24.7195C107.84 23.7792 109.22 22.4871 109.946 20.81C110.646 19.1829 110.547 17.3692 109.693 16.1885C108.583 14.6523 106.101 14.1964 104.162 15.1781C103.658 15.435 103.211 15.7514 102.82 16.1088C103.28 17.2017 103.613 18.4686 103.846 19.9912C103.987 20.9269 104.074 21.9216 103.746 22.8476C103.407 23.8083 102.463 24.7414 101.313 24.6691C100.319 24.6045 99.4377 23.7778 99.1743 22.6586C98.9355 21.6614 99.1874 20.6546 99.4259 19.8908C99.9314 18.2996 100.69 16.941 101.643 15.9005C101.491 15.5985 101.323 15.312 101.144 15.0373C100.166 13.5501 98.7258 12.5448 97.2499 12.3006ZM102.075 16.8933C101.151 18.0295 100.627 19.327 100.35 20.1889C100.145 20.8313 99.9356 21.6635 100.119 22.4246C100.256 23.0055 100.746 23.6494 101.377 23.6858C102.035 23.7264 102.616 23.1146 102.827 22.5186C103.064 21.8408 103.02 21.08 102.879 20.1443C102.687 18.8873 102.425 17.818 102.076 16.8889L102.075 16.8933Z" fill="#333335"/>
</svg>
